G75*
G70*
%OFA0B0*%
%FSLAX24Y24*%
%IPPOS*%
%LPD*%
%AMOC8*
5,1,8,0,0,1.08239X$1,22.5*
%
%ADD10C,0.0000*%
%ADD11C,0.0060*%
%ADD12C,0.0030*%
%ADD13C,0.0040*%
%ADD14C,0.0100*%
%ADD15C,0.0020*%
%ADD16C,0.0050*%
%ADD17C,0.0080*%
%ADD18R,0.0250X0.0300*%
%ADD19R,0.1100X0.0500*%
%ADD20C,0.0010*%
D10*
X011652Y000125D02*
X050644Y000125D01*
X050644Y031295D01*
X011652Y031295D01*
X011652Y000125D01*
X012402Y001225D02*
X012404Y001275D01*
X012410Y001325D01*
X012420Y001375D01*
X012433Y001423D01*
X012450Y001471D01*
X012471Y001517D01*
X012495Y001561D01*
X012523Y001603D01*
X012554Y001643D01*
X012588Y001680D01*
X012625Y001715D01*
X012664Y001746D01*
X012705Y001775D01*
X012749Y001800D01*
X012795Y001822D01*
X012842Y001840D01*
X012890Y001854D01*
X012939Y001865D01*
X012989Y001872D01*
X013039Y001875D01*
X013090Y001874D01*
X013140Y001869D01*
X013190Y001860D01*
X013238Y001848D01*
X013286Y001831D01*
X013332Y001811D01*
X013377Y001788D01*
X013420Y001761D01*
X013460Y001731D01*
X013498Y001698D01*
X013533Y001662D01*
X013566Y001623D01*
X013595Y001582D01*
X013621Y001539D01*
X013644Y001494D01*
X013663Y001447D01*
X013678Y001399D01*
X013690Y001350D01*
X013698Y001300D01*
X013702Y001250D01*
X013702Y001200D01*
X013698Y001150D01*
X013690Y001100D01*
X013678Y001051D01*
X013663Y001003D01*
X013644Y000956D01*
X013621Y000911D01*
X013595Y000868D01*
X013566Y000827D01*
X013533Y000788D01*
X013498Y000752D01*
X013460Y000719D01*
X013420Y000689D01*
X013377Y000662D01*
X013332Y000639D01*
X013286Y000619D01*
X013238Y000602D01*
X013190Y000590D01*
X013140Y000581D01*
X013090Y000576D01*
X013039Y000575D01*
X012989Y000578D01*
X012939Y000585D01*
X012890Y000596D01*
X012842Y000610D01*
X012795Y000628D01*
X012749Y000650D01*
X012705Y000675D01*
X012664Y000704D01*
X012625Y000735D01*
X012588Y000770D01*
X012554Y000807D01*
X012523Y000847D01*
X012495Y000889D01*
X012471Y000933D01*
X012450Y000979D01*
X012433Y001027D01*
X012420Y001075D01*
X012410Y001125D01*
X012404Y001175D01*
X012402Y001225D01*
X039002Y017625D02*
X039004Y017675D01*
X039010Y017725D01*
X039020Y017775D01*
X039033Y017823D01*
X039050Y017871D01*
X039071Y017917D01*
X039095Y017961D01*
X039123Y018003D01*
X039154Y018043D01*
X039188Y018080D01*
X039225Y018115D01*
X039264Y018146D01*
X039305Y018175D01*
X039349Y018200D01*
X039395Y018222D01*
X039442Y018240D01*
X039490Y018254D01*
X039539Y018265D01*
X039589Y018272D01*
X039639Y018275D01*
X039690Y018274D01*
X039740Y018269D01*
X039790Y018260D01*
X039838Y018248D01*
X039886Y018231D01*
X039932Y018211D01*
X039977Y018188D01*
X040020Y018161D01*
X040060Y018131D01*
X040098Y018098D01*
X040133Y018062D01*
X040166Y018023D01*
X040195Y017982D01*
X040221Y017939D01*
X040244Y017894D01*
X040263Y017847D01*
X040278Y017799D01*
X040290Y017750D01*
X040298Y017700D01*
X040302Y017650D01*
X040302Y017600D01*
X040298Y017550D01*
X040290Y017500D01*
X040278Y017451D01*
X040263Y017403D01*
X040244Y017356D01*
X040221Y017311D01*
X040195Y017268D01*
X040166Y017227D01*
X040133Y017188D01*
X040098Y017152D01*
X040060Y017119D01*
X040020Y017089D01*
X039977Y017062D01*
X039932Y017039D01*
X039886Y017019D01*
X039838Y017002D01*
X039790Y016990D01*
X039740Y016981D01*
X039690Y016976D01*
X039639Y016975D01*
X039589Y016978D01*
X039539Y016985D01*
X039490Y016996D01*
X039442Y017010D01*
X039395Y017028D01*
X039349Y017050D01*
X039305Y017075D01*
X039264Y017104D01*
X039225Y017135D01*
X039188Y017170D01*
X039154Y017207D01*
X039123Y017247D01*
X039095Y017289D01*
X039071Y017333D01*
X039050Y017379D01*
X039033Y017427D01*
X039020Y017475D01*
X039010Y017525D01*
X039004Y017575D01*
X039002Y017625D01*
X021202Y023525D02*
X021204Y023575D01*
X021210Y023625D01*
X021220Y023675D01*
X021233Y023723D01*
X021250Y023771D01*
X021271Y023817D01*
X021295Y023861D01*
X021323Y023903D01*
X021354Y023943D01*
X021388Y023980D01*
X021425Y024015D01*
X021464Y024046D01*
X021505Y024075D01*
X021549Y024100D01*
X021595Y024122D01*
X021642Y024140D01*
X021690Y024154D01*
X021739Y024165D01*
X021789Y024172D01*
X021839Y024175D01*
X021890Y024174D01*
X021940Y024169D01*
X021990Y024160D01*
X022038Y024148D01*
X022086Y024131D01*
X022132Y024111D01*
X022177Y024088D01*
X022220Y024061D01*
X022260Y024031D01*
X022298Y023998D01*
X022333Y023962D01*
X022366Y023923D01*
X022395Y023882D01*
X022421Y023839D01*
X022444Y023794D01*
X022463Y023747D01*
X022478Y023699D01*
X022490Y023650D01*
X022498Y023600D01*
X022502Y023550D01*
X022502Y023500D01*
X022498Y023450D01*
X022490Y023400D01*
X022478Y023351D01*
X022463Y023303D01*
X022444Y023256D01*
X022421Y023211D01*
X022395Y023168D01*
X022366Y023127D01*
X022333Y023088D01*
X022298Y023052D01*
X022260Y023019D01*
X022220Y022989D01*
X022177Y022962D01*
X022132Y022939D01*
X022086Y022919D01*
X022038Y022902D01*
X021990Y022890D01*
X021940Y022881D01*
X021890Y022876D01*
X021839Y022875D01*
X021789Y022878D01*
X021739Y022885D01*
X021690Y022896D01*
X021642Y022910D01*
X021595Y022928D01*
X021549Y022950D01*
X021505Y022975D01*
X021464Y023004D01*
X021425Y023035D01*
X021388Y023070D01*
X021354Y023107D01*
X021323Y023147D01*
X021295Y023189D01*
X021271Y023233D01*
X021250Y023279D01*
X021233Y023327D01*
X021220Y023375D01*
X021210Y023425D01*
X021204Y023475D01*
X021202Y023525D01*
X039002Y029825D02*
X039004Y029875D01*
X039010Y029925D01*
X039020Y029975D01*
X039033Y030023D01*
X039050Y030071D01*
X039071Y030117D01*
X039095Y030161D01*
X039123Y030203D01*
X039154Y030243D01*
X039188Y030280D01*
X039225Y030315D01*
X039264Y030346D01*
X039305Y030375D01*
X039349Y030400D01*
X039395Y030422D01*
X039442Y030440D01*
X039490Y030454D01*
X039539Y030465D01*
X039589Y030472D01*
X039639Y030475D01*
X039690Y030474D01*
X039740Y030469D01*
X039790Y030460D01*
X039838Y030448D01*
X039886Y030431D01*
X039932Y030411D01*
X039977Y030388D01*
X040020Y030361D01*
X040060Y030331D01*
X040098Y030298D01*
X040133Y030262D01*
X040166Y030223D01*
X040195Y030182D01*
X040221Y030139D01*
X040244Y030094D01*
X040263Y030047D01*
X040278Y029999D01*
X040290Y029950D01*
X040298Y029900D01*
X040302Y029850D01*
X040302Y029800D01*
X040298Y029750D01*
X040290Y029700D01*
X040278Y029651D01*
X040263Y029603D01*
X040244Y029556D01*
X040221Y029511D01*
X040195Y029468D01*
X040166Y029427D01*
X040133Y029388D01*
X040098Y029352D01*
X040060Y029319D01*
X040020Y029289D01*
X039977Y029262D01*
X039932Y029239D01*
X039886Y029219D01*
X039838Y029202D01*
X039790Y029190D01*
X039740Y029181D01*
X039690Y029176D01*
X039639Y029175D01*
X039589Y029178D01*
X039539Y029185D01*
X039490Y029196D01*
X039442Y029210D01*
X039395Y029228D01*
X039349Y029250D01*
X039305Y029275D01*
X039264Y029304D01*
X039225Y029335D01*
X039188Y029370D01*
X039154Y029407D01*
X039123Y029447D01*
X039095Y029489D01*
X039071Y029533D01*
X039050Y029579D01*
X039033Y029627D01*
X039020Y029675D01*
X039010Y029725D01*
X039004Y029775D01*
X039002Y029825D01*
X048802Y029825D02*
X048804Y029875D01*
X048810Y029925D01*
X048820Y029975D01*
X048833Y030023D01*
X048850Y030071D01*
X048871Y030117D01*
X048895Y030161D01*
X048923Y030203D01*
X048954Y030243D01*
X048988Y030280D01*
X049025Y030315D01*
X049064Y030346D01*
X049105Y030375D01*
X049149Y030400D01*
X049195Y030422D01*
X049242Y030440D01*
X049290Y030454D01*
X049339Y030465D01*
X049389Y030472D01*
X049439Y030475D01*
X049490Y030474D01*
X049540Y030469D01*
X049590Y030460D01*
X049638Y030448D01*
X049686Y030431D01*
X049732Y030411D01*
X049777Y030388D01*
X049820Y030361D01*
X049860Y030331D01*
X049898Y030298D01*
X049933Y030262D01*
X049966Y030223D01*
X049995Y030182D01*
X050021Y030139D01*
X050044Y030094D01*
X050063Y030047D01*
X050078Y029999D01*
X050090Y029950D01*
X050098Y029900D01*
X050102Y029850D01*
X050102Y029800D01*
X050098Y029750D01*
X050090Y029700D01*
X050078Y029651D01*
X050063Y029603D01*
X050044Y029556D01*
X050021Y029511D01*
X049995Y029468D01*
X049966Y029427D01*
X049933Y029388D01*
X049898Y029352D01*
X049860Y029319D01*
X049820Y029289D01*
X049777Y029262D01*
X049732Y029239D01*
X049686Y029219D01*
X049638Y029202D01*
X049590Y029190D01*
X049540Y029181D01*
X049490Y029176D01*
X049439Y029175D01*
X049389Y029178D01*
X049339Y029185D01*
X049290Y029196D01*
X049242Y029210D01*
X049195Y029228D01*
X049149Y029250D01*
X049105Y029275D01*
X049064Y029304D01*
X049025Y029335D01*
X048988Y029370D01*
X048954Y029407D01*
X048923Y029447D01*
X048895Y029489D01*
X048871Y029533D01*
X048850Y029579D01*
X048833Y029627D01*
X048820Y029675D01*
X048810Y029725D01*
X048804Y029775D01*
X048802Y029825D01*
X048802Y001225D02*
X048804Y001275D01*
X048810Y001325D01*
X048820Y001375D01*
X048833Y001423D01*
X048850Y001471D01*
X048871Y001517D01*
X048895Y001561D01*
X048923Y001603D01*
X048954Y001643D01*
X048988Y001680D01*
X049025Y001715D01*
X049064Y001746D01*
X049105Y001775D01*
X049149Y001800D01*
X049195Y001822D01*
X049242Y001840D01*
X049290Y001854D01*
X049339Y001865D01*
X049389Y001872D01*
X049439Y001875D01*
X049490Y001874D01*
X049540Y001869D01*
X049590Y001860D01*
X049638Y001848D01*
X049686Y001831D01*
X049732Y001811D01*
X049777Y001788D01*
X049820Y001761D01*
X049860Y001731D01*
X049898Y001698D01*
X049933Y001662D01*
X049966Y001623D01*
X049995Y001582D01*
X050021Y001539D01*
X050044Y001494D01*
X050063Y001447D01*
X050078Y001399D01*
X050090Y001350D01*
X050098Y001300D01*
X050102Y001250D01*
X050102Y001200D01*
X050098Y001150D01*
X050090Y001100D01*
X050078Y001051D01*
X050063Y001003D01*
X050044Y000956D01*
X050021Y000911D01*
X049995Y000868D01*
X049966Y000827D01*
X049933Y000788D01*
X049898Y000752D01*
X049860Y000719D01*
X049820Y000689D01*
X049777Y000662D01*
X049732Y000639D01*
X049686Y000619D01*
X049638Y000602D01*
X049590Y000590D01*
X049540Y000581D01*
X049490Y000576D01*
X049439Y000575D01*
X049389Y000578D01*
X049339Y000585D01*
X049290Y000596D01*
X049242Y000610D01*
X049195Y000628D01*
X049149Y000650D01*
X049105Y000675D01*
X049064Y000704D01*
X049025Y000735D01*
X048988Y000770D01*
X048954Y000807D01*
X048923Y000847D01*
X048895Y000889D01*
X048871Y000933D01*
X048850Y000979D01*
X048833Y001027D01*
X048820Y001075D01*
X048810Y001125D01*
X048804Y001175D01*
X048802Y001225D01*
D11*
X043946Y001305D02*
X043775Y001418D01*
X043946Y001532D01*
X043775Y001645D02*
X043775Y001305D01*
X043634Y001305D02*
X043407Y001305D01*
X043521Y001305D02*
X043521Y001645D01*
X043407Y001532D01*
X039646Y001532D02*
X039475Y001418D01*
X039646Y001305D01*
X039475Y001305D02*
X039475Y001645D01*
X039221Y001645D02*
X039221Y001305D01*
X039334Y001305D02*
X039107Y001305D01*
X039107Y001532D02*
X039221Y001645D01*
X036052Y001725D02*
X036052Y001325D01*
X036050Y001299D01*
X036045Y001273D01*
X036037Y001248D01*
X036025Y001225D01*
X036011Y001203D01*
X035993Y001184D01*
X035974Y001166D01*
X035952Y001152D01*
X035929Y001140D01*
X035904Y001132D01*
X035878Y001127D01*
X035852Y001125D01*
X028252Y001125D01*
X028226Y001127D01*
X028200Y001132D01*
X028175Y001140D01*
X028152Y001152D01*
X028130Y001166D01*
X028111Y001184D01*
X028093Y001203D01*
X028079Y001225D01*
X028067Y001248D01*
X028059Y001273D01*
X028054Y001299D01*
X028052Y001325D01*
X028052Y001725D01*
X028054Y001751D01*
X028059Y001777D01*
X028067Y001802D01*
X028079Y001825D01*
X028093Y001847D01*
X028111Y001866D01*
X028130Y001884D01*
X028152Y001898D01*
X028175Y001910D01*
X028200Y001918D01*
X028226Y001923D01*
X028252Y001925D01*
X035852Y001925D01*
X035902Y001875D02*
X035202Y001875D01*
X035202Y001175D01*
X035902Y001175D01*
X035902Y001875D01*
X035852Y001925D02*
X035878Y001923D01*
X035904Y001918D01*
X035929Y001910D01*
X035952Y001898D01*
X035974Y001884D01*
X035993Y001866D01*
X036011Y001847D01*
X036025Y001825D01*
X036037Y001802D01*
X036045Y001777D01*
X036050Y001751D01*
X036052Y001725D01*
X027113Y001075D02*
X026686Y001075D01*
X027007Y001396D01*
X027007Y000755D01*
X026471Y000755D02*
X026364Y000755D01*
X026364Y000862D01*
X026471Y000862D01*
X026471Y000755D01*
X026147Y000862D02*
X026040Y000755D01*
X025826Y000755D01*
X025719Y000862D01*
X026147Y001289D01*
X026147Y000862D01*
X025719Y000862D02*
X025719Y001289D01*
X025826Y001396D01*
X026040Y001396D01*
X026147Y001289D01*
X025503Y001182D02*
X025396Y001182D01*
X025182Y000969D01*
X025182Y001182D02*
X025182Y000755D01*
X024972Y004955D02*
X024972Y005182D01*
X024972Y005068D02*
X024632Y005068D01*
X024746Y004955D01*
X024689Y005323D02*
X024632Y005380D01*
X024632Y005493D01*
X024689Y005550D01*
X024916Y005323D01*
X024972Y005380D01*
X024972Y005493D01*
X024916Y005550D01*
X024689Y005550D01*
X024689Y005692D02*
X024632Y005748D01*
X024632Y005862D01*
X024689Y005918D01*
X024916Y005692D01*
X024972Y005748D01*
X024972Y005862D01*
X024916Y005918D01*
X024689Y005918D01*
X024689Y005692D02*
X024916Y005692D01*
X024916Y005323D02*
X024689Y005323D01*
X031307Y009205D02*
X031534Y009205D01*
X031421Y009205D02*
X031421Y009545D01*
X031307Y009432D01*
X031675Y009545D02*
X031675Y009205D01*
X031675Y009318D02*
X031846Y009432D01*
X031675Y009318D02*
X031846Y009205D01*
X033909Y010662D02*
X033909Y011089D01*
X034122Y010875D02*
X033695Y010875D01*
X033802Y012425D02*
X033052Y012425D01*
X033050Y012464D01*
X033044Y012503D01*
X033035Y012541D01*
X033022Y012578D01*
X033005Y012614D01*
X032985Y012647D01*
X032961Y012679D01*
X032935Y012708D01*
X032906Y012734D01*
X032874Y012758D01*
X032841Y012778D01*
X032805Y012795D01*
X032768Y012808D01*
X032730Y012817D01*
X032691Y012823D01*
X032652Y012825D01*
X032613Y012823D01*
X032574Y012817D01*
X032536Y012808D01*
X032499Y012795D01*
X032463Y012778D01*
X032430Y012758D01*
X032398Y012734D01*
X032369Y012708D01*
X032343Y012679D01*
X032319Y012647D01*
X032299Y012614D01*
X032282Y012578D01*
X032269Y012541D01*
X032260Y012503D01*
X032254Y012464D01*
X032252Y012425D01*
X031502Y012425D01*
X031502Y020425D01*
X033802Y020425D01*
X033802Y012425D01*
X037102Y009025D02*
X037852Y009025D01*
X037854Y009064D01*
X037860Y009103D01*
X037869Y009141D01*
X037882Y009178D01*
X037899Y009214D01*
X037919Y009247D01*
X037943Y009279D01*
X037969Y009308D01*
X037998Y009334D01*
X038030Y009358D01*
X038063Y009378D01*
X038099Y009395D01*
X038136Y009408D01*
X038174Y009417D01*
X038213Y009423D01*
X038252Y009425D01*
X038291Y009423D01*
X038330Y009417D01*
X038368Y009408D01*
X038405Y009395D01*
X038441Y009378D01*
X038474Y009358D01*
X038506Y009334D01*
X038535Y009308D01*
X038561Y009279D01*
X038585Y009247D01*
X038605Y009214D01*
X038622Y009178D01*
X038635Y009141D01*
X038644Y009103D01*
X038650Y009064D01*
X038652Y009025D01*
X039402Y009025D01*
X039402Y016025D01*
X037102Y016025D01*
X037102Y009025D01*
X039895Y010875D02*
X040322Y010875D01*
X040109Y011089D02*
X040109Y010662D01*
X042052Y013875D02*
X042052Y016175D01*
X050052Y016175D01*
X050052Y015425D01*
X050013Y015423D01*
X049974Y015417D01*
X049936Y015408D01*
X049899Y015395D01*
X049863Y015378D01*
X049830Y015358D01*
X049798Y015334D01*
X049769Y015308D01*
X049743Y015279D01*
X049719Y015247D01*
X049699Y015214D01*
X049682Y015178D01*
X049669Y015141D01*
X049660Y015103D01*
X049654Y015064D01*
X049652Y015025D01*
X049654Y014986D01*
X049660Y014947D01*
X049669Y014909D01*
X049682Y014872D01*
X049699Y014836D01*
X049719Y014803D01*
X049743Y014771D01*
X049769Y014742D01*
X049798Y014716D01*
X049830Y014692D01*
X049863Y014672D01*
X049899Y014655D01*
X049936Y014642D01*
X049974Y014633D01*
X050013Y014627D01*
X050052Y014625D01*
X050052Y013875D01*
X042052Y013875D01*
X046495Y011375D02*
X046922Y011375D01*
X046709Y011589D02*
X046709Y011162D01*
X045851Y009845D02*
X045851Y009505D01*
X045851Y009618D02*
X046021Y009505D01*
X045851Y009618D02*
X046021Y009732D01*
X045709Y009505D02*
X045482Y009505D01*
X045596Y009505D02*
X045596Y009845D01*
X045482Y009732D01*
X027722Y010875D02*
X027295Y010875D01*
X027509Y010662D02*
X027509Y011089D01*
X020972Y014555D02*
X020972Y014782D01*
X020972Y014668D02*
X020632Y014668D01*
X020746Y014555D01*
X020689Y014923D02*
X020632Y014980D01*
X020632Y015093D01*
X020689Y015150D01*
X020916Y014923D01*
X020972Y014980D01*
X020972Y015093D01*
X020916Y015150D01*
X020689Y015150D01*
X020632Y015292D02*
X020972Y015292D01*
X020859Y015292D02*
X020746Y015462D01*
X020859Y015292D02*
X020972Y015462D01*
X020916Y014923D02*
X020689Y014923D01*
X019872Y014880D02*
X019816Y014823D01*
X019589Y015050D01*
X019816Y015050D01*
X019872Y014993D01*
X019872Y014880D01*
X019816Y014823D02*
X019589Y014823D01*
X019532Y014880D01*
X019532Y014993D01*
X019589Y015050D01*
X019532Y015192D02*
X019872Y015192D01*
X019759Y015192D02*
X019646Y015362D01*
X019759Y015192D02*
X019872Y015362D01*
X019872Y014682D02*
X019872Y014455D01*
X019872Y014568D02*
X019532Y014568D01*
X019646Y014455D01*
X018102Y012525D02*
X015802Y012525D01*
X015802Y016525D01*
X016552Y016525D01*
X016554Y016486D01*
X016560Y016447D01*
X016569Y016409D01*
X016582Y016372D01*
X016599Y016336D01*
X016619Y016303D01*
X016643Y016271D01*
X016669Y016242D01*
X016698Y016216D01*
X016730Y016192D01*
X016763Y016172D01*
X016799Y016155D01*
X016836Y016142D01*
X016874Y016133D01*
X016913Y016127D01*
X016952Y016125D01*
X016991Y016127D01*
X017030Y016133D01*
X017068Y016142D01*
X017105Y016155D01*
X017141Y016172D01*
X017174Y016192D01*
X017206Y016216D01*
X017235Y016242D01*
X017261Y016271D01*
X017285Y016303D01*
X017305Y016336D01*
X017322Y016372D01*
X017335Y016409D01*
X017344Y016447D01*
X017350Y016486D01*
X017352Y016525D01*
X018102Y016525D01*
X018102Y012525D01*
X019709Y011189D02*
X019709Y010762D01*
X019922Y010975D02*
X019495Y010975D01*
X013522Y010975D02*
X013095Y010975D01*
X013309Y010762D02*
X013309Y011189D01*
X012572Y011248D02*
X012516Y011192D01*
X012289Y011418D01*
X012516Y011418D01*
X012572Y011362D01*
X012572Y011248D01*
X012516Y011192D02*
X012289Y011192D01*
X012232Y011248D01*
X012232Y011362D01*
X012289Y011418D01*
X012289Y011050D02*
X012516Y010823D01*
X012572Y010880D01*
X012572Y010993D01*
X012516Y011050D01*
X012289Y011050D01*
X012232Y010993D01*
X012232Y010880D01*
X012289Y010823D01*
X012516Y010823D01*
X012572Y010682D02*
X012572Y010455D01*
X012572Y010568D02*
X012232Y010568D01*
X012346Y010455D01*
X022952Y015825D02*
X025152Y015825D01*
X025152Y019825D01*
X024302Y019825D01*
X024300Y019795D01*
X024295Y019765D01*
X024286Y019736D01*
X024273Y019709D01*
X024258Y019683D01*
X024239Y019659D01*
X024218Y019638D01*
X024194Y019619D01*
X024168Y019604D01*
X024141Y019591D01*
X024112Y019582D01*
X024082Y019577D01*
X024052Y019575D01*
X024022Y019577D01*
X023992Y019582D01*
X023963Y019591D01*
X023936Y019604D01*
X023910Y019619D01*
X023886Y019638D01*
X023865Y019659D01*
X023846Y019683D01*
X023831Y019709D01*
X023818Y019736D01*
X023809Y019765D01*
X023804Y019795D01*
X023802Y019825D01*
X022952Y019825D01*
X022952Y015825D01*
X021852Y021475D02*
X021852Y021825D01*
X021252Y021825D01*
X021252Y021475D01*
X020502Y021475D01*
X020502Y025575D01*
X021252Y025575D01*
X021252Y025225D01*
X021852Y025225D01*
X021852Y025575D01*
X026752Y025575D01*
X026752Y021475D01*
X021852Y021475D01*
X021142Y023525D02*
X021144Y023578D01*
X021150Y023631D01*
X021160Y023683D01*
X021174Y023734D01*
X021191Y023784D01*
X021212Y023833D01*
X021237Y023880D01*
X021265Y023925D01*
X021297Y023968D01*
X021332Y024008D01*
X021369Y024045D01*
X021409Y024080D01*
X021452Y024112D01*
X021497Y024140D01*
X021544Y024165D01*
X021593Y024186D01*
X021643Y024203D01*
X021694Y024217D01*
X021746Y024227D01*
X021799Y024233D01*
X021852Y024235D01*
X021905Y024233D01*
X021958Y024227D01*
X022010Y024217D01*
X022061Y024203D01*
X022111Y024186D01*
X022160Y024165D01*
X022207Y024140D01*
X022252Y024112D01*
X022295Y024080D01*
X022335Y024045D01*
X022372Y024008D01*
X022407Y023968D01*
X022439Y023925D01*
X022467Y023880D01*
X022492Y023833D01*
X022513Y023784D01*
X022530Y023734D01*
X022544Y023683D01*
X022554Y023631D01*
X022560Y023578D01*
X022562Y023525D01*
X022560Y023472D01*
X022554Y023419D01*
X022544Y023367D01*
X022530Y023316D01*
X022513Y023266D01*
X022492Y023217D01*
X022467Y023170D01*
X022439Y023125D01*
X022407Y023082D01*
X022372Y023042D01*
X022335Y023005D01*
X022295Y022970D01*
X022252Y022938D01*
X022207Y022910D01*
X022160Y022885D01*
X022111Y022864D01*
X022061Y022847D01*
X022010Y022833D01*
X021958Y022823D01*
X021905Y022817D01*
X021852Y022815D01*
X021799Y022817D01*
X021746Y022823D01*
X021694Y022833D01*
X021643Y022847D01*
X021593Y022864D01*
X021544Y022885D01*
X021497Y022910D01*
X021452Y022938D01*
X021409Y022970D01*
X021369Y023005D01*
X021332Y023042D01*
X021297Y023082D01*
X021265Y023125D01*
X021237Y023170D01*
X021212Y023217D01*
X021191Y023266D01*
X021174Y023316D01*
X021160Y023367D01*
X021150Y023419D01*
X021144Y023472D01*
X021142Y023525D01*
D12*
X013537Y018200D02*
X013414Y018324D01*
X013167Y018324D01*
X013167Y018077D02*
X013414Y018077D01*
X013537Y018200D01*
X013476Y017955D02*
X013537Y017893D01*
X013537Y017770D01*
X013476Y017708D01*
X013352Y017708D02*
X013290Y017832D01*
X013290Y017893D01*
X013352Y017955D01*
X013476Y017955D01*
X013352Y017708D02*
X013167Y017708D01*
X013167Y017955D01*
X013352Y017587D02*
X013352Y017340D01*
X013229Y017463D02*
X013476Y017463D01*
X013476Y014824D02*
X013229Y014824D01*
X013167Y014762D01*
X013167Y014577D01*
X013537Y014577D01*
X013537Y014762D01*
X013476Y014824D01*
X013537Y014455D02*
X013167Y014455D01*
X013167Y014208D02*
X013537Y014455D01*
X013537Y014208D02*
X013167Y014208D01*
X013229Y014087D02*
X013167Y014025D01*
X013167Y013902D01*
X013229Y013840D01*
X013476Y013840D01*
X013537Y013902D01*
X013537Y014025D01*
X013476Y014087D01*
X013352Y014087D01*
X013352Y013963D01*
X017329Y030740D02*
X017267Y030802D01*
X017267Y030925D01*
X017329Y030987D01*
X017453Y030987D01*
X017514Y030925D01*
X017514Y030802D01*
X017453Y030740D01*
X017329Y030740D01*
X017636Y030740D02*
X017883Y030740D01*
X018004Y030740D02*
X018251Y030740D01*
X018372Y030740D02*
X018557Y030740D01*
X018619Y030802D01*
X018619Y031049D01*
X018557Y031110D01*
X018372Y031110D01*
X018372Y030740D01*
X018127Y030925D02*
X018004Y030925D01*
X018004Y031110D02*
X018004Y030740D01*
X017636Y030740D02*
X017636Y031110D01*
X018004Y031110D02*
X018251Y031110D01*
X019109Y031110D02*
X019109Y030740D01*
X019294Y030740D01*
X019356Y030802D01*
X019356Y031049D01*
X019294Y031110D01*
X019109Y031110D01*
X019477Y030987D02*
X019539Y030987D01*
X019539Y030740D01*
X019477Y030740D02*
X019601Y030740D01*
X019723Y030740D02*
X019908Y030740D01*
X019970Y030802D01*
X019908Y030863D01*
X019785Y030863D01*
X019723Y030925D01*
X019785Y030987D01*
X019970Y030987D01*
X020091Y030987D02*
X020091Y030617D01*
X020091Y030740D02*
X020276Y030740D01*
X020338Y030802D01*
X020338Y030925D01*
X020276Y030987D01*
X020091Y030987D01*
X020459Y031110D02*
X020521Y031110D01*
X020521Y030740D01*
X020459Y030740D02*
X020583Y030740D01*
X020705Y030802D02*
X020767Y030740D01*
X020952Y030740D01*
X020952Y030925D01*
X020890Y030987D01*
X020767Y030987D01*
X020767Y030863D02*
X020952Y030863D01*
X021073Y030802D02*
X021135Y030740D01*
X021320Y030740D01*
X021320Y030678D02*
X021258Y030617D01*
X021197Y030617D01*
X021320Y030678D02*
X021320Y030987D01*
X021073Y030987D02*
X021073Y030802D01*
X020767Y030863D02*
X020705Y030802D01*
X021810Y030740D02*
X021933Y030740D01*
X021872Y030740D02*
X021872Y030987D01*
X021810Y030987D01*
X021872Y031110D02*
X021872Y031172D01*
X022302Y031110D02*
X022055Y030740D01*
X022424Y030802D02*
X022485Y030740D01*
X022609Y030740D01*
X022671Y030802D01*
X022671Y030925D01*
X022609Y030987D01*
X022485Y030987D01*
X022424Y030925D01*
X022424Y030802D01*
X019539Y031110D02*
X019539Y031172D01*
X043174Y023210D02*
X043421Y023210D01*
X043543Y023210D02*
X043543Y022840D01*
X043543Y023025D02*
X043790Y023025D01*
X043911Y022902D02*
X043973Y022840D01*
X044096Y022840D01*
X044158Y022902D01*
X044158Y023210D01*
X044279Y023210D02*
X044403Y023087D01*
X044526Y023210D01*
X044526Y022840D01*
X044648Y022840D02*
X044648Y023210D01*
X044833Y023210D01*
X044894Y023149D01*
X044894Y023087D01*
X044833Y023025D01*
X044648Y023025D01*
X044833Y023025D02*
X044894Y022963D01*
X044894Y022902D01*
X044833Y022840D01*
X044648Y022840D01*
X044279Y022840D02*
X044279Y023210D01*
X043911Y023210D02*
X043911Y022902D01*
X043790Y022840D02*
X043790Y023210D01*
X043298Y023210D02*
X043298Y022840D01*
X045016Y022778D02*
X045263Y022778D01*
X045384Y022902D02*
X045446Y022840D01*
X045569Y022840D01*
X045631Y022902D01*
X045753Y022902D02*
X045814Y022840D01*
X045938Y022840D01*
X045999Y022902D01*
X045999Y023149D01*
X045938Y023210D01*
X045814Y023210D01*
X045753Y023149D01*
X045753Y022902D01*
X045631Y023149D02*
X045569Y023210D01*
X045446Y023210D01*
X045384Y023149D01*
X045384Y022902D01*
X046121Y022840D02*
X046121Y023210D01*
X046368Y022840D01*
X046368Y023210D01*
X046489Y023210D02*
X046736Y023210D01*
X046857Y023210D02*
X047043Y023210D01*
X047104Y023149D01*
X047104Y023025D01*
X047043Y022963D01*
X046857Y022963D01*
X046857Y022840D02*
X046857Y023210D01*
X046613Y023210D02*
X046613Y022840D01*
X046981Y022963D02*
X047104Y022840D01*
X047226Y022902D02*
X047226Y023149D01*
X047288Y023210D01*
X047411Y023210D01*
X047473Y023149D01*
X047473Y022902D01*
X047411Y022840D01*
X047288Y022840D01*
X047226Y022902D01*
X047594Y022840D02*
X047841Y022840D01*
X047962Y022840D02*
X048209Y022840D01*
X048331Y022840D02*
X048578Y022840D01*
X048699Y022840D02*
X048699Y023210D01*
X048884Y023210D01*
X048946Y023149D01*
X048946Y023025D01*
X048884Y022963D01*
X048699Y022963D01*
X048822Y022963D02*
X048946Y022840D01*
X048578Y023210D02*
X048331Y023210D01*
X048331Y022840D01*
X048331Y023025D02*
X048454Y023025D01*
X047962Y023210D02*
X047962Y022840D01*
X047594Y022840D02*
X047594Y023210D01*
D13*
X038279Y015415D02*
X038279Y015185D01*
X038432Y015185D02*
X037972Y015185D01*
X037972Y015415D01*
X038049Y015492D01*
X038202Y015492D01*
X038279Y015415D01*
X038432Y015031D02*
X037972Y015031D01*
X038125Y014878D01*
X037972Y014724D01*
X038432Y014724D01*
X038432Y014571D02*
X038125Y014571D01*
X037972Y014417D01*
X038125Y014264D01*
X038432Y014264D01*
X038202Y014264D02*
X038202Y014571D01*
X038202Y013650D02*
X038279Y013573D01*
X038279Y013343D01*
X038432Y013343D02*
X037972Y013343D01*
X037972Y013573D01*
X038049Y013650D01*
X038202Y013650D01*
X038049Y013190D02*
X037972Y013113D01*
X037972Y012959D01*
X038049Y012883D01*
X038356Y012883D01*
X038432Y012959D01*
X038432Y013113D01*
X038356Y013190D01*
X038049Y013190D01*
X035607Y012255D02*
X035607Y011895D01*
X035668Y012075D02*
X035427Y012075D01*
X035607Y012255D01*
X035299Y012195D02*
X035299Y011955D01*
X035239Y011895D01*
X035059Y011895D01*
X035059Y012255D01*
X035239Y012255D01*
X035299Y012195D01*
X034931Y012255D02*
X034691Y012255D01*
X034691Y011895D01*
X034931Y011895D01*
X034811Y012075D02*
X034691Y012075D01*
X034563Y011895D02*
X034322Y011895D01*
X034322Y012255D01*
X029368Y012235D02*
X029307Y012175D01*
X029368Y012115D01*
X029368Y012055D01*
X029307Y011995D01*
X029187Y011995D01*
X029127Y012055D01*
X028999Y012055D02*
X028999Y012295D01*
X028939Y012355D01*
X028759Y012355D01*
X028759Y011995D01*
X028939Y011995D01*
X028999Y012055D01*
X029127Y012295D02*
X029187Y012355D01*
X029307Y012355D01*
X029368Y012295D01*
X029368Y012235D01*
X029307Y012175D02*
X029247Y012175D01*
X028631Y011995D02*
X028391Y011995D01*
X028391Y012355D01*
X028631Y012355D01*
X028511Y012175D02*
X028391Y012175D01*
X028263Y011995D02*
X028022Y011995D01*
X028022Y012355D01*
X021668Y012295D02*
X021607Y012355D01*
X021487Y012355D01*
X021427Y012295D01*
X021299Y012295D02*
X021239Y012355D01*
X021059Y012355D01*
X021059Y011995D01*
X021239Y011995D01*
X021299Y012055D01*
X021299Y012295D01*
X021427Y011995D02*
X021668Y012235D01*
X021668Y012295D01*
X021668Y011995D02*
X021427Y011995D01*
X020931Y011995D02*
X020691Y011995D01*
X020691Y012355D01*
X020931Y012355D01*
X020811Y012175D02*
X020691Y012175D01*
X020563Y011995D02*
X020322Y011995D01*
X020322Y012355D01*
X015268Y011995D02*
X015027Y011995D01*
X015147Y011995D02*
X015147Y012355D01*
X015027Y012235D01*
X014899Y012295D02*
X014839Y012355D01*
X014659Y012355D01*
X014659Y011995D01*
X014839Y011995D01*
X014899Y012055D01*
X014899Y012295D01*
X014531Y012355D02*
X014291Y012355D01*
X014291Y011995D01*
X014531Y011995D01*
X014411Y012175D02*
X014291Y012175D01*
X014163Y011995D02*
X013922Y011995D01*
X013922Y012355D01*
X012552Y014897D02*
X012192Y014897D01*
X012192Y015077D01*
X012252Y015137D01*
X012372Y015137D01*
X012432Y015077D01*
X012432Y014897D01*
X012552Y015265D02*
X012192Y015265D01*
X012192Y015505D02*
X012552Y015505D01*
X012432Y015385D01*
X012552Y015265D01*
X012552Y015633D02*
X012192Y015633D01*
X012192Y015814D01*
X012252Y015874D01*
X012372Y015874D01*
X012432Y015814D01*
X012432Y015633D01*
X012432Y015754D02*
X012552Y015874D01*
X012612Y016002D02*
X012612Y016242D01*
X012492Y016370D02*
X012552Y016430D01*
X012552Y016550D01*
X012492Y016610D01*
X012252Y016610D01*
X012192Y016550D01*
X012192Y016430D01*
X012252Y016370D01*
X012492Y016370D01*
X012492Y016738D02*
X012192Y016738D01*
X012192Y016979D02*
X012492Y016979D01*
X012552Y016919D01*
X012552Y016798D01*
X012492Y016738D01*
X012192Y017107D02*
X012192Y017347D01*
X012192Y017227D02*
X012552Y017227D01*
X012772Y006805D02*
X012926Y006805D01*
X012849Y006805D02*
X012849Y006345D01*
X012772Y006345D02*
X012926Y006345D01*
X013079Y006345D02*
X013079Y006652D01*
X013309Y006652D01*
X013386Y006575D01*
X013386Y006345D01*
X013540Y006345D02*
X013770Y006345D01*
X013847Y006422D01*
X013847Y006575D01*
X013770Y006652D01*
X013540Y006652D01*
X013540Y006192D01*
X014000Y006422D02*
X014077Y006345D01*
X014307Y006345D01*
X014307Y006652D01*
X014460Y006652D02*
X014614Y006652D01*
X014537Y006729D02*
X014537Y006422D01*
X014614Y006345D01*
X015228Y006422D02*
X015228Y006729D01*
X015305Y006805D01*
X015458Y006805D01*
X015535Y006729D01*
X015688Y006805D02*
X015688Y006345D01*
X015535Y006422D02*
X015458Y006345D01*
X015305Y006345D01*
X015228Y006422D01*
X015688Y006575D02*
X015765Y006652D01*
X015918Y006652D01*
X015995Y006575D01*
X015995Y006345D01*
X016149Y006345D02*
X016456Y006345D01*
X016302Y006345D02*
X016302Y006805D01*
X016149Y006652D01*
X014000Y006652D02*
X014000Y006422D01*
X019172Y006345D02*
X019326Y006345D01*
X019249Y006345D02*
X019249Y006805D01*
X019172Y006805D02*
X019326Y006805D01*
X019479Y006652D02*
X019709Y006652D01*
X019786Y006575D01*
X019786Y006345D01*
X019940Y006345D02*
X020170Y006345D01*
X020247Y006422D01*
X020247Y006575D01*
X020170Y006652D01*
X019940Y006652D01*
X019940Y006192D01*
X019479Y006345D02*
X019479Y006652D01*
X020400Y006652D02*
X020400Y006422D01*
X020477Y006345D01*
X020707Y006345D01*
X020707Y006652D01*
X020860Y006652D02*
X021014Y006652D01*
X020937Y006729D02*
X020937Y006422D01*
X021014Y006345D01*
X021628Y006422D02*
X021628Y006729D01*
X021705Y006805D01*
X021858Y006805D01*
X021935Y006729D01*
X022088Y006805D02*
X022088Y006345D01*
X021935Y006422D02*
X021858Y006345D01*
X021705Y006345D01*
X021628Y006422D01*
X022088Y006575D02*
X022165Y006652D01*
X022318Y006652D01*
X022395Y006575D01*
X022395Y006345D01*
X022549Y006345D02*
X022856Y006652D01*
X022856Y006729D01*
X022779Y006805D01*
X022625Y006805D01*
X022549Y006729D01*
X022549Y006345D02*
X022856Y006345D01*
X026672Y006422D02*
X026749Y006345D01*
X026903Y006345D01*
X026979Y006422D01*
X026979Y006729D01*
X026903Y006805D01*
X026749Y006805D01*
X026672Y006729D01*
X026672Y006422D01*
X027133Y006422D02*
X027209Y006345D01*
X027440Y006345D01*
X027440Y006652D01*
X027593Y006652D02*
X027747Y006652D01*
X027670Y006729D02*
X027670Y006422D01*
X027747Y006345D01*
X027900Y006345D02*
X028130Y006345D01*
X028207Y006422D01*
X028207Y006575D01*
X028130Y006652D01*
X027900Y006652D01*
X027900Y006192D01*
X028360Y006422D02*
X028437Y006345D01*
X028667Y006345D01*
X028667Y006652D01*
X028821Y006652D02*
X028974Y006652D01*
X028898Y006729D02*
X028898Y006422D01*
X028974Y006345D01*
X028360Y006422D02*
X028360Y006652D01*
X029588Y006729D02*
X029588Y006422D01*
X029665Y006345D01*
X029818Y006345D01*
X029895Y006422D01*
X030049Y006345D02*
X030049Y006805D01*
X030125Y006652D02*
X030279Y006652D01*
X030356Y006575D01*
X030356Y006345D01*
X030509Y006345D02*
X030816Y006345D01*
X030662Y006345D02*
X030662Y006805D01*
X030509Y006652D01*
X030125Y006652D02*
X030049Y006575D01*
X029895Y006729D02*
X029818Y006805D01*
X029665Y006805D01*
X029588Y006729D01*
X027133Y006652D02*
X027133Y006422D01*
X033072Y006422D02*
X033149Y006345D01*
X033303Y006345D01*
X033379Y006422D01*
X033379Y006729D01*
X033303Y006805D01*
X033149Y006805D01*
X033072Y006729D01*
X033072Y006422D01*
X033533Y006422D02*
X033609Y006345D01*
X033840Y006345D01*
X033840Y006652D01*
X033993Y006652D02*
X034147Y006652D01*
X034070Y006729D02*
X034070Y006422D01*
X034147Y006345D01*
X034300Y006345D02*
X034530Y006345D01*
X034607Y006422D01*
X034607Y006575D01*
X034530Y006652D01*
X034300Y006652D01*
X034300Y006192D01*
X034760Y006422D02*
X034837Y006345D01*
X035067Y006345D01*
X035067Y006652D01*
X035221Y006652D02*
X035374Y006652D01*
X035298Y006729D02*
X035298Y006422D01*
X035374Y006345D01*
X035988Y006422D02*
X035988Y006729D01*
X036065Y006805D01*
X036218Y006805D01*
X036295Y006729D01*
X036449Y006805D02*
X036449Y006345D01*
X036295Y006422D02*
X036218Y006345D01*
X036065Y006345D01*
X035988Y006422D01*
X036449Y006575D02*
X036525Y006652D01*
X036679Y006652D01*
X036756Y006575D01*
X036756Y006345D01*
X036909Y006345D02*
X037216Y006652D01*
X037216Y006729D01*
X037139Y006805D01*
X036986Y006805D01*
X036909Y006729D01*
X036909Y006345D02*
X037216Y006345D01*
X039272Y006422D02*
X039349Y006345D01*
X039503Y006345D01*
X039579Y006422D01*
X039579Y006729D01*
X039503Y006805D01*
X039349Y006805D01*
X039272Y006729D01*
X039272Y006422D01*
X039733Y006422D02*
X039809Y006345D01*
X040040Y006345D01*
X040040Y006652D01*
X040193Y006652D02*
X040347Y006652D01*
X040270Y006729D02*
X040270Y006422D01*
X040347Y006345D01*
X040500Y006345D02*
X040730Y006345D01*
X040807Y006422D01*
X040807Y006575D01*
X040730Y006652D01*
X040500Y006652D01*
X040500Y006192D01*
X040960Y006422D02*
X041037Y006345D01*
X041267Y006345D01*
X041267Y006652D01*
X041421Y006652D02*
X041574Y006652D01*
X041498Y006729D02*
X041498Y006422D01*
X041574Y006345D01*
X042188Y006422D02*
X042188Y006729D01*
X042265Y006805D01*
X042418Y006805D01*
X042495Y006729D01*
X042649Y006805D02*
X042649Y006345D01*
X042495Y006422D02*
X042418Y006345D01*
X042265Y006345D01*
X042188Y006422D01*
X042649Y006575D02*
X042725Y006652D01*
X042879Y006652D01*
X042956Y006575D01*
X042956Y006345D01*
X043109Y006422D02*
X043186Y006345D01*
X043339Y006345D01*
X043416Y006422D01*
X043416Y006498D01*
X043339Y006575D01*
X043262Y006575D01*
X043339Y006575D02*
X043416Y006652D01*
X043416Y006729D01*
X043339Y006805D01*
X043186Y006805D01*
X043109Y006729D01*
X045572Y006729D02*
X045572Y006422D01*
X045649Y006345D01*
X045803Y006345D01*
X045879Y006422D01*
X045879Y006729D01*
X045803Y006805D01*
X045649Y006805D01*
X045572Y006729D01*
X046033Y006652D02*
X046033Y006422D01*
X046109Y006345D01*
X046340Y006345D01*
X046340Y006652D01*
X046493Y006652D02*
X046647Y006652D01*
X046570Y006729D02*
X046570Y006422D01*
X046647Y006345D01*
X046800Y006345D02*
X047030Y006345D01*
X047107Y006422D01*
X047107Y006575D01*
X047030Y006652D01*
X046800Y006652D01*
X046800Y006192D01*
X047260Y006422D02*
X047337Y006345D01*
X047567Y006345D01*
X047567Y006652D01*
X047721Y006652D02*
X047874Y006652D01*
X047798Y006729D02*
X047798Y006422D01*
X047874Y006345D01*
X047260Y006422D02*
X047260Y006652D01*
X048488Y006729D02*
X048488Y006422D01*
X048565Y006345D01*
X048718Y006345D01*
X048795Y006422D01*
X048949Y006345D02*
X048949Y006805D01*
X049025Y006652D02*
X049179Y006652D01*
X049256Y006575D01*
X049256Y006345D01*
X049409Y006575D02*
X049716Y006575D01*
X049639Y006345D02*
X049639Y006805D01*
X049409Y006575D01*
X049025Y006652D02*
X048949Y006575D01*
X048795Y006729D02*
X048718Y006805D01*
X048565Y006805D01*
X048488Y006729D01*
X040960Y006652D02*
X040960Y006422D01*
X039733Y006422D02*
X039733Y006652D01*
X034760Y006652D02*
X034760Y006422D01*
X033533Y006422D02*
X033533Y006652D01*
X040722Y011995D02*
X040963Y011995D01*
X041091Y011995D02*
X041091Y012355D01*
X041331Y012355D01*
X041459Y012355D02*
X041639Y012355D01*
X041699Y012295D01*
X041699Y012055D01*
X041639Y011995D01*
X041459Y011995D01*
X041459Y012355D01*
X041211Y012175D02*
X041091Y012175D01*
X041091Y011995D02*
X041331Y011995D01*
X041827Y012055D02*
X041887Y011995D01*
X042007Y011995D01*
X042068Y012055D01*
X042068Y012175D01*
X042007Y012235D01*
X041947Y012235D01*
X041827Y012175D01*
X041827Y012355D01*
X042068Y012355D01*
X040722Y012355D02*
X040722Y011995D01*
X047022Y011995D02*
X047263Y011995D01*
X047391Y011995D02*
X047631Y011995D01*
X047759Y011995D02*
X047759Y012355D01*
X047939Y012355D01*
X047999Y012295D01*
X047999Y012055D01*
X047939Y011995D01*
X047759Y011995D01*
X047511Y012175D02*
X047391Y012175D01*
X047391Y012355D02*
X047391Y011995D01*
X047391Y012355D02*
X047631Y012355D01*
X048127Y012175D02*
X048307Y012175D01*
X048368Y012115D01*
X048368Y012055D01*
X048307Y011995D01*
X048187Y011995D01*
X048127Y012055D01*
X048127Y012175D01*
X048247Y012295D01*
X048368Y012355D01*
X047022Y012355D02*
X047022Y011995D01*
X032832Y017645D02*
X032832Y017875D01*
X032756Y017952D01*
X032449Y017952D01*
X032372Y017875D01*
X032372Y017645D01*
X032832Y017645D01*
X032832Y018105D02*
X032525Y018105D01*
X032372Y018259D01*
X032525Y018412D01*
X032832Y018412D01*
X032756Y018566D02*
X032832Y018643D01*
X032832Y018796D01*
X032756Y018873D01*
X032756Y018566D02*
X032449Y018566D01*
X032372Y018643D01*
X032372Y018796D01*
X032449Y018873D01*
X032602Y018412D02*
X032602Y018105D01*
X032224Y000705D02*
X032224Y000345D01*
X032104Y000345D02*
X032344Y000345D01*
X032104Y000585D02*
X032224Y000705D01*
X031976Y000705D02*
X031976Y000345D01*
X031736Y000705D01*
X031736Y000345D01*
X031608Y000345D02*
X031488Y000465D01*
X031548Y000465D02*
X031367Y000465D01*
X031367Y000345D02*
X031367Y000705D01*
X031548Y000705D01*
X031608Y000645D01*
X031608Y000525D01*
X031548Y000465D01*
D14*
X024376Y000775D02*
X023642Y000775D01*
X023642Y001876D01*
X023271Y001509D02*
X023271Y000775D01*
X023271Y001325D02*
X022537Y001325D01*
X022537Y001509D02*
X022904Y001876D01*
X023271Y001509D01*
X022537Y001509D02*
X022537Y000775D01*
X022166Y001325D02*
X021982Y001142D01*
X021432Y001142D01*
X021432Y000775D02*
X021432Y001876D01*
X021982Y001876D01*
X022166Y001692D01*
X022166Y001325D01*
X019956Y000775D02*
X019222Y000775D01*
X019222Y001876D01*
X019956Y001876D01*
X019589Y001325D02*
X019222Y001325D01*
X018851Y001142D02*
X018851Y000958D01*
X018668Y000775D01*
X018301Y000775D01*
X018117Y000958D01*
X018301Y001325D02*
X018668Y001325D01*
X018851Y001142D01*
X018301Y001325D02*
X018117Y001509D01*
X018117Y001692D01*
X018301Y001876D01*
X018668Y001876D01*
X018851Y001692D01*
X017746Y000775D02*
X017012Y000775D01*
X017012Y001876D01*
X016641Y001876D02*
X016641Y000958D01*
X016458Y000775D01*
X016091Y000775D01*
X015907Y000958D01*
X015907Y001876D01*
X015536Y001692D02*
X015536Y001325D01*
X015353Y001142D01*
X014802Y001142D01*
X014802Y000775D02*
X014802Y001876D01*
X015353Y001876D01*
X015536Y001692D01*
X015172Y010415D02*
X015172Y010595D01*
X015172Y011235D02*
X015172Y011435D01*
X021572Y011435D02*
X021572Y011235D01*
X021572Y010595D02*
X021572Y010415D01*
X029272Y010415D02*
X029272Y010595D01*
X029272Y011235D02*
X029272Y011435D01*
X035672Y011435D02*
X035672Y011235D01*
X035672Y010595D02*
X035672Y010415D01*
X041972Y010415D02*
X041972Y010595D01*
X041972Y011235D02*
X041972Y011435D01*
X048372Y011435D02*
X048372Y011235D01*
X048372Y010595D02*
X048372Y010415D01*
D15*
X044025Y011669D02*
X043839Y011482D01*
X043839Y011435D01*
X043749Y011435D02*
X043656Y011528D01*
X043702Y011528D02*
X043562Y011528D01*
X043562Y011435D02*
X043562Y011715D01*
X043702Y011715D01*
X043749Y011669D01*
X043749Y011575D01*
X043702Y011528D01*
X043839Y011715D02*
X044025Y011715D01*
X044025Y011669D01*
X041632Y009115D02*
X041632Y008835D01*
X041539Y008835D02*
X041725Y008835D01*
X041539Y009022D02*
X041632Y009115D01*
X041449Y009069D02*
X041402Y009115D01*
X041309Y009115D01*
X041262Y009069D01*
X041262Y008882D01*
X041309Y008835D01*
X041402Y008835D01*
X041449Y008882D01*
X035373Y008975D02*
X035186Y008975D01*
X035326Y009115D01*
X035326Y008835D01*
X035097Y008882D02*
X035050Y008835D01*
X034957Y008835D01*
X034910Y008882D01*
X034910Y009069D01*
X034957Y009115D01*
X035050Y009115D01*
X035097Y009069D01*
X041362Y014829D02*
X041409Y014783D01*
X041596Y014783D01*
X041642Y014829D01*
X041642Y014923D01*
X041596Y014969D01*
X041642Y015059D02*
X041456Y015246D01*
X041409Y015246D01*
X041362Y015199D01*
X041362Y015105D01*
X041409Y015059D01*
X041409Y014969D02*
X041362Y014923D01*
X041362Y014829D01*
X041642Y015059D02*
X041642Y015246D01*
X037625Y017082D02*
X037579Y017035D01*
X037485Y017035D01*
X037439Y017082D01*
X037349Y017082D02*
X037302Y017035D01*
X037209Y017035D01*
X037162Y017082D01*
X037162Y017269D01*
X037209Y017315D01*
X037302Y017315D01*
X037349Y017269D01*
X037439Y017269D02*
X037485Y017315D01*
X037579Y017315D01*
X037625Y017269D01*
X037625Y017222D01*
X037579Y017175D01*
X037625Y017128D01*
X037625Y017082D01*
X037579Y017175D02*
X037532Y017175D01*
X026502Y021725D02*
X023252Y021725D01*
X023252Y025325D01*
X026502Y025325D01*
X026502Y021725D01*
X020242Y014751D02*
X019962Y014751D01*
X020102Y014611D01*
X020102Y014798D01*
X020102Y014522D02*
X020149Y014475D01*
X020149Y014335D01*
X020242Y014335D02*
X019962Y014335D01*
X019962Y014475D01*
X020009Y014522D01*
X020102Y014522D01*
X020149Y014428D02*
X020242Y014522D01*
X013242Y010198D02*
X013242Y010011D01*
X013242Y009922D02*
X013149Y009828D01*
X013149Y009875D02*
X013149Y009735D01*
X013242Y009735D02*
X012962Y009735D01*
X012962Y009875D01*
X013009Y009922D01*
X013102Y009922D01*
X013149Y009875D01*
X013056Y010011D02*
X012962Y010105D01*
X013242Y010105D01*
X024962Y006351D02*
X024962Y006258D01*
X025009Y006211D01*
X025009Y006122D02*
X025102Y006122D01*
X025149Y006075D01*
X025149Y005935D01*
X025242Y005935D02*
X024962Y005935D01*
X024962Y006075D01*
X025009Y006122D01*
X025149Y006028D02*
X025242Y006122D01*
X025196Y006211D02*
X025242Y006258D01*
X025242Y006351D01*
X025196Y006398D01*
X025149Y006398D01*
X025102Y006351D01*
X025102Y006305D01*
X025102Y006351D02*
X025056Y006398D01*
X025009Y006398D01*
X024962Y006351D01*
D16*
X025739Y008775D02*
X031487Y008775D01*
X031487Y002475D01*
X025739Y002475D01*
X025739Y008775D01*
X023787Y008775D02*
X023787Y002475D01*
X018039Y002475D01*
X018039Y008775D01*
X023787Y008775D01*
X017387Y008775D02*
X017387Y002475D01*
X011639Y002475D01*
X011639Y008775D01*
X017387Y008775D01*
X018039Y002475D02*
X018118Y002475D01*
X011718Y002475D02*
X011639Y002475D01*
X025739Y002475D02*
X025818Y002475D01*
X032139Y002475D02*
X037887Y002475D01*
X037887Y008775D01*
X032139Y008775D01*
X032139Y002475D01*
X032218Y002475D01*
X036118Y001587D02*
X036232Y001700D01*
X036232Y001360D01*
X036345Y001360D02*
X036118Y001360D01*
X038439Y002475D02*
X044187Y002475D01*
X044187Y008775D01*
X038439Y008775D01*
X038439Y002475D01*
X038518Y002475D01*
X044839Y002475D02*
X050587Y002475D01*
X050587Y008775D01*
X044839Y008775D01*
X044839Y002475D01*
X044918Y002475D01*
X038477Y010000D02*
X038027Y010000D01*
X038027Y009850D02*
X038027Y010150D01*
X038027Y010310D02*
X038477Y010310D01*
X038477Y010611D01*
X038402Y010771D02*
X038102Y011071D01*
X038402Y011071D01*
X038477Y010996D01*
X038477Y010846D01*
X038402Y010771D01*
X038102Y010771D01*
X038027Y010846D01*
X038027Y010996D01*
X038102Y011071D01*
X038102Y011231D02*
X038177Y011231D01*
X038252Y011306D01*
X038252Y011456D01*
X038327Y011531D01*
X038402Y011531D01*
X038477Y011456D01*
X038477Y011306D01*
X038402Y011231D01*
X038327Y011231D01*
X038252Y011306D01*
X038252Y011456D02*
X038177Y011531D01*
X038102Y011531D01*
X038027Y011456D01*
X038027Y011306D01*
X038102Y011231D01*
X038252Y011692D02*
X038252Y011992D01*
X038027Y011917D02*
X038252Y011692D01*
X038477Y011917D02*
X038027Y011917D01*
X042427Y014800D02*
X042728Y014800D01*
X042577Y014800D02*
X042577Y015250D01*
X042427Y015100D01*
X042888Y015175D02*
X042888Y014875D01*
X043188Y015175D01*
X043188Y014875D01*
X043113Y014800D01*
X042963Y014800D01*
X042888Y014875D01*
X042888Y015175D02*
X042963Y015250D01*
X043113Y015250D01*
X043188Y015175D01*
X043348Y015250D02*
X043348Y014800D01*
X043348Y014950D02*
X043648Y015250D01*
X043423Y015025D02*
X043648Y014800D01*
X043809Y014725D02*
X044109Y014725D01*
X044269Y014800D02*
X044269Y015250D01*
X044494Y015250D01*
X044569Y015175D01*
X044569Y015025D01*
X044494Y014950D01*
X044269Y014950D01*
X044419Y014950D02*
X044569Y014800D01*
X044729Y014800D02*
X045030Y014800D01*
X045190Y014875D02*
X045265Y014800D01*
X045415Y014800D01*
X045490Y014875D01*
X045490Y014950D01*
X045415Y015025D01*
X045265Y015025D01*
X045190Y015100D01*
X045190Y015175D01*
X045265Y015250D01*
X045415Y015250D01*
X045490Y015175D01*
X045030Y015250D02*
X044729Y015250D01*
X044729Y014800D01*
X044729Y015025D02*
X044879Y015025D01*
X045650Y014725D02*
X045950Y014725D01*
X046111Y014800D02*
X046111Y015100D01*
X046261Y015250D01*
X046411Y015100D01*
X046411Y014800D01*
X046571Y014800D02*
X046571Y015250D01*
X046796Y015250D01*
X046871Y015175D01*
X046871Y015025D01*
X046796Y014950D01*
X046571Y014950D01*
X046721Y014950D02*
X046871Y014800D01*
X047031Y014800D02*
X047031Y015250D01*
X047256Y015250D01*
X047332Y015175D01*
X047332Y015025D01*
X047256Y014950D01*
X047031Y014950D01*
X047181Y014950D02*
X047332Y014800D01*
X047492Y014800D02*
X047492Y015100D01*
X047642Y015250D01*
X047792Y015100D01*
X047792Y014800D01*
X047792Y015025D02*
X047492Y015025D01*
X047952Y015175D02*
X047952Y015250D01*
X047952Y015175D02*
X048102Y015025D01*
X048102Y014800D01*
X048102Y015025D02*
X048252Y015175D01*
X048252Y015250D01*
X048873Y015175D02*
X048873Y015100D01*
X048948Y015025D01*
X049098Y015025D01*
X049173Y014950D01*
X049173Y014875D01*
X049098Y014800D01*
X048948Y014800D01*
X048873Y014875D01*
X048873Y014950D01*
X048948Y015025D01*
X049098Y015025D02*
X049173Y015100D01*
X049173Y015175D01*
X049098Y015250D01*
X048948Y015250D01*
X048873Y015175D01*
X049333Y015250D02*
X049634Y014800D01*
X049333Y014800D02*
X049634Y015250D01*
X048713Y014725D02*
X048412Y014725D01*
X046411Y015025D02*
X046111Y015025D01*
X032877Y015094D02*
X032802Y015019D01*
X032877Y015094D02*
X032877Y015244D01*
X032802Y015319D01*
X032652Y015319D01*
X032577Y015244D01*
X032577Y015169D01*
X032652Y015019D01*
X032427Y015019D01*
X032427Y015319D01*
X032502Y015479D02*
X032427Y015554D01*
X032427Y015704D01*
X032502Y015779D01*
X032802Y015479D01*
X032877Y015554D01*
X032877Y015704D01*
X032802Y015779D01*
X032502Y015779D01*
X032502Y015940D02*
X032427Y016015D01*
X032427Y016165D01*
X032502Y016240D01*
X032802Y015940D01*
X032877Y016015D01*
X032877Y016165D01*
X032802Y016240D01*
X032502Y016240D01*
X032502Y015940D02*
X032802Y015940D01*
X032802Y015479D02*
X032502Y015479D01*
X032427Y014859D02*
X032877Y014558D01*
X032877Y014398D02*
X032577Y014398D01*
X032427Y014248D01*
X032577Y014098D01*
X032877Y014098D01*
X032877Y013938D02*
X032427Y013938D01*
X032577Y013788D01*
X032427Y013638D01*
X032877Y013638D01*
X032652Y014098D02*
X032652Y014398D01*
X032427Y014558D02*
X032877Y014859D01*
X024337Y016588D02*
X024337Y016888D01*
X024337Y017048D02*
X024337Y017348D01*
X024337Y017508D02*
X023887Y017508D01*
X023887Y017734D01*
X023962Y017809D01*
X024112Y017809D01*
X024187Y017734D01*
X024187Y017508D01*
X024112Y017198D02*
X024112Y017048D01*
X023887Y017048D02*
X024337Y017048D01*
X024112Y016738D02*
X024112Y016588D01*
X023887Y016588D02*
X024337Y016588D01*
X023887Y016588D02*
X023887Y016888D01*
X023887Y017048D02*
X023887Y017348D01*
X023887Y017969D02*
X023887Y018194D01*
X023962Y018269D01*
X024112Y018269D01*
X024187Y018194D01*
X024187Y017969D01*
X024187Y018119D02*
X024337Y018269D01*
X024262Y018429D02*
X023962Y018429D01*
X023887Y018504D01*
X023887Y018654D01*
X023962Y018729D01*
X024262Y018729D01*
X024337Y018654D01*
X024337Y018504D01*
X024262Y018429D01*
X024337Y018890D02*
X023887Y018890D01*
X024037Y019040D01*
X023887Y019190D01*
X024337Y019190D01*
X024337Y017969D02*
X023887Y017969D01*
X023855Y020800D02*
X024155Y020800D01*
X024005Y020800D02*
X024005Y021250D01*
X023855Y021100D01*
X024315Y021175D02*
X024315Y020875D01*
X024615Y021175D01*
X024615Y020875D01*
X024540Y020800D01*
X024390Y020800D01*
X024315Y020875D01*
X024315Y021175D02*
X024390Y021250D01*
X024540Y021250D01*
X024615Y021175D01*
X024775Y021250D02*
X024775Y020950D01*
X024926Y020800D01*
X025076Y020950D01*
X025076Y021250D01*
X025236Y020725D02*
X025536Y020725D01*
X025696Y020800D02*
X025696Y021250D01*
X025921Y021250D01*
X025996Y021175D01*
X025996Y021025D01*
X025921Y020950D01*
X025696Y020950D01*
X025846Y020950D02*
X025996Y020800D01*
X026157Y020800D02*
X026457Y020800D01*
X026617Y020875D02*
X026692Y020800D01*
X026842Y020800D01*
X026917Y020875D01*
X026917Y021025D01*
X026767Y021025D01*
X026617Y021175D02*
X026617Y020875D01*
X026617Y021175D02*
X026692Y021250D01*
X026842Y021250D01*
X026917Y021175D01*
X026457Y021250D02*
X026157Y021250D01*
X026157Y020800D01*
X026157Y021025D02*
X026307Y021025D01*
X019332Y017025D02*
X019332Y016875D01*
X019256Y016800D01*
X019031Y016800D01*
X019031Y016650D02*
X019031Y017100D01*
X019256Y017100D01*
X019332Y017025D01*
X019181Y016800D02*
X019332Y016650D01*
X018871Y016650D02*
X018571Y016650D01*
X018571Y017100D01*
X018871Y017100D01*
X018721Y016875D02*
X018571Y016875D01*
X018411Y016650D02*
X018111Y016650D01*
X018111Y017100D01*
X017950Y017025D02*
X017950Y016875D01*
X017875Y016800D01*
X017650Y016800D01*
X017650Y016650D02*
X017650Y017100D01*
X017875Y017100D01*
X017950Y017025D01*
X017490Y017100D02*
X017490Y016725D01*
X017415Y016650D01*
X017265Y016650D01*
X017190Y016725D01*
X017190Y017100D01*
X017030Y017025D02*
X016955Y017100D01*
X016804Y017100D01*
X016729Y017025D01*
X016729Y016725D01*
X016804Y016650D01*
X016955Y016650D01*
X017030Y016725D01*
X017030Y017025D01*
X016569Y017025D02*
X016494Y017100D01*
X016344Y017100D01*
X016269Y017025D01*
X016269Y016725D01*
X016344Y016650D01*
X016494Y016650D01*
X016569Y016725D01*
X016109Y016725D02*
X016109Y017025D01*
X016034Y017100D01*
X015884Y017100D01*
X015809Y017025D01*
X015809Y016725D01*
X015884Y016650D01*
X016034Y016650D01*
X016109Y016725D01*
X015648Y017100D02*
X015348Y017100D01*
X015498Y017100D02*
X015498Y016650D01*
X015188Y016875D02*
X015113Y016800D01*
X014888Y016800D01*
X014888Y016650D02*
X014888Y017100D01*
X015113Y017100D01*
X015188Y017025D01*
X015188Y016875D01*
X014728Y016725D02*
X014728Y017025D01*
X014653Y017100D01*
X014502Y017100D01*
X014427Y017025D01*
X014427Y016725D01*
X014502Y016650D01*
X014653Y016650D01*
X014728Y016725D01*
D17*
X013852Y016775D02*
X013852Y016275D01*
X013602Y016025D01*
X013852Y015775D01*
X013852Y015275D01*
X013602Y015025D01*
X013102Y015025D01*
X012852Y015275D01*
X012852Y015775D01*
X013102Y016025D01*
X012852Y016275D01*
X012852Y016775D01*
X013102Y017025D01*
X013602Y017025D01*
X013852Y016775D01*
X019452Y015925D02*
X019452Y013925D01*
X019752Y013925D01*
X019752Y013825D01*
X019752Y013925D02*
X020052Y013925D01*
X020052Y015925D01*
X019752Y015925D01*
X019752Y016025D01*
X019752Y015925D02*
X019452Y015925D01*
X020552Y015925D02*
X020852Y015925D01*
X020852Y016025D01*
X020852Y015925D02*
X021152Y015925D01*
X021152Y013925D01*
X020852Y013925D01*
X020852Y013825D01*
X020852Y013925D02*
X020552Y013925D01*
X020552Y015925D01*
X027302Y017175D02*
X027552Y016925D01*
X028052Y016925D01*
X028302Y017175D01*
X028552Y016925D01*
X029052Y016925D01*
X029302Y017175D01*
X029302Y017675D01*
X029052Y017925D01*
X028552Y017925D01*
X028302Y017675D01*
X028052Y017925D01*
X027552Y017925D01*
X027302Y017675D01*
X027302Y017175D01*
X027552Y017925D02*
X027302Y018175D01*
X027302Y018675D01*
X027552Y018925D01*
X028052Y018925D01*
X028302Y018675D01*
X028552Y018925D01*
X029052Y018925D01*
X029302Y018675D01*
X029302Y018175D01*
X029052Y017925D01*
X028552Y017925D01*
X028302Y018175D01*
X028052Y017925D01*
X027552Y017925D01*
X027552Y018925D02*
X027302Y019175D01*
X027302Y019675D01*
X027552Y019925D01*
X027302Y020175D01*
X027302Y020675D01*
X027552Y020925D01*
X028052Y020925D01*
X028302Y020675D01*
X028552Y020925D01*
X029052Y020925D01*
X029302Y020675D01*
X029302Y020175D01*
X029052Y019925D01*
X028552Y019925D01*
X028302Y020175D01*
X028052Y019925D01*
X027552Y019925D01*
X028052Y019925D01*
X028302Y019675D01*
X028552Y019925D01*
X029052Y019925D01*
X029302Y019675D01*
X029302Y019175D01*
X029052Y018925D01*
X028552Y018925D01*
X028302Y019175D01*
X028052Y018925D01*
X027552Y018925D01*
X037452Y016875D02*
X037452Y016375D01*
X040602Y015125D02*
X041102Y015125D01*
X043852Y018425D02*
X043852Y021175D01*
X043052Y021175D01*
X043052Y022325D01*
X042302Y022325D01*
X042302Y025525D01*
X043052Y025525D01*
X043052Y027425D01*
X044152Y027425D01*
X044152Y028425D01*
X047952Y028425D01*
X047952Y027425D01*
X049052Y027425D01*
X049052Y025825D01*
X050452Y025825D01*
X050452Y022025D01*
X049052Y022025D01*
X049052Y021175D01*
X048252Y021175D01*
X048252Y018425D01*
X043852Y018425D01*
X045802Y023925D02*
X045804Y023956D01*
X045810Y023987D01*
X045820Y024017D01*
X045833Y024045D01*
X045850Y024072D01*
X045870Y024096D01*
X045893Y024118D01*
X045918Y024136D01*
X045946Y024151D01*
X045975Y024163D01*
X046005Y024171D01*
X046036Y024175D01*
X046068Y024175D01*
X046099Y024171D01*
X046129Y024163D01*
X046158Y024151D01*
X046186Y024136D01*
X046211Y024118D01*
X046234Y024096D01*
X046254Y024072D01*
X046271Y024045D01*
X046284Y024017D01*
X046294Y023987D01*
X046300Y023956D01*
X046302Y023925D01*
X046300Y023894D01*
X046294Y023863D01*
X046284Y023833D01*
X046271Y023805D01*
X046254Y023778D01*
X046234Y023754D01*
X046211Y023732D01*
X046186Y023714D01*
X046158Y023699D01*
X046129Y023687D01*
X046099Y023679D01*
X046068Y023675D01*
X046036Y023675D01*
X046005Y023679D01*
X045975Y023687D01*
X045946Y023699D01*
X045918Y023714D01*
X045893Y023732D01*
X045870Y023754D01*
X045850Y023778D01*
X045833Y023805D01*
X045820Y023833D01*
X045810Y023863D01*
X045804Y023894D01*
X045802Y023925D01*
X027752Y029775D02*
X027502Y029525D01*
X027002Y029525D01*
X026752Y029775D01*
X026502Y029525D01*
X026002Y029525D01*
X025752Y029775D01*
X025502Y029525D01*
X025002Y029525D01*
X024752Y029775D01*
X024502Y029525D01*
X024002Y029525D01*
X023752Y029775D01*
X023502Y029525D01*
X023002Y029525D01*
X022752Y029775D01*
X022502Y029525D01*
X022002Y029525D01*
X021752Y029775D01*
X021502Y029525D01*
X021002Y029525D01*
X020752Y029775D01*
X020502Y029525D01*
X020002Y029525D01*
X019752Y029775D01*
X019502Y029525D01*
X019002Y029525D01*
X018752Y029775D01*
X018502Y029525D01*
X018002Y029525D01*
X017752Y029775D01*
X017502Y029525D01*
X017002Y029525D01*
X016752Y029775D01*
X016502Y029525D01*
X016002Y029525D01*
X015752Y029775D01*
X015502Y029525D01*
X015002Y029525D01*
X014752Y029775D01*
X014502Y029525D01*
X014002Y029525D01*
X013752Y029775D01*
X013502Y029525D01*
X013002Y029525D01*
X012752Y029775D01*
X012502Y029525D01*
X012002Y029525D01*
X011752Y029775D01*
X011752Y030275D01*
X012002Y030525D01*
X012502Y030525D01*
X012752Y030275D01*
X013002Y030525D01*
X013502Y030525D01*
X013752Y030275D01*
X014002Y030525D01*
X014502Y030525D01*
X014752Y030275D01*
X015002Y030525D01*
X015502Y030525D01*
X015752Y030275D01*
X016002Y030525D01*
X016502Y030525D01*
X016752Y030275D01*
X017002Y030525D01*
X017502Y030525D01*
X017752Y030275D01*
X018002Y030525D01*
X018502Y030525D01*
X018752Y030275D01*
X019002Y030525D01*
X019502Y030525D01*
X019752Y030275D01*
X020002Y030525D01*
X020502Y030525D01*
X020752Y030275D01*
X021002Y030525D01*
X021502Y030525D01*
X021752Y030275D01*
X022002Y030525D01*
X022502Y030525D01*
X022752Y030275D01*
X023002Y030525D01*
X023502Y030525D01*
X023752Y030275D01*
X024002Y030525D01*
X024502Y030525D01*
X024752Y030275D01*
X025002Y030525D01*
X025502Y030525D01*
X025752Y030275D01*
X026002Y030525D01*
X026502Y030525D01*
X026752Y030275D01*
X027002Y030525D01*
X027502Y030525D01*
X027752Y030275D01*
X027752Y029775D01*
X027752Y030275D01*
X011752Y030275D02*
X011752Y029775D01*
X012452Y012025D02*
X012452Y011925D01*
X012752Y011925D01*
X012752Y009925D01*
X012452Y009925D01*
X012452Y009825D01*
X012452Y009925D02*
X012152Y009925D01*
X012152Y011925D01*
X012452Y011925D01*
X024552Y006325D02*
X024852Y006325D01*
X024852Y006425D01*
X024852Y006325D02*
X025152Y006325D01*
X025152Y004325D01*
X024852Y004325D01*
X024852Y004225D01*
X024852Y004325D02*
X024552Y004325D01*
X024552Y006325D01*
X030152Y009125D02*
X030152Y009425D01*
X030052Y009425D01*
X030152Y009425D02*
X030152Y009725D01*
X032152Y009725D01*
X032152Y009425D01*
X032252Y009425D01*
X032152Y009425D02*
X032152Y009125D01*
X030152Y009125D01*
X035152Y009275D02*
X035152Y009775D01*
X041452Y009775D02*
X041452Y009275D01*
X045152Y009625D02*
X045252Y009625D01*
X045252Y009925D01*
X047252Y009925D01*
X047252Y009625D01*
X047352Y009625D01*
X047252Y009625D02*
X047252Y009325D01*
X045252Y009325D01*
X045252Y009625D01*
X044252Y001825D02*
X042252Y001825D01*
X042252Y001525D01*
X042152Y001525D01*
X042252Y001525D02*
X042252Y001225D01*
X044252Y001225D01*
X044252Y001525D01*
X044352Y001525D01*
X044252Y001525D02*
X044252Y001825D01*
X040052Y001525D02*
X039952Y001525D01*
X039952Y001225D01*
X037952Y001225D01*
X037952Y001525D01*
X037852Y001525D01*
X037952Y001525D02*
X037952Y001825D01*
X039952Y001825D01*
X039952Y001525D01*
D18*
X027977Y022525D03*
X027977Y023525D03*
X027977Y024525D03*
D19*
X027302Y024525D03*
X027302Y023525D03*
X027302Y022525D03*
D20*
X027921Y010502D02*
X027999Y010547D01*
X027999Y010546D02*
X028027Y010502D01*
X028058Y010460D01*
X028091Y010420D01*
X028127Y010382D01*
X028166Y010347D01*
X028207Y010315D01*
X028251Y010285D01*
X028296Y010259D01*
X028343Y010236D01*
X028391Y010216D01*
X028441Y010200D01*
X028491Y010187D01*
X028543Y010178D01*
X028595Y010172D01*
X028647Y010170D01*
X028648Y010081D01*
X028647Y010080D01*
X028592Y010082D01*
X028538Y010088D01*
X028483Y010097D01*
X028430Y010110D01*
X028378Y010126D01*
X028326Y010145D01*
X028276Y010168D01*
X028228Y010194D01*
X028181Y010223D01*
X028137Y010255D01*
X028094Y010290D01*
X028054Y010328D01*
X028017Y010368D01*
X027982Y010410D01*
X027950Y010455D01*
X027921Y010501D01*
X027929Y010506D01*
X027957Y010460D01*
X027989Y010416D01*
X028024Y010374D01*
X028061Y010334D01*
X028100Y010297D01*
X028142Y010262D01*
X028186Y010231D01*
X028232Y010202D01*
X028280Y010176D01*
X028330Y010154D01*
X028380Y010134D01*
X028432Y010118D01*
X028485Y010106D01*
X028539Y010097D01*
X028593Y010091D01*
X028647Y010089D01*
X028647Y010098D01*
X028593Y010100D01*
X028540Y010106D01*
X028487Y010115D01*
X028435Y010127D01*
X028383Y010143D01*
X028333Y010162D01*
X028284Y010184D01*
X028237Y010210D01*
X028191Y010238D01*
X028148Y010270D01*
X028106Y010304D01*
X028067Y010340D01*
X028030Y010380D01*
X027996Y010421D01*
X027965Y010465D01*
X027936Y010510D01*
X027944Y010515D01*
X027974Y010467D01*
X028008Y010421D01*
X028044Y010378D01*
X028084Y010337D01*
X028126Y010299D01*
X028170Y010264D01*
X028217Y010232D01*
X028266Y010204D01*
X028317Y010179D01*
X028370Y010157D01*
X028423Y010140D01*
X028478Y010126D01*
X028534Y010116D01*
X028590Y010109D01*
X028647Y010107D01*
X028647Y010116D01*
X028591Y010118D01*
X028535Y010124D01*
X028480Y010134D01*
X028426Y010148D01*
X028373Y010166D01*
X028321Y010187D01*
X028270Y010212D01*
X028222Y010240D01*
X028176Y010271D01*
X028131Y010306D01*
X028090Y010343D01*
X028051Y010384D01*
X028015Y010426D01*
X027982Y010472D01*
X027952Y010519D01*
X027960Y010524D01*
X027989Y010477D01*
X028022Y010432D01*
X028058Y010390D01*
X028096Y010350D01*
X028137Y010313D01*
X028181Y010278D01*
X028227Y010247D01*
X028275Y010220D01*
X028324Y010195D01*
X028376Y010174D01*
X028428Y010157D01*
X028482Y010143D01*
X028537Y010133D01*
X028592Y010127D01*
X028647Y010125D01*
X028647Y010134D01*
X028592Y010136D01*
X028538Y010142D01*
X028484Y010152D01*
X028431Y010166D01*
X028379Y010183D01*
X028328Y010203D01*
X028279Y010228D01*
X028232Y010255D01*
X028186Y010286D01*
X028143Y010319D01*
X028102Y010356D01*
X028064Y010396D01*
X028029Y010438D01*
X027997Y010482D01*
X027968Y010528D01*
X027976Y010533D01*
X028004Y010487D01*
X028036Y010443D01*
X028071Y010402D01*
X028109Y010363D01*
X028149Y010326D01*
X028191Y010293D01*
X028236Y010263D01*
X028283Y010235D01*
X028332Y010212D01*
X028382Y010191D01*
X028433Y010174D01*
X028486Y010161D01*
X028539Y010151D01*
X028593Y010145D01*
X028647Y010143D01*
X028647Y010152D01*
X028594Y010154D01*
X028540Y010160D01*
X028488Y010170D01*
X028436Y010183D01*
X028385Y010200D01*
X028335Y010220D01*
X028287Y010243D01*
X028241Y010270D01*
X028197Y010300D01*
X028155Y010333D01*
X028115Y010369D01*
X028078Y010408D01*
X028043Y010449D01*
X028012Y010492D01*
X027983Y010537D01*
X027991Y010542D01*
X028019Y010497D01*
X028050Y010454D01*
X028084Y010414D01*
X028121Y010376D01*
X028160Y010340D01*
X028202Y010308D01*
X028246Y010278D01*
X028292Y010251D01*
X028339Y010228D01*
X028388Y010208D01*
X028438Y010191D01*
X028490Y010178D01*
X028542Y010169D01*
X028594Y010163D01*
X028647Y010161D01*
X028647Y011769D02*
X028647Y011679D01*
X028647Y011680D02*
X028593Y011678D01*
X028540Y011672D01*
X028487Y011662D01*
X028435Y011648D01*
X028384Y011631D01*
X028335Y011610D01*
X028287Y011586D01*
X028241Y011558D01*
X028197Y011527D01*
X028155Y011493D01*
X028116Y011457D01*
X028079Y011417D01*
X028046Y011375D01*
X028015Y011331D01*
X027988Y011285D01*
X027909Y011327D01*
X027937Y011376D01*
X027969Y011422D01*
X028004Y011467D01*
X028041Y011509D01*
X028082Y011549D01*
X028125Y011585D01*
X028170Y011619D01*
X028217Y011650D01*
X028267Y011677D01*
X028318Y011701D01*
X028370Y011722D01*
X028424Y011739D01*
X028479Y011752D01*
X028534Y011762D01*
X028591Y011768D01*
X028647Y011770D01*
X028647Y011761D01*
X028591Y011759D01*
X028536Y011753D01*
X028481Y011743D01*
X028426Y011730D01*
X028373Y011713D01*
X028321Y011693D01*
X028271Y011669D01*
X028222Y011642D01*
X028175Y011612D01*
X028130Y011578D01*
X028088Y011542D01*
X028048Y011503D01*
X028011Y011461D01*
X027976Y011417D01*
X027945Y011371D01*
X027917Y011323D01*
X027925Y011319D01*
X027953Y011366D01*
X027984Y011412D01*
X028018Y011455D01*
X028054Y011497D01*
X028094Y011535D01*
X028136Y011571D01*
X028180Y011604D01*
X028226Y011634D01*
X028275Y011661D01*
X028325Y011684D01*
X028376Y011705D01*
X028429Y011721D01*
X028482Y011734D01*
X028537Y011744D01*
X028592Y011750D01*
X028647Y011752D01*
X028647Y011743D01*
X028592Y011741D01*
X028538Y011735D01*
X028484Y011726D01*
X028431Y011713D01*
X028379Y011696D01*
X028328Y011676D01*
X028279Y011653D01*
X028231Y011626D01*
X028185Y011597D01*
X028141Y011564D01*
X028100Y011529D01*
X028061Y011490D01*
X028024Y011450D01*
X027991Y011407D01*
X027960Y011361D01*
X027933Y011314D01*
X027941Y011310D01*
X027968Y011357D01*
X027998Y011401D01*
X028031Y011444D01*
X028067Y011484D01*
X028106Y011522D01*
X028147Y011557D01*
X028190Y011589D01*
X028236Y011619D01*
X028283Y011645D01*
X028332Y011668D01*
X028382Y011688D01*
X028434Y011704D01*
X028486Y011717D01*
X028539Y011726D01*
X028593Y011732D01*
X028647Y011734D01*
X028647Y011725D01*
X028594Y011723D01*
X028541Y011717D01*
X028488Y011708D01*
X028436Y011695D01*
X028385Y011679D01*
X028335Y011660D01*
X028287Y011637D01*
X028240Y011611D01*
X028196Y011582D01*
X028153Y011550D01*
X028112Y011515D01*
X028074Y011478D01*
X028038Y011438D01*
X028005Y011396D01*
X027975Y011352D01*
X027948Y011306D01*
X027956Y011302D01*
X027983Y011347D01*
X028013Y011391D01*
X028045Y011432D01*
X028080Y011472D01*
X028118Y011509D01*
X028158Y011543D01*
X028201Y011575D01*
X028245Y011603D01*
X028291Y011629D01*
X028339Y011651D01*
X028388Y011671D01*
X028438Y011687D01*
X028490Y011699D01*
X028542Y011708D01*
X028594Y011714D01*
X028647Y011716D01*
X028647Y011707D01*
X028591Y011705D01*
X028536Y011698D01*
X028481Y011688D01*
X028427Y011674D01*
X028375Y011656D01*
X028323Y011635D01*
X028274Y011609D01*
X028226Y011581D01*
X028180Y011549D01*
X028137Y011514D01*
X028097Y011476D01*
X028059Y011435D01*
X028024Y011391D01*
X027993Y011345D01*
X027964Y011297D01*
X027972Y011293D01*
X028000Y011341D01*
X028031Y011386D01*
X028066Y011429D01*
X028103Y011469D01*
X028143Y011507D01*
X028186Y011542D01*
X028231Y011573D01*
X028278Y011602D01*
X028327Y011626D01*
X028378Y011648D01*
X028430Y011665D01*
X028483Y011679D01*
X028537Y011689D01*
X028592Y011696D01*
X028647Y011698D01*
X028647Y011689D01*
X028593Y011687D01*
X028539Y011681D01*
X028485Y011671D01*
X028433Y011657D01*
X028381Y011639D01*
X028331Y011618D01*
X028282Y011594D01*
X028236Y011566D01*
X028191Y011534D01*
X028149Y011500D01*
X028110Y011463D01*
X028073Y011423D01*
X028039Y011381D01*
X028008Y011336D01*
X027980Y011289D01*
X029297Y011469D02*
X029228Y011412D01*
X029229Y011412D02*
X029192Y011452D01*
X029153Y011490D01*
X029111Y011524D01*
X029067Y011556D01*
X029021Y011584D01*
X028972Y011609D01*
X028922Y011630D01*
X028871Y011648D01*
X028818Y011661D01*
X028765Y011671D01*
X028711Y011678D01*
X028657Y011680D01*
X028656Y011769D01*
X028657Y011770D01*
X028713Y011768D01*
X028769Y011762D01*
X028824Y011752D01*
X028879Y011739D01*
X028932Y011722D01*
X028985Y011702D01*
X029036Y011678D01*
X029085Y011651D01*
X029132Y011620D01*
X029177Y011587D01*
X029220Y011551D01*
X029260Y011512D01*
X029298Y011470D01*
X029291Y011464D01*
X029254Y011505D01*
X029214Y011544D01*
X029172Y011580D01*
X029127Y011613D01*
X029080Y011643D01*
X029032Y011670D01*
X028981Y011693D01*
X028929Y011714D01*
X028876Y011730D01*
X028822Y011743D01*
X028768Y011753D01*
X028713Y011759D01*
X028657Y011761D01*
X028657Y011752D01*
X028712Y011750D01*
X028767Y011744D01*
X028821Y011735D01*
X028874Y011722D01*
X028926Y011705D01*
X028978Y011685D01*
X029027Y011662D01*
X029076Y011635D01*
X029122Y011606D01*
X029166Y011573D01*
X029208Y011537D01*
X029247Y011499D01*
X029284Y011458D01*
X029277Y011453D01*
X029241Y011493D01*
X029202Y011531D01*
X029160Y011566D01*
X029117Y011598D01*
X029071Y011628D01*
X029023Y011654D01*
X028974Y011677D01*
X028924Y011697D01*
X028872Y011713D01*
X028819Y011726D01*
X028765Y011735D01*
X028711Y011741D01*
X028657Y011743D01*
X028657Y011734D01*
X028711Y011732D01*
X028764Y011726D01*
X028817Y011717D01*
X028869Y011704D01*
X028921Y011688D01*
X028971Y011669D01*
X029019Y011646D01*
X029066Y011620D01*
X029112Y011591D01*
X029155Y011559D01*
X029196Y011524D01*
X029234Y011487D01*
X029270Y011447D01*
X029263Y011441D01*
X029228Y011480D01*
X029190Y011517D01*
X029149Y011552D01*
X029106Y011583D01*
X029062Y011612D01*
X029015Y011638D01*
X028967Y011660D01*
X028918Y011680D01*
X028867Y011696D01*
X028815Y011708D01*
X028763Y011717D01*
X028710Y011723D01*
X028657Y011725D01*
X028657Y011716D01*
X028709Y011714D01*
X028762Y011708D01*
X028813Y011699D01*
X028864Y011687D01*
X028915Y011671D01*
X028964Y011652D01*
X029011Y011630D01*
X029057Y011604D01*
X029101Y011576D01*
X029143Y011545D01*
X029184Y011511D01*
X029221Y011474D01*
X029256Y011435D01*
X029250Y011429D01*
X029215Y011468D01*
X029177Y011504D01*
X029138Y011538D01*
X029096Y011569D01*
X029052Y011597D01*
X029007Y011622D01*
X028960Y011644D01*
X028912Y011663D01*
X028862Y011678D01*
X028812Y011691D01*
X028760Y011699D01*
X028709Y011705D01*
X028657Y011707D01*
X028657Y011698D01*
X028708Y011696D01*
X028759Y011691D01*
X028810Y011682D01*
X028860Y011670D01*
X028909Y011654D01*
X028956Y011636D01*
X029003Y011614D01*
X029048Y011589D01*
X029091Y011561D01*
X029132Y011531D01*
X029171Y011498D01*
X029208Y011462D01*
X029243Y011424D01*
X029236Y011418D01*
X029199Y011459D01*
X029159Y011497D01*
X029117Y011531D01*
X029072Y011563D01*
X029025Y011592D01*
X028976Y011617D01*
X028925Y011638D01*
X028874Y011656D01*
X028820Y011670D01*
X028766Y011680D01*
X028712Y011687D01*
X028657Y011689D01*
X028656Y010081D02*
X028656Y010171D01*
X028657Y010170D02*
X028711Y010172D01*
X028764Y010178D01*
X028817Y010188D01*
X028869Y010202D01*
X028920Y010219D01*
X028970Y010240D01*
X029018Y010264D01*
X029064Y010292D01*
X029108Y010323D01*
X029149Y010357D01*
X029189Y010394D01*
X029225Y010433D01*
X029293Y010376D01*
X029294Y010375D01*
X029256Y010334D01*
X029216Y010296D01*
X029173Y010260D01*
X029128Y010227D01*
X029081Y010197D01*
X029033Y010171D01*
X028982Y010147D01*
X028930Y010127D01*
X028877Y010111D01*
X028823Y010097D01*
X028768Y010088D01*
X028713Y010082D01*
X028657Y010080D01*
X028657Y010089D01*
X028712Y010091D01*
X028767Y010097D01*
X028821Y010106D01*
X028875Y010119D01*
X028927Y010136D01*
X028979Y010155D01*
X029029Y010179D01*
X029077Y010205D01*
X029123Y010235D01*
X029168Y010267D01*
X029210Y010302D01*
X029250Y010341D01*
X029287Y010381D01*
X029280Y010387D01*
X029243Y010347D01*
X029204Y010309D01*
X029162Y010274D01*
X029118Y010242D01*
X029072Y010213D01*
X029024Y010187D01*
X028975Y010164D01*
X028924Y010144D01*
X028872Y010128D01*
X028819Y010115D01*
X028766Y010106D01*
X028711Y010100D01*
X028657Y010098D01*
X028657Y010107D01*
X028711Y010109D01*
X028764Y010115D01*
X028817Y010124D01*
X028870Y010137D01*
X028921Y010153D01*
X028972Y010172D01*
X029020Y010195D01*
X029068Y010220D01*
X029113Y010249D01*
X029157Y010281D01*
X029198Y010316D01*
X029237Y010353D01*
X029273Y010393D01*
X029266Y010399D01*
X029230Y010359D01*
X029192Y010322D01*
X029151Y010288D01*
X029108Y010257D01*
X029063Y010228D01*
X029016Y010203D01*
X028968Y010180D01*
X028918Y010161D01*
X028867Y010145D01*
X028816Y010133D01*
X028763Y010124D01*
X028710Y010118D01*
X028657Y010116D01*
X028657Y010125D01*
X028710Y010127D01*
X028762Y010133D01*
X028814Y010142D01*
X028865Y010154D01*
X028915Y010170D01*
X028965Y010189D01*
X029012Y010211D01*
X029059Y010236D01*
X029103Y010264D01*
X029145Y010295D01*
X029186Y010329D01*
X029224Y010366D01*
X029259Y010404D01*
X029253Y010410D01*
X029217Y010372D01*
X029180Y010336D01*
X029140Y010302D01*
X029098Y010272D01*
X029054Y010244D01*
X029008Y010219D01*
X028961Y010197D01*
X028912Y010178D01*
X028863Y010163D01*
X028812Y010150D01*
X028761Y010142D01*
X028709Y010136D01*
X028657Y010134D01*
X028657Y010143D01*
X028713Y010145D01*
X028768Y010152D01*
X028823Y010162D01*
X028877Y010176D01*
X028930Y010194D01*
X028981Y010216D01*
X029031Y010241D01*
X029079Y010270D01*
X029124Y010302D01*
X029167Y010337D01*
X029208Y010375D01*
X029246Y010416D01*
X029239Y010422D01*
X029202Y010381D01*
X029161Y010344D01*
X029119Y010309D01*
X029074Y010277D01*
X029026Y010249D01*
X028977Y010224D01*
X028926Y010202D01*
X028874Y010185D01*
X028821Y010171D01*
X028767Y010161D01*
X028712Y010154D01*
X028657Y010152D01*
X028657Y010161D01*
X028711Y010163D01*
X028765Y010169D01*
X028819Y010179D01*
X028872Y010193D01*
X028923Y010211D01*
X028973Y010232D01*
X029022Y010257D01*
X029069Y010285D01*
X029113Y010316D01*
X029155Y010350D01*
X029195Y010388D01*
X029232Y010428D01*
X034321Y010502D02*
X034399Y010547D01*
X034399Y010546D02*
X034427Y010502D01*
X034458Y010460D01*
X034491Y010420D01*
X034527Y010382D01*
X034566Y010347D01*
X034607Y010315D01*
X034651Y010285D01*
X034696Y010259D01*
X034743Y010236D01*
X034791Y010216D01*
X034841Y010200D01*
X034891Y010187D01*
X034943Y010178D01*
X034995Y010172D01*
X035047Y010170D01*
X035048Y010081D01*
X035047Y010080D01*
X034992Y010082D01*
X034938Y010088D01*
X034883Y010097D01*
X034830Y010110D01*
X034778Y010126D01*
X034726Y010145D01*
X034676Y010168D01*
X034628Y010194D01*
X034581Y010223D01*
X034537Y010255D01*
X034494Y010290D01*
X034454Y010328D01*
X034417Y010368D01*
X034382Y010410D01*
X034350Y010455D01*
X034321Y010501D01*
X034329Y010506D01*
X034357Y010460D01*
X034389Y010416D01*
X034424Y010374D01*
X034461Y010334D01*
X034500Y010297D01*
X034542Y010262D01*
X034586Y010231D01*
X034632Y010202D01*
X034680Y010176D01*
X034730Y010154D01*
X034780Y010134D01*
X034832Y010118D01*
X034885Y010106D01*
X034939Y010097D01*
X034993Y010091D01*
X035047Y010089D01*
X035047Y010098D01*
X034993Y010100D01*
X034940Y010106D01*
X034887Y010115D01*
X034835Y010127D01*
X034783Y010143D01*
X034733Y010162D01*
X034684Y010184D01*
X034637Y010210D01*
X034591Y010238D01*
X034548Y010270D01*
X034506Y010304D01*
X034467Y010340D01*
X034430Y010380D01*
X034396Y010421D01*
X034365Y010465D01*
X034336Y010510D01*
X034344Y010515D01*
X034374Y010467D01*
X034408Y010421D01*
X034444Y010378D01*
X034484Y010337D01*
X034526Y010299D01*
X034570Y010264D01*
X034617Y010232D01*
X034666Y010204D01*
X034717Y010179D01*
X034770Y010157D01*
X034823Y010140D01*
X034878Y010126D01*
X034934Y010116D01*
X034990Y010109D01*
X035047Y010107D01*
X035047Y010116D01*
X034991Y010118D01*
X034935Y010124D01*
X034880Y010134D01*
X034826Y010148D01*
X034773Y010166D01*
X034721Y010187D01*
X034670Y010212D01*
X034622Y010240D01*
X034576Y010271D01*
X034531Y010306D01*
X034490Y010343D01*
X034451Y010384D01*
X034415Y010426D01*
X034382Y010472D01*
X034352Y010519D01*
X034360Y010524D01*
X034389Y010477D01*
X034422Y010432D01*
X034458Y010390D01*
X034496Y010350D01*
X034537Y010313D01*
X034581Y010278D01*
X034627Y010247D01*
X034675Y010220D01*
X034724Y010195D01*
X034776Y010174D01*
X034828Y010157D01*
X034882Y010143D01*
X034937Y010133D01*
X034992Y010127D01*
X035047Y010125D01*
X035047Y010134D01*
X034992Y010136D01*
X034938Y010142D01*
X034884Y010152D01*
X034831Y010166D01*
X034779Y010183D01*
X034728Y010203D01*
X034679Y010228D01*
X034632Y010255D01*
X034586Y010286D01*
X034543Y010319D01*
X034502Y010356D01*
X034464Y010396D01*
X034429Y010438D01*
X034397Y010482D01*
X034368Y010528D01*
X034376Y010533D01*
X034404Y010487D01*
X034436Y010443D01*
X034471Y010402D01*
X034509Y010363D01*
X034549Y010326D01*
X034591Y010293D01*
X034636Y010263D01*
X034683Y010235D01*
X034732Y010212D01*
X034782Y010191D01*
X034833Y010174D01*
X034886Y010161D01*
X034939Y010151D01*
X034993Y010145D01*
X035047Y010143D01*
X035047Y010152D01*
X034994Y010154D01*
X034940Y010160D01*
X034888Y010170D01*
X034836Y010183D01*
X034785Y010200D01*
X034735Y010220D01*
X034687Y010243D01*
X034641Y010270D01*
X034597Y010300D01*
X034555Y010333D01*
X034515Y010369D01*
X034478Y010408D01*
X034443Y010449D01*
X034412Y010492D01*
X034383Y010537D01*
X034391Y010542D01*
X034419Y010497D01*
X034450Y010454D01*
X034484Y010414D01*
X034521Y010376D01*
X034560Y010340D01*
X034602Y010308D01*
X034646Y010278D01*
X034692Y010251D01*
X034739Y010228D01*
X034788Y010208D01*
X034838Y010191D01*
X034890Y010178D01*
X034942Y010169D01*
X034994Y010163D01*
X035047Y010161D01*
X035047Y011769D02*
X035047Y011679D01*
X035047Y011680D02*
X034993Y011678D01*
X034940Y011672D01*
X034887Y011662D01*
X034835Y011648D01*
X034784Y011631D01*
X034735Y011610D01*
X034687Y011586D01*
X034641Y011558D01*
X034597Y011527D01*
X034555Y011493D01*
X034516Y011457D01*
X034479Y011417D01*
X034446Y011375D01*
X034415Y011331D01*
X034388Y011285D01*
X034309Y011327D01*
X034337Y011376D01*
X034369Y011422D01*
X034404Y011467D01*
X034441Y011509D01*
X034482Y011549D01*
X034525Y011585D01*
X034570Y011619D01*
X034617Y011650D01*
X034667Y011677D01*
X034718Y011701D01*
X034770Y011722D01*
X034824Y011739D01*
X034879Y011752D01*
X034934Y011762D01*
X034991Y011768D01*
X035047Y011770D01*
X035047Y011761D01*
X034991Y011759D01*
X034936Y011753D01*
X034881Y011743D01*
X034826Y011730D01*
X034773Y011713D01*
X034721Y011693D01*
X034671Y011669D01*
X034622Y011642D01*
X034575Y011612D01*
X034530Y011578D01*
X034488Y011542D01*
X034448Y011503D01*
X034411Y011461D01*
X034376Y011417D01*
X034345Y011371D01*
X034317Y011323D01*
X034325Y011319D01*
X034353Y011366D01*
X034384Y011412D01*
X034418Y011455D01*
X034454Y011497D01*
X034494Y011535D01*
X034536Y011571D01*
X034580Y011604D01*
X034626Y011634D01*
X034675Y011661D01*
X034725Y011684D01*
X034776Y011705D01*
X034829Y011721D01*
X034882Y011734D01*
X034937Y011744D01*
X034992Y011750D01*
X035047Y011752D01*
X035047Y011743D01*
X034992Y011741D01*
X034938Y011735D01*
X034884Y011726D01*
X034831Y011713D01*
X034779Y011696D01*
X034728Y011676D01*
X034679Y011653D01*
X034631Y011626D01*
X034585Y011597D01*
X034541Y011564D01*
X034500Y011529D01*
X034461Y011490D01*
X034424Y011450D01*
X034391Y011407D01*
X034360Y011361D01*
X034333Y011314D01*
X034341Y011310D01*
X034368Y011357D01*
X034398Y011401D01*
X034431Y011444D01*
X034467Y011484D01*
X034506Y011522D01*
X034547Y011557D01*
X034590Y011589D01*
X034636Y011619D01*
X034683Y011645D01*
X034732Y011668D01*
X034782Y011688D01*
X034834Y011704D01*
X034886Y011717D01*
X034939Y011726D01*
X034993Y011732D01*
X035047Y011734D01*
X035047Y011725D01*
X034994Y011723D01*
X034941Y011717D01*
X034888Y011708D01*
X034836Y011695D01*
X034785Y011679D01*
X034735Y011660D01*
X034687Y011637D01*
X034640Y011611D01*
X034596Y011582D01*
X034553Y011550D01*
X034512Y011515D01*
X034474Y011478D01*
X034438Y011438D01*
X034405Y011396D01*
X034375Y011352D01*
X034348Y011306D01*
X034356Y011302D01*
X034383Y011347D01*
X034413Y011391D01*
X034445Y011432D01*
X034480Y011472D01*
X034518Y011509D01*
X034558Y011543D01*
X034601Y011575D01*
X034645Y011603D01*
X034691Y011629D01*
X034739Y011651D01*
X034788Y011671D01*
X034838Y011687D01*
X034890Y011699D01*
X034942Y011708D01*
X034994Y011714D01*
X035047Y011716D01*
X035047Y011707D01*
X034991Y011705D01*
X034936Y011698D01*
X034881Y011688D01*
X034827Y011674D01*
X034775Y011656D01*
X034723Y011635D01*
X034674Y011609D01*
X034626Y011581D01*
X034580Y011549D01*
X034537Y011514D01*
X034497Y011476D01*
X034459Y011435D01*
X034424Y011391D01*
X034393Y011345D01*
X034364Y011297D01*
X034372Y011293D01*
X034400Y011341D01*
X034431Y011386D01*
X034466Y011429D01*
X034503Y011469D01*
X034543Y011507D01*
X034586Y011542D01*
X034631Y011573D01*
X034678Y011602D01*
X034727Y011626D01*
X034778Y011648D01*
X034830Y011665D01*
X034883Y011679D01*
X034937Y011689D01*
X034992Y011696D01*
X035047Y011698D01*
X035047Y011689D01*
X034993Y011687D01*
X034939Y011681D01*
X034885Y011671D01*
X034833Y011657D01*
X034781Y011639D01*
X034731Y011618D01*
X034682Y011594D01*
X034636Y011566D01*
X034591Y011534D01*
X034549Y011500D01*
X034510Y011463D01*
X034473Y011423D01*
X034439Y011381D01*
X034408Y011336D01*
X034380Y011289D01*
X035697Y011469D02*
X035628Y011412D01*
X035629Y011412D02*
X035592Y011452D01*
X035553Y011490D01*
X035511Y011524D01*
X035467Y011556D01*
X035421Y011584D01*
X035372Y011609D01*
X035322Y011630D01*
X035271Y011648D01*
X035218Y011661D01*
X035165Y011671D01*
X035111Y011678D01*
X035057Y011680D01*
X035056Y011769D01*
X035057Y011770D01*
X035113Y011768D01*
X035169Y011762D01*
X035224Y011752D01*
X035279Y011739D01*
X035332Y011722D01*
X035385Y011702D01*
X035436Y011678D01*
X035485Y011651D01*
X035532Y011620D01*
X035577Y011587D01*
X035620Y011551D01*
X035660Y011512D01*
X035698Y011470D01*
X035691Y011464D01*
X035654Y011505D01*
X035614Y011544D01*
X035572Y011580D01*
X035527Y011613D01*
X035480Y011643D01*
X035432Y011670D01*
X035381Y011693D01*
X035329Y011714D01*
X035276Y011730D01*
X035222Y011743D01*
X035168Y011753D01*
X035113Y011759D01*
X035057Y011761D01*
X035057Y011752D01*
X035112Y011750D01*
X035167Y011744D01*
X035221Y011735D01*
X035274Y011722D01*
X035326Y011705D01*
X035378Y011685D01*
X035427Y011662D01*
X035476Y011635D01*
X035522Y011606D01*
X035566Y011573D01*
X035608Y011537D01*
X035647Y011499D01*
X035684Y011458D01*
X035677Y011453D01*
X035641Y011493D01*
X035602Y011531D01*
X035560Y011566D01*
X035517Y011598D01*
X035471Y011628D01*
X035423Y011654D01*
X035374Y011677D01*
X035324Y011697D01*
X035272Y011713D01*
X035219Y011726D01*
X035165Y011735D01*
X035111Y011741D01*
X035057Y011743D01*
X035057Y011734D01*
X035111Y011732D01*
X035164Y011726D01*
X035217Y011717D01*
X035269Y011704D01*
X035321Y011688D01*
X035371Y011669D01*
X035419Y011646D01*
X035466Y011620D01*
X035512Y011591D01*
X035555Y011559D01*
X035596Y011524D01*
X035634Y011487D01*
X035670Y011447D01*
X035663Y011441D01*
X035628Y011480D01*
X035590Y011517D01*
X035549Y011552D01*
X035506Y011583D01*
X035462Y011612D01*
X035415Y011638D01*
X035367Y011660D01*
X035318Y011680D01*
X035267Y011696D01*
X035215Y011708D01*
X035163Y011717D01*
X035110Y011723D01*
X035057Y011725D01*
X035057Y011716D01*
X035109Y011714D01*
X035162Y011708D01*
X035213Y011699D01*
X035264Y011687D01*
X035315Y011671D01*
X035364Y011652D01*
X035411Y011630D01*
X035457Y011604D01*
X035501Y011576D01*
X035543Y011545D01*
X035584Y011511D01*
X035621Y011474D01*
X035656Y011435D01*
X035650Y011429D01*
X035615Y011468D01*
X035577Y011504D01*
X035538Y011538D01*
X035496Y011569D01*
X035452Y011597D01*
X035407Y011622D01*
X035360Y011644D01*
X035312Y011663D01*
X035262Y011678D01*
X035212Y011691D01*
X035160Y011699D01*
X035109Y011705D01*
X035057Y011707D01*
X035057Y011698D01*
X035108Y011696D01*
X035159Y011691D01*
X035210Y011682D01*
X035260Y011670D01*
X035309Y011654D01*
X035356Y011636D01*
X035403Y011614D01*
X035448Y011589D01*
X035491Y011561D01*
X035532Y011531D01*
X035571Y011498D01*
X035608Y011462D01*
X035643Y011424D01*
X035636Y011418D01*
X035599Y011459D01*
X035559Y011497D01*
X035517Y011531D01*
X035472Y011563D01*
X035425Y011592D01*
X035376Y011617D01*
X035325Y011638D01*
X035274Y011656D01*
X035220Y011670D01*
X035166Y011680D01*
X035112Y011687D01*
X035057Y011689D01*
X035056Y010081D02*
X035056Y010171D01*
X035057Y010170D02*
X035111Y010172D01*
X035164Y010178D01*
X035217Y010188D01*
X035269Y010202D01*
X035320Y010219D01*
X035370Y010240D01*
X035418Y010264D01*
X035464Y010292D01*
X035508Y010323D01*
X035549Y010357D01*
X035589Y010394D01*
X035625Y010433D01*
X035693Y010376D01*
X035694Y010375D01*
X035656Y010334D01*
X035616Y010296D01*
X035573Y010260D01*
X035528Y010227D01*
X035481Y010197D01*
X035433Y010171D01*
X035382Y010147D01*
X035330Y010127D01*
X035277Y010111D01*
X035223Y010097D01*
X035168Y010088D01*
X035113Y010082D01*
X035057Y010080D01*
X035057Y010089D01*
X035112Y010091D01*
X035167Y010097D01*
X035221Y010106D01*
X035275Y010119D01*
X035327Y010136D01*
X035379Y010155D01*
X035429Y010179D01*
X035477Y010205D01*
X035523Y010235D01*
X035568Y010267D01*
X035610Y010302D01*
X035650Y010341D01*
X035687Y010381D01*
X035680Y010387D01*
X035643Y010347D01*
X035604Y010309D01*
X035562Y010274D01*
X035518Y010242D01*
X035472Y010213D01*
X035424Y010187D01*
X035375Y010164D01*
X035324Y010144D01*
X035272Y010128D01*
X035219Y010115D01*
X035166Y010106D01*
X035111Y010100D01*
X035057Y010098D01*
X035057Y010107D01*
X035111Y010109D01*
X035164Y010115D01*
X035217Y010124D01*
X035270Y010137D01*
X035321Y010153D01*
X035372Y010172D01*
X035420Y010195D01*
X035468Y010220D01*
X035513Y010249D01*
X035557Y010281D01*
X035598Y010316D01*
X035637Y010353D01*
X035673Y010393D01*
X035666Y010399D01*
X035630Y010359D01*
X035592Y010322D01*
X035551Y010288D01*
X035508Y010257D01*
X035463Y010228D01*
X035416Y010203D01*
X035368Y010180D01*
X035318Y010161D01*
X035267Y010145D01*
X035216Y010133D01*
X035163Y010124D01*
X035110Y010118D01*
X035057Y010116D01*
X035057Y010125D01*
X035110Y010127D01*
X035162Y010133D01*
X035214Y010142D01*
X035265Y010154D01*
X035315Y010170D01*
X035365Y010189D01*
X035412Y010211D01*
X035459Y010236D01*
X035503Y010264D01*
X035545Y010295D01*
X035586Y010329D01*
X035624Y010366D01*
X035659Y010404D01*
X035653Y010410D01*
X035617Y010372D01*
X035580Y010336D01*
X035540Y010302D01*
X035498Y010272D01*
X035454Y010244D01*
X035408Y010219D01*
X035361Y010197D01*
X035312Y010178D01*
X035263Y010163D01*
X035212Y010150D01*
X035161Y010142D01*
X035109Y010136D01*
X035057Y010134D01*
X035057Y010143D01*
X035113Y010145D01*
X035168Y010152D01*
X035223Y010162D01*
X035277Y010176D01*
X035330Y010194D01*
X035381Y010216D01*
X035431Y010241D01*
X035479Y010270D01*
X035524Y010302D01*
X035567Y010337D01*
X035608Y010375D01*
X035646Y010416D01*
X035639Y010422D01*
X035602Y010381D01*
X035561Y010344D01*
X035519Y010309D01*
X035474Y010277D01*
X035426Y010249D01*
X035377Y010224D01*
X035326Y010202D01*
X035274Y010185D01*
X035221Y010171D01*
X035167Y010161D01*
X035112Y010154D01*
X035057Y010152D01*
X035057Y010161D01*
X035111Y010163D01*
X035165Y010169D01*
X035219Y010179D01*
X035272Y010193D01*
X035323Y010211D01*
X035373Y010232D01*
X035422Y010257D01*
X035469Y010285D01*
X035513Y010316D01*
X035555Y010350D01*
X035595Y010388D01*
X035632Y010428D01*
X040621Y010502D02*
X040699Y010547D01*
X040699Y010546D02*
X040727Y010502D01*
X040758Y010460D01*
X040791Y010420D01*
X040827Y010382D01*
X040866Y010347D01*
X040907Y010315D01*
X040951Y010285D01*
X040996Y010259D01*
X041043Y010236D01*
X041091Y010216D01*
X041141Y010200D01*
X041191Y010187D01*
X041243Y010178D01*
X041295Y010172D01*
X041347Y010170D01*
X041348Y010081D01*
X041347Y010080D01*
X041292Y010082D01*
X041238Y010088D01*
X041183Y010097D01*
X041130Y010110D01*
X041078Y010126D01*
X041026Y010145D01*
X040976Y010168D01*
X040928Y010194D01*
X040881Y010223D01*
X040837Y010255D01*
X040794Y010290D01*
X040754Y010328D01*
X040717Y010368D01*
X040682Y010410D01*
X040650Y010455D01*
X040621Y010501D01*
X040629Y010506D01*
X040657Y010460D01*
X040689Y010416D01*
X040724Y010374D01*
X040761Y010334D01*
X040800Y010297D01*
X040842Y010262D01*
X040886Y010231D01*
X040932Y010202D01*
X040980Y010176D01*
X041030Y010154D01*
X041080Y010134D01*
X041132Y010118D01*
X041185Y010106D01*
X041239Y010097D01*
X041293Y010091D01*
X041347Y010089D01*
X041347Y010098D01*
X041293Y010100D01*
X041240Y010106D01*
X041187Y010115D01*
X041135Y010127D01*
X041083Y010143D01*
X041033Y010162D01*
X040984Y010184D01*
X040937Y010210D01*
X040891Y010238D01*
X040848Y010270D01*
X040806Y010304D01*
X040767Y010340D01*
X040730Y010380D01*
X040696Y010421D01*
X040665Y010465D01*
X040636Y010510D01*
X040644Y010515D01*
X040674Y010467D01*
X040708Y010421D01*
X040744Y010378D01*
X040784Y010337D01*
X040826Y010299D01*
X040870Y010264D01*
X040917Y010232D01*
X040966Y010204D01*
X041017Y010179D01*
X041070Y010157D01*
X041123Y010140D01*
X041178Y010126D01*
X041234Y010116D01*
X041290Y010109D01*
X041347Y010107D01*
X041347Y010116D01*
X041291Y010118D01*
X041235Y010124D01*
X041180Y010134D01*
X041126Y010148D01*
X041073Y010166D01*
X041021Y010187D01*
X040970Y010212D01*
X040922Y010240D01*
X040876Y010271D01*
X040831Y010306D01*
X040790Y010343D01*
X040751Y010384D01*
X040715Y010426D01*
X040682Y010472D01*
X040652Y010519D01*
X040660Y010524D01*
X040689Y010477D01*
X040722Y010432D01*
X040758Y010390D01*
X040796Y010350D01*
X040837Y010313D01*
X040881Y010278D01*
X040927Y010247D01*
X040975Y010220D01*
X041024Y010195D01*
X041076Y010174D01*
X041128Y010157D01*
X041182Y010143D01*
X041237Y010133D01*
X041292Y010127D01*
X041347Y010125D01*
X041347Y010134D01*
X041292Y010136D01*
X041238Y010142D01*
X041184Y010152D01*
X041131Y010166D01*
X041079Y010183D01*
X041028Y010203D01*
X040979Y010228D01*
X040932Y010255D01*
X040886Y010286D01*
X040843Y010319D01*
X040802Y010356D01*
X040764Y010396D01*
X040729Y010438D01*
X040697Y010482D01*
X040668Y010528D01*
X040676Y010533D01*
X040704Y010487D01*
X040736Y010443D01*
X040771Y010402D01*
X040809Y010363D01*
X040849Y010326D01*
X040891Y010293D01*
X040936Y010263D01*
X040983Y010235D01*
X041032Y010212D01*
X041082Y010191D01*
X041133Y010174D01*
X041186Y010161D01*
X041239Y010151D01*
X041293Y010145D01*
X041347Y010143D01*
X041347Y010152D01*
X041294Y010154D01*
X041240Y010160D01*
X041188Y010170D01*
X041136Y010183D01*
X041085Y010200D01*
X041035Y010220D01*
X040987Y010243D01*
X040941Y010270D01*
X040897Y010300D01*
X040855Y010333D01*
X040815Y010369D01*
X040778Y010408D01*
X040743Y010449D01*
X040712Y010492D01*
X040683Y010537D01*
X040691Y010542D01*
X040719Y010497D01*
X040750Y010454D01*
X040784Y010414D01*
X040821Y010376D01*
X040860Y010340D01*
X040902Y010308D01*
X040946Y010278D01*
X040992Y010251D01*
X041039Y010228D01*
X041088Y010208D01*
X041138Y010191D01*
X041190Y010178D01*
X041242Y010169D01*
X041294Y010163D01*
X041347Y010161D01*
X041347Y011769D02*
X041347Y011679D01*
X041347Y011680D02*
X041293Y011678D01*
X041240Y011672D01*
X041187Y011662D01*
X041135Y011648D01*
X041084Y011631D01*
X041035Y011610D01*
X040987Y011586D01*
X040941Y011558D01*
X040897Y011527D01*
X040855Y011493D01*
X040816Y011457D01*
X040779Y011417D01*
X040746Y011375D01*
X040715Y011331D01*
X040688Y011285D01*
X040609Y011327D01*
X040637Y011376D01*
X040669Y011422D01*
X040704Y011467D01*
X040741Y011509D01*
X040782Y011549D01*
X040825Y011585D01*
X040870Y011619D01*
X040917Y011650D01*
X040967Y011677D01*
X041018Y011701D01*
X041070Y011722D01*
X041124Y011739D01*
X041179Y011752D01*
X041234Y011762D01*
X041291Y011768D01*
X041347Y011770D01*
X041347Y011761D01*
X041291Y011759D01*
X041236Y011753D01*
X041181Y011743D01*
X041126Y011730D01*
X041073Y011713D01*
X041021Y011693D01*
X040971Y011669D01*
X040922Y011642D01*
X040875Y011612D01*
X040830Y011578D01*
X040788Y011542D01*
X040748Y011503D01*
X040711Y011461D01*
X040676Y011417D01*
X040645Y011371D01*
X040617Y011323D01*
X040625Y011319D01*
X040653Y011366D01*
X040684Y011412D01*
X040718Y011455D01*
X040754Y011497D01*
X040794Y011535D01*
X040836Y011571D01*
X040880Y011604D01*
X040926Y011634D01*
X040975Y011661D01*
X041025Y011684D01*
X041076Y011705D01*
X041129Y011721D01*
X041182Y011734D01*
X041237Y011744D01*
X041292Y011750D01*
X041347Y011752D01*
X041347Y011743D01*
X041292Y011741D01*
X041238Y011735D01*
X041184Y011726D01*
X041131Y011713D01*
X041079Y011696D01*
X041028Y011676D01*
X040979Y011653D01*
X040931Y011626D01*
X040885Y011597D01*
X040841Y011564D01*
X040800Y011529D01*
X040761Y011490D01*
X040724Y011450D01*
X040691Y011407D01*
X040660Y011361D01*
X040633Y011314D01*
X040641Y011310D01*
X040668Y011357D01*
X040698Y011401D01*
X040731Y011444D01*
X040767Y011484D01*
X040806Y011522D01*
X040847Y011557D01*
X040890Y011589D01*
X040936Y011619D01*
X040983Y011645D01*
X041032Y011668D01*
X041082Y011688D01*
X041134Y011704D01*
X041186Y011717D01*
X041239Y011726D01*
X041293Y011732D01*
X041347Y011734D01*
X041347Y011725D01*
X041294Y011723D01*
X041241Y011717D01*
X041188Y011708D01*
X041136Y011695D01*
X041085Y011679D01*
X041035Y011660D01*
X040987Y011637D01*
X040940Y011611D01*
X040896Y011582D01*
X040853Y011550D01*
X040812Y011515D01*
X040774Y011478D01*
X040738Y011438D01*
X040705Y011396D01*
X040675Y011352D01*
X040648Y011306D01*
X040656Y011302D01*
X040683Y011347D01*
X040713Y011391D01*
X040745Y011432D01*
X040780Y011472D01*
X040818Y011509D01*
X040858Y011543D01*
X040901Y011575D01*
X040945Y011603D01*
X040991Y011629D01*
X041039Y011651D01*
X041088Y011671D01*
X041138Y011687D01*
X041190Y011699D01*
X041242Y011708D01*
X041294Y011714D01*
X041347Y011716D01*
X041347Y011707D01*
X041291Y011705D01*
X041236Y011698D01*
X041181Y011688D01*
X041127Y011674D01*
X041075Y011656D01*
X041023Y011635D01*
X040974Y011609D01*
X040926Y011581D01*
X040880Y011549D01*
X040837Y011514D01*
X040797Y011476D01*
X040759Y011435D01*
X040724Y011391D01*
X040693Y011345D01*
X040664Y011297D01*
X040672Y011293D01*
X040700Y011341D01*
X040731Y011386D01*
X040766Y011429D01*
X040803Y011469D01*
X040843Y011507D01*
X040886Y011542D01*
X040931Y011573D01*
X040978Y011602D01*
X041027Y011626D01*
X041078Y011648D01*
X041130Y011665D01*
X041183Y011679D01*
X041237Y011689D01*
X041292Y011696D01*
X041347Y011698D01*
X041347Y011689D01*
X041293Y011687D01*
X041239Y011681D01*
X041185Y011671D01*
X041133Y011657D01*
X041081Y011639D01*
X041031Y011618D01*
X040982Y011594D01*
X040936Y011566D01*
X040891Y011534D01*
X040849Y011500D01*
X040810Y011463D01*
X040773Y011423D01*
X040739Y011381D01*
X040708Y011336D01*
X040680Y011289D01*
X041997Y011469D02*
X041928Y011412D01*
X041929Y011412D02*
X041892Y011452D01*
X041853Y011490D01*
X041811Y011524D01*
X041767Y011556D01*
X041721Y011584D01*
X041672Y011609D01*
X041622Y011630D01*
X041571Y011648D01*
X041518Y011661D01*
X041465Y011671D01*
X041411Y011678D01*
X041357Y011680D01*
X041356Y011769D01*
X041357Y011770D01*
X041413Y011768D01*
X041469Y011762D01*
X041524Y011752D01*
X041579Y011739D01*
X041632Y011722D01*
X041685Y011702D01*
X041736Y011678D01*
X041785Y011651D01*
X041832Y011620D01*
X041877Y011587D01*
X041920Y011551D01*
X041960Y011512D01*
X041998Y011470D01*
X041991Y011464D01*
X041954Y011505D01*
X041914Y011544D01*
X041872Y011580D01*
X041827Y011613D01*
X041780Y011643D01*
X041732Y011670D01*
X041681Y011693D01*
X041629Y011714D01*
X041576Y011730D01*
X041522Y011743D01*
X041468Y011753D01*
X041413Y011759D01*
X041357Y011761D01*
X041357Y011752D01*
X041412Y011750D01*
X041467Y011744D01*
X041521Y011735D01*
X041574Y011722D01*
X041626Y011705D01*
X041678Y011685D01*
X041727Y011662D01*
X041776Y011635D01*
X041822Y011606D01*
X041866Y011573D01*
X041908Y011537D01*
X041947Y011499D01*
X041984Y011458D01*
X041977Y011453D01*
X041941Y011493D01*
X041902Y011531D01*
X041860Y011566D01*
X041817Y011598D01*
X041771Y011628D01*
X041723Y011654D01*
X041674Y011677D01*
X041624Y011697D01*
X041572Y011713D01*
X041519Y011726D01*
X041465Y011735D01*
X041411Y011741D01*
X041357Y011743D01*
X041357Y011734D01*
X041411Y011732D01*
X041464Y011726D01*
X041517Y011717D01*
X041569Y011704D01*
X041621Y011688D01*
X041671Y011669D01*
X041719Y011646D01*
X041766Y011620D01*
X041812Y011591D01*
X041855Y011559D01*
X041896Y011524D01*
X041934Y011487D01*
X041970Y011447D01*
X041963Y011441D01*
X041928Y011480D01*
X041890Y011517D01*
X041849Y011552D01*
X041806Y011583D01*
X041762Y011612D01*
X041715Y011638D01*
X041667Y011660D01*
X041618Y011680D01*
X041567Y011696D01*
X041515Y011708D01*
X041463Y011717D01*
X041410Y011723D01*
X041357Y011725D01*
X041357Y011716D01*
X041409Y011714D01*
X041462Y011708D01*
X041513Y011699D01*
X041564Y011687D01*
X041615Y011671D01*
X041664Y011652D01*
X041711Y011630D01*
X041757Y011604D01*
X041801Y011576D01*
X041843Y011545D01*
X041884Y011511D01*
X041921Y011474D01*
X041956Y011435D01*
X041950Y011429D01*
X041915Y011468D01*
X041877Y011504D01*
X041838Y011538D01*
X041796Y011569D01*
X041752Y011597D01*
X041707Y011622D01*
X041660Y011644D01*
X041612Y011663D01*
X041562Y011678D01*
X041512Y011691D01*
X041460Y011699D01*
X041409Y011705D01*
X041357Y011707D01*
X041357Y011698D01*
X041408Y011696D01*
X041459Y011691D01*
X041510Y011682D01*
X041560Y011670D01*
X041609Y011654D01*
X041656Y011636D01*
X041703Y011614D01*
X041748Y011589D01*
X041791Y011561D01*
X041832Y011531D01*
X041871Y011498D01*
X041908Y011462D01*
X041943Y011424D01*
X041936Y011418D01*
X041899Y011459D01*
X041859Y011497D01*
X041817Y011531D01*
X041772Y011563D01*
X041725Y011592D01*
X041676Y011617D01*
X041625Y011638D01*
X041574Y011656D01*
X041520Y011670D01*
X041466Y011680D01*
X041412Y011687D01*
X041357Y011689D01*
X041356Y010081D02*
X041356Y010171D01*
X041357Y010170D02*
X041411Y010172D01*
X041464Y010178D01*
X041517Y010188D01*
X041569Y010202D01*
X041620Y010219D01*
X041670Y010240D01*
X041718Y010264D01*
X041764Y010292D01*
X041808Y010323D01*
X041849Y010357D01*
X041889Y010394D01*
X041925Y010433D01*
X041993Y010376D01*
X041994Y010375D01*
X041956Y010334D01*
X041916Y010296D01*
X041873Y010260D01*
X041828Y010227D01*
X041781Y010197D01*
X041733Y010171D01*
X041682Y010147D01*
X041630Y010127D01*
X041577Y010111D01*
X041523Y010097D01*
X041468Y010088D01*
X041413Y010082D01*
X041357Y010080D01*
X041357Y010089D01*
X041412Y010091D01*
X041467Y010097D01*
X041521Y010106D01*
X041575Y010119D01*
X041627Y010136D01*
X041679Y010155D01*
X041729Y010179D01*
X041777Y010205D01*
X041823Y010235D01*
X041868Y010267D01*
X041910Y010302D01*
X041950Y010341D01*
X041987Y010381D01*
X041980Y010387D01*
X041943Y010347D01*
X041904Y010309D01*
X041862Y010274D01*
X041818Y010242D01*
X041772Y010213D01*
X041724Y010187D01*
X041675Y010164D01*
X041624Y010144D01*
X041572Y010128D01*
X041519Y010115D01*
X041466Y010106D01*
X041411Y010100D01*
X041357Y010098D01*
X041357Y010107D01*
X041411Y010109D01*
X041464Y010115D01*
X041517Y010124D01*
X041570Y010137D01*
X041621Y010153D01*
X041672Y010172D01*
X041720Y010195D01*
X041768Y010220D01*
X041813Y010249D01*
X041857Y010281D01*
X041898Y010316D01*
X041937Y010353D01*
X041973Y010393D01*
X041966Y010399D01*
X041930Y010359D01*
X041892Y010322D01*
X041851Y010288D01*
X041808Y010257D01*
X041763Y010228D01*
X041716Y010203D01*
X041668Y010180D01*
X041618Y010161D01*
X041567Y010145D01*
X041516Y010133D01*
X041463Y010124D01*
X041410Y010118D01*
X041357Y010116D01*
X041357Y010125D01*
X041410Y010127D01*
X041462Y010133D01*
X041514Y010142D01*
X041565Y010154D01*
X041615Y010170D01*
X041665Y010189D01*
X041712Y010211D01*
X041759Y010236D01*
X041803Y010264D01*
X041845Y010295D01*
X041886Y010329D01*
X041924Y010366D01*
X041959Y010404D01*
X041953Y010410D01*
X041917Y010372D01*
X041880Y010336D01*
X041840Y010302D01*
X041798Y010272D01*
X041754Y010244D01*
X041708Y010219D01*
X041661Y010197D01*
X041612Y010178D01*
X041563Y010163D01*
X041512Y010150D01*
X041461Y010142D01*
X041409Y010136D01*
X041357Y010134D01*
X041357Y010143D01*
X041413Y010145D01*
X041468Y010152D01*
X041523Y010162D01*
X041577Y010176D01*
X041630Y010194D01*
X041681Y010216D01*
X041731Y010241D01*
X041779Y010270D01*
X041824Y010302D01*
X041867Y010337D01*
X041908Y010375D01*
X041946Y010416D01*
X041939Y010422D01*
X041902Y010381D01*
X041861Y010344D01*
X041819Y010309D01*
X041774Y010277D01*
X041726Y010249D01*
X041677Y010224D01*
X041626Y010202D01*
X041574Y010185D01*
X041521Y010171D01*
X041467Y010161D01*
X041412Y010154D01*
X041357Y010152D01*
X041357Y010161D01*
X041411Y010163D01*
X041465Y010169D01*
X041519Y010179D01*
X041572Y010193D01*
X041623Y010211D01*
X041673Y010232D01*
X041722Y010257D01*
X041769Y010285D01*
X041813Y010316D01*
X041855Y010350D01*
X041895Y010388D01*
X041932Y010428D01*
X047021Y010502D02*
X047099Y010547D01*
X047099Y010546D02*
X047127Y010502D01*
X047158Y010460D01*
X047191Y010420D01*
X047227Y010382D01*
X047266Y010347D01*
X047307Y010315D01*
X047351Y010285D01*
X047396Y010259D01*
X047443Y010236D01*
X047491Y010216D01*
X047541Y010200D01*
X047591Y010187D01*
X047643Y010178D01*
X047695Y010172D01*
X047747Y010170D01*
X047748Y010081D01*
X047747Y010080D01*
X047692Y010082D01*
X047638Y010088D01*
X047583Y010097D01*
X047530Y010110D01*
X047478Y010126D01*
X047426Y010145D01*
X047376Y010168D01*
X047328Y010194D01*
X047281Y010223D01*
X047237Y010255D01*
X047194Y010290D01*
X047154Y010328D01*
X047117Y010368D01*
X047082Y010410D01*
X047050Y010455D01*
X047021Y010501D01*
X047029Y010506D01*
X047057Y010460D01*
X047089Y010416D01*
X047124Y010374D01*
X047161Y010334D01*
X047200Y010297D01*
X047242Y010262D01*
X047286Y010231D01*
X047332Y010202D01*
X047380Y010176D01*
X047430Y010154D01*
X047480Y010134D01*
X047532Y010118D01*
X047585Y010106D01*
X047639Y010097D01*
X047693Y010091D01*
X047747Y010089D01*
X047747Y010098D01*
X047693Y010100D01*
X047640Y010106D01*
X047587Y010115D01*
X047535Y010127D01*
X047483Y010143D01*
X047433Y010162D01*
X047384Y010184D01*
X047337Y010210D01*
X047291Y010238D01*
X047248Y010270D01*
X047206Y010304D01*
X047167Y010340D01*
X047130Y010380D01*
X047096Y010421D01*
X047065Y010465D01*
X047036Y010510D01*
X047044Y010515D01*
X047074Y010467D01*
X047108Y010421D01*
X047144Y010378D01*
X047184Y010337D01*
X047226Y010299D01*
X047270Y010264D01*
X047317Y010232D01*
X047366Y010204D01*
X047417Y010179D01*
X047470Y010157D01*
X047523Y010140D01*
X047578Y010126D01*
X047634Y010116D01*
X047690Y010109D01*
X047747Y010107D01*
X047747Y010116D01*
X047691Y010118D01*
X047635Y010124D01*
X047580Y010134D01*
X047526Y010148D01*
X047473Y010166D01*
X047421Y010187D01*
X047370Y010212D01*
X047322Y010240D01*
X047276Y010271D01*
X047231Y010306D01*
X047190Y010343D01*
X047151Y010384D01*
X047115Y010426D01*
X047082Y010472D01*
X047052Y010519D01*
X047060Y010524D01*
X047089Y010477D01*
X047122Y010432D01*
X047158Y010390D01*
X047196Y010350D01*
X047237Y010313D01*
X047281Y010278D01*
X047327Y010247D01*
X047375Y010220D01*
X047424Y010195D01*
X047476Y010174D01*
X047528Y010157D01*
X047582Y010143D01*
X047637Y010133D01*
X047692Y010127D01*
X047747Y010125D01*
X047747Y010134D01*
X047692Y010136D01*
X047638Y010142D01*
X047584Y010152D01*
X047531Y010166D01*
X047479Y010183D01*
X047428Y010203D01*
X047379Y010228D01*
X047332Y010255D01*
X047286Y010286D01*
X047243Y010319D01*
X047202Y010356D01*
X047164Y010396D01*
X047129Y010438D01*
X047097Y010482D01*
X047068Y010528D01*
X047076Y010533D01*
X047104Y010487D01*
X047136Y010443D01*
X047171Y010402D01*
X047209Y010363D01*
X047249Y010326D01*
X047291Y010293D01*
X047336Y010263D01*
X047383Y010235D01*
X047432Y010212D01*
X047482Y010191D01*
X047533Y010174D01*
X047586Y010161D01*
X047639Y010151D01*
X047693Y010145D01*
X047747Y010143D01*
X047747Y010152D01*
X047694Y010154D01*
X047640Y010160D01*
X047588Y010170D01*
X047536Y010183D01*
X047485Y010200D01*
X047435Y010220D01*
X047387Y010243D01*
X047341Y010270D01*
X047297Y010300D01*
X047255Y010333D01*
X047215Y010369D01*
X047178Y010408D01*
X047143Y010449D01*
X047112Y010492D01*
X047083Y010537D01*
X047091Y010542D01*
X047119Y010497D01*
X047150Y010454D01*
X047184Y010414D01*
X047221Y010376D01*
X047260Y010340D01*
X047302Y010308D01*
X047346Y010278D01*
X047392Y010251D01*
X047439Y010228D01*
X047488Y010208D01*
X047538Y010191D01*
X047590Y010178D01*
X047642Y010169D01*
X047694Y010163D01*
X047747Y010161D01*
X047747Y011769D02*
X047747Y011679D01*
X047747Y011680D02*
X047693Y011678D01*
X047640Y011672D01*
X047587Y011662D01*
X047535Y011648D01*
X047484Y011631D01*
X047435Y011610D01*
X047387Y011586D01*
X047341Y011558D01*
X047297Y011527D01*
X047255Y011493D01*
X047216Y011457D01*
X047179Y011417D01*
X047146Y011375D01*
X047115Y011331D01*
X047088Y011285D01*
X047009Y011327D01*
X047037Y011376D01*
X047069Y011422D01*
X047104Y011467D01*
X047141Y011509D01*
X047182Y011549D01*
X047225Y011585D01*
X047270Y011619D01*
X047317Y011650D01*
X047367Y011677D01*
X047418Y011701D01*
X047470Y011722D01*
X047524Y011739D01*
X047579Y011752D01*
X047634Y011762D01*
X047691Y011768D01*
X047747Y011770D01*
X047747Y011761D01*
X047691Y011759D01*
X047636Y011753D01*
X047581Y011743D01*
X047526Y011730D01*
X047473Y011713D01*
X047421Y011693D01*
X047371Y011669D01*
X047322Y011642D01*
X047275Y011612D01*
X047230Y011578D01*
X047188Y011542D01*
X047148Y011503D01*
X047111Y011461D01*
X047076Y011417D01*
X047045Y011371D01*
X047017Y011323D01*
X047025Y011319D01*
X047053Y011366D01*
X047084Y011412D01*
X047118Y011455D01*
X047154Y011497D01*
X047194Y011535D01*
X047236Y011571D01*
X047280Y011604D01*
X047326Y011634D01*
X047375Y011661D01*
X047425Y011684D01*
X047476Y011705D01*
X047529Y011721D01*
X047582Y011734D01*
X047637Y011744D01*
X047692Y011750D01*
X047747Y011752D01*
X047747Y011743D01*
X047692Y011741D01*
X047638Y011735D01*
X047584Y011726D01*
X047531Y011713D01*
X047479Y011696D01*
X047428Y011676D01*
X047379Y011653D01*
X047331Y011626D01*
X047285Y011597D01*
X047241Y011564D01*
X047200Y011529D01*
X047161Y011490D01*
X047124Y011450D01*
X047091Y011407D01*
X047060Y011361D01*
X047033Y011314D01*
X047041Y011310D01*
X047068Y011357D01*
X047098Y011401D01*
X047131Y011444D01*
X047167Y011484D01*
X047206Y011522D01*
X047247Y011557D01*
X047290Y011589D01*
X047336Y011619D01*
X047383Y011645D01*
X047432Y011668D01*
X047482Y011688D01*
X047534Y011704D01*
X047586Y011717D01*
X047639Y011726D01*
X047693Y011732D01*
X047747Y011734D01*
X047747Y011725D01*
X047694Y011723D01*
X047641Y011717D01*
X047588Y011708D01*
X047536Y011695D01*
X047485Y011679D01*
X047435Y011660D01*
X047387Y011637D01*
X047340Y011611D01*
X047296Y011582D01*
X047253Y011550D01*
X047212Y011515D01*
X047174Y011478D01*
X047138Y011438D01*
X047105Y011396D01*
X047075Y011352D01*
X047048Y011306D01*
X047056Y011302D01*
X047083Y011347D01*
X047113Y011391D01*
X047145Y011432D01*
X047180Y011472D01*
X047218Y011509D01*
X047258Y011543D01*
X047301Y011575D01*
X047345Y011603D01*
X047391Y011629D01*
X047439Y011651D01*
X047488Y011671D01*
X047538Y011687D01*
X047590Y011699D01*
X047642Y011708D01*
X047694Y011714D01*
X047747Y011716D01*
X047747Y011707D01*
X047691Y011705D01*
X047636Y011698D01*
X047581Y011688D01*
X047527Y011674D01*
X047475Y011656D01*
X047423Y011635D01*
X047374Y011609D01*
X047326Y011581D01*
X047280Y011549D01*
X047237Y011514D01*
X047197Y011476D01*
X047159Y011435D01*
X047124Y011391D01*
X047093Y011345D01*
X047064Y011297D01*
X047072Y011293D01*
X047100Y011341D01*
X047131Y011386D01*
X047166Y011429D01*
X047203Y011469D01*
X047243Y011507D01*
X047286Y011542D01*
X047331Y011573D01*
X047378Y011602D01*
X047427Y011626D01*
X047478Y011648D01*
X047530Y011665D01*
X047583Y011679D01*
X047637Y011689D01*
X047692Y011696D01*
X047747Y011698D01*
X047747Y011689D01*
X047693Y011687D01*
X047639Y011681D01*
X047585Y011671D01*
X047533Y011657D01*
X047481Y011639D01*
X047431Y011618D01*
X047382Y011594D01*
X047336Y011566D01*
X047291Y011534D01*
X047249Y011500D01*
X047210Y011463D01*
X047173Y011423D01*
X047139Y011381D01*
X047108Y011336D01*
X047080Y011289D01*
X048397Y011469D02*
X048328Y011412D01*
X048329Y011412D02*
X048292Y011452D01*
X048253Y011490D01*
X048211Y011524D01*
X048167Y011556D01*
X048121Y011584D01*
X048072Y011609D01*
X048022Y011630D01*
X047971Y011648D01*
X047918Y011661D01*
X047865Y011671D01*
X047811Y011678D01*
X047757Y011680D01*
X047756Y011769D01*
X047757Y011770D01*
X047813Y011768D01*
X047869Y011762D01*
X047924Y011752D01*
X047979Y011739D01*
X048032Y011722D01*
X048085Y011702D01*
X048136Y011678D01*
X048185Y011651D01*
X048232Y011620D01*
X048277Y011587D01*
X048320Y011551D01*
X048360Y011512D01*
X048398Y011470D01*
X048391Y011464D01*
X048354Y011505D01*
X048314Y011544D01*
X048272Y011580D01*
X048227Y011613D01*
X048180Y011643D01*
X048132Y011670D01*
X048081Y011693D01*
X048029Y011714D01*
X047976Y011730D01*
X047922Y011743D01*
X047868Y011753D01*
X047813Y011759D01*
X047757Y011761D01*
X047757Y011752D01*
X047812Y011750D01*
X047867Y011744D01*
X047921Y011735D01*
X047974Y011722D01*
X048026Y011705D01*
X048078Y011685D01*
X048127Y011662D01*
X048176Y011635D01*
X048222Y011606D01*
X048266Y011573D01*
X048308Y011537D01*
X048347Y011499D01*
X048384Y011458D01*
X048377Y011453D01*
X048341Y011493D01*
X048302Y011531D01*
X048260Y011566D01*
X048217Y011598D01*
X048171Y011628D01*
X048123Y011654D01*
X048074Y011677D01*
X048024Y011697D01*
X047972Y011713D01*
X047919Y011726D01*
X047865Y011735D01*
X047811Y011741D01*
X047757Y011743D01*
X047757Y011734D01*
X047811Y011732D01*
X047864Y011726D01*
X047917Y011717D01*
X047969Y011704D01*
X048021Y011688D01*
X048071Y011669D01*
X048119Y011646D01*
X048166Y011620D01*
X048212Y011591D01*
X048255Y011559D01*
X048296Y011524D01*
X048334Y011487D01*
X048370Y011447D01*
X048363Y011441D01*
X048328Y011480D01*
X048290Y011517D01*
X048249Y011552D01*
X048206Y011583D01*
X048162Y011612D01*
X048115Y011638D01*
X048067Y011660D01*
X048018Y011680D01*
X047967Y011696D01*
X047915Y011708D01*
X047863Y011717D01*
X047810Y011723D01*
X047757Y011725D01*
X047757Y011716D01*
X047809Y011714D01*
X047862Y011708D01*
X047913Y011699D01*
X047964Y011687D01*
X048015Y011671D01*
X048064Y011652D01*
X048111Y011630D01*
X048157Y011604D01*
X048201Y011576D01*
X048243Y011545D01*
X048284Y011511D01*
X048321Y011474D01*
X048356Y011435D01*
X048350Y011429D01*
X048315Y011468D01*
X048277Y011504D01*
X048238Y011538D01*
X048196Y011569D01*
X048152Y011597D01*
X048107Y011622D01*
X048060Y011644D01*
X048012Y011663D01*
X047962Y011678D01*
X047912Y011691D01*
X047860Y011699D01*
X047809Y011705D01*
X047757Y011707D01*
X047757Y011698D01*
X047808Y011696D01*
X047859Y011691D01*
X047910Y011682D01*
X047960Y011670D01*
X048009Y011654D01*
X048056Y011636D01*
X048103Y011614D01*
X048148Y011589D01*
X048191Y011561D01*
X048232Y011531D01*
X048271Y011498D01*
X048308Y011462D01*
X048343Y011424D01*
X048336Y011418D01*
X048299Y011459D01*
X048259Y011497D01*
X048217Y011531D01*
X048172Y011563D01*
X048125Y011592D01*
X048076Y011617D01*
X048025Y011638D01*
X047974Y011656D01*
X047920Y011670D01*
X047866Y011680D01*
X047812Y011687D01*
X047757Y011689D01*
X047756Y010081D02*
X047756Y010171D01*
X047757Y010170D02*
X047811Y010172D01*
X047864Y010178D01*
X047917Y010188D01*
X047969Y010202D01*
X048020Y010219D01*
X048070Y010240D01*
X048118Y010264D01*
X048164Y010292D01*
X048208Y010323D01*
X048249Y010357D01*
X048289Y010394D01*
X048325Y010433D01*
X048393Y010376D01*
X048394Y010375D01*
X048356Y010334D01*
X048316Y010296D01*
X048273Y010260D01*
X048228Y010227D01*
X048181Y010197D01*
X048133Y010171D01*
X048082Y010147D01*
X048030Y010127D01*
X047977Y010111D01*
X047923Y010097D01*
X047868Y010088D01*
X047813Y010082D01*
X047757Y010080D01*
X047757Y010089D01*
X047812Y010091D01*
X047867Y010097D01*
X047921Y010106D01*
X047975Y010119D01*
X048027Y010136D01*
X048079Y010155D01*
X048129Y010179D01*
X048177Y010205D01*
X048223Y010235D01*
X048268Y010267D01*
X048310Y010302D01*
X048350Y010341D01*
X048387Y010381D01*
X048380Y010387D01*
X048343Y010347D01*
X048304Y010309D01*
X048262Y010274D01*
X048218Y010242D01*
X048172Y010213D01*
X048124Y010187D01*
X048075Y010164D01*
X048024Y010144D01*
X047972Y010128D01*
X047919Y010115D01*
X047866Y010106D01*
X047811Y010100D01*
X047757Y010098D01*
X047757Y010107D01*
X047811Y010109D01*
X047864Y010115D01*
X047917Y010124D01*
X047970Y010137D01*
X048021Y010153D01*
X048072Y010172D01*
X048120Y010195D01*
X048168Y010220D01*
X048213Y010249D01*
X048257Y010281D01*
X048298Y010316D01*
X048337Y010353D01*
X048373Y010393D01*
X048366Y010399D01*
X048330Y010359D01*
X048292Y010322D01*
X048251Y010288D01*
X048208Y010257D01*
X048163Y010228D01*
X048116Y010203D01*
X048068Y010180D01*
X048018Y010161D01*
X047967Y010145D01*
X047916Y010133D01*
X047863Y010124D01*
X047810Y010118D01*
X047757Y010116D01*
X047757Y010125D01*
X047810Y010127D01*
X047862Y010133D01*
X047914Y010142D01*
X047965Y010154D01*
X048015Y010170D01*
X048065Y010189D01*
X048112Y010211D01*
X048159Y010236D01*
X048203Y010264D01*
X048245Y010295D01*
X048286Y010329D01*
X048324Y010366D01*
X048359Y010404D01*
X048353Y010410D01*
X048317Y010372D01*
X048280Y010336D01*
X048240Y010302D01*
X048198Y010272D01*
X048154Y010244D01*
X048108Y010219D01*
X048061Y010197D01*
X048012Y010178D01*
X047963Y010163D01*
X047912Y010150D01*
X047861Y010142D01*
X047809Y010136D01*
X047757Y010134D01*
X047757Y010143D01*
X047813Y010145D01*
X047868Y010152D01*
X047923Y010162D01*
X047977Y010176D01*
X048030Y010194D01*
X048081Y010216D01*
X048131Y010241D01*
X048179Y010270D01*
X048224Y010302D01*
X048267Y010337D01*
X048308Y010375D01*
X048346Y010416D01*
X048339Y010422D01*
X048302Y010381D01*
X048261Y010344D01*
X048219Y010309D01*
X048174Y010277D01*
X048126Y010249D01*
X048077Y010224D01*
X048026Y010202D01*
X047974Y010185D01*
X047921Y010171D01*
X047867Y010161D01*
X047812Y010154D01*
X047757Y010152D01*
X047757Y010161D01*
X047811Y010163D01*
X047865Y010169D01*
X047919Y010179D01*
X047972Y010193D01*
X048023Y010211D01*
X048073Y010232D01*
X048122Y010257D01*
X048169Y010285D01*
X048213Y010316D01*
X048255Y010350D01*
X048295Y010388D01*
X048332Y010428D01*
X020947Y011769D02*
X020947Y011679D01*
X020947Y011680D02*
X020893Y011678D01*
X020840Y011672D01*
X020787Y011662D01*
X020735Y011648D01*
X020684Y011631D01*
X020635Y011610D01*
X020587Y011586D01*
X020541Y011558D01*
X020497Y011527D01*
X020455Y011493D01*
X020416Y011457D01*
X020379Y011417D01*
X020346Y011375D01*
X020315Y011331D01*
X020288Y011285D01*
X020209Y011327D01*
X020237Y011376D01*
X020269Y011422D01*
X020304Y011467D01*
X020341Y011509D01*
X020382Y011549D01*
X020425Y011585D01*
X020470Y011619D01*
X020517Y011650D01*
X020567Y011677D01*
X020618Y011701D01*
X020670Y011722D01*
X020724Y011739D01*
X020779Y011752D01*
X020834Y011762D01*
X020891Y011768D01*
X020947Y011770D01*
X020947Y011761D01*
X020891Y011759D01*
X020836Y011753D01*
X020781Y011743D01*
X020726Y011730D01*
X020673Y011713D01*
X020621Y011693D01*
X020571Y011669D01*
X020522Y011642D01*
X020475Y011612D01*
X020430Y011578D01*
X020388Y011542D01*
X020348Y011503D01*
X020311Y011461D01*
X020276Y011417D01*
X020245Y011371D01*
X020217Y011323D01*
X020225Y011319D01*
X020253Y011366D01*
X020284Y011412D01*
X020318Y011455D01*
X020354Y011497D01*
X020394Y011535D01*
X020436Y011571D01*
X020480Y011604D01*
X020526Y011634D01*
X020575Y011661D01*
X020625Y011684D01*
X020676Y011705D01*
X020729Y011721D01*
X020782Y011734D01*
X020837Y011744D01*
X020892Y011750D01*
X020947Y011752D01*
X020947Y011743D01*
X020892Y011741D01*
X020838Y011735D01*
X020784Y011726D01*
X020731Y011713D01*
X020679Y011696D01*
X020628Y011676D01*
X020579Y011653D01*
X020531Y011626D01*
X020485Y011597D01*
X020441Y011564D01*
X020400Y011529D01*
X020361Y011490D01*
X020324Y011450D01*
X020291Y011407D01*
X020260Y011361D01*
X020233Y011314D01*
X020241Y011310D01*
X020268Y011357D01*
X020298Y011401D01*
X020331Y011444D01*
X020367Y011484D01*
X020406Y011522D01*
X020447Y011557D01*
X020490Y011589D01*
X020536Y011619D01*
X020583Y011645D01*
X020632Y011668D01*
X020682Y011688D01*
X020734Y011704D01*
X020786Y011717D01*
X020839Y011726D01*
X020893Y011732D01*
X020947Y011734D01*
X020947Y011725D01*
X020894Y011723D01*
X020841Y011717D01*
X020788Y011708D01*
X020736Y011695D01*
X020685Y011679D01*
X020635Y011660D01*
X020587Y011637D01*
X020540Y011611D01*
X020496Y011582D01*
X020453Y011550D01*
X020412Y011515D01*
X020374Y011478D01*
X020338Y011438D01*
X020305Y011396D01*
X020275Y011352D01*
X020248Y011306D01*
X020256Y011302D01*
X020283Y011347D01*
X020313Y011391D01*
X020345Y011432D01*
X020380Y011472D01*
X020418Y011509D01*
X020458Y011543D01*
X020501Y011575D01*
X020545Y011603D01*
X020591Y011629D01*
X020639Y011651D01*
X020688Y011671D01*
X020738Y011687D01*
X020790Y011699D01*
X020842Y011708D01*
X020894Y011714D01*
X020947Y011716D01*
X020947Y011707D01*
X020891Y011705D01*
X020836Y011698D01*
X020781Y011688D01*
X020727Y011674D01*
X020675Y011656D01*
X020623Y011635D01*
X020574Y011609D01*
X020526Y011581D01*
X020480Y011549D01*
X020437Y011514D01*
X020397Y011476D01*
X020359Y011435D01*
X020324Y011391D01*
X020293Y011345D01*
X020264Y011297D01*
X020272Y011293D01*
X020300Y011341D01*
X020331Y011386D01*
X020366Y011429D01*
X020403Y011469D01*
X020443Y011507D01*
X020486Y011542D01*
X020531Y011573D01*
X020578Y011602D01*
X020627Y011626D01*
X020678Y011648D01*
X020730Y011665D01*
X020783Y011679D01*
X020837Y011689D01*
X020892Y011696D01*
X020947Y011698D01*
X020947Y011689D01*
X020893Y011687D01*
X020839Y011681D01*
X020785Y011671D01*
X020733Y011657D01*
X020681Y011639D01*
X020631Y011618D01*
X020582Y011594D01*
X020536Y011566D01*
X020491Y011534D01*
X020449Y011500D01*
X020410Y011463D01*
X020373Y011423D01*
X020339Y011381D01*
X020308Y011336D01*
X020280Y011289D01*
X020221Y010502D02*
X020299Y010547D01*
X020299Y010546D02*
X020327Y010502D01*
X020358Y010460D01*
X020391Y010420D01*
X020427Y010382D01*
X020466Y010347D01*
X020507Y010315D01*
X020551Y010285D01*
X020596Y010259D01*
X020643Y010236D01*
X020691Y010216D01*
X020741Y010200D01*
X020791Y010187D01*
X020843Y010178D01*
X020895Y010172D01*
X020947Y010170D01*
X020948Y010081D01*
X020947Y010080D01*
X020892Y010082D01*
X020838Y010088D01*
X020783Y010097D01*
X020730Y010110D01*
X020678Y010126D01*
X020626Y010145D01*
X020576Y010168D01*
X020528Y010194D01*
X020481Y010223D01*
X020437Y010255D01*
X020394Y010290D01*
X020354Y010328D01*
X020317Y010368D01*
X020282Y010410D01*
X020250Y010455D01*
X020221Y010501D01*
X020229Y010506D01*
X020257Y010460D01*
X020289Y010416D01*
X020324Y010374D01*
X020361Y010334D01*
X020400Y010297D01*
X020442Y010262D01*
X020486Y010231D01*
X020532Y010202D01*
X020580Y010176D01*
X020630Y010154D01*
X020680Y010134D01*
X020732Y010118D01*
X020785Y010106D01*
X020839Y010097D01*
X020893Y010091D01*
X020947Y010089D01*
X020947Y010098D01*
X020893Y010100D01*
X020840Y010106D01*
X020787Y010115D01*
X020735Y010127D01*
X020683Y010143D01*
X020633Y010162D01*
X020584Y010184D01*
X020537Y010210D01*
X020491Y010238D01*
X020448Y010270D01*
X020406Y010304D01*
X020367Y010340D01*
X020330Y010380D01*
X020296Y010421D01*
X020265Y010465D01*
X020236Y010510D01*
X020244Y010515D01*
X020274Y010467D01*
X020308Y010421D01*
X020344Y010378D01*
X020384Y010337D01*
X020426Y010299D01*
X020470Y010264D01*
X020517Y010232D01*
X020566Y010204D01*
X020617Y010179D01*
X020670Y010157D01*
X020723Y010140D01*
X020778Y010126D01*
X020834Y010116D01*
X020890Y010109D01*
X020947Y010107D01*
X020947Y010116D01*
X020891Y010118D01*
X020835Y010124D01*
X020780Y010134D01*
X020726Y010148D01*
X020673Y010166D01*
X020621Y010187D01*
X020570Y010212D01*
X020522Y010240D01*
X020476Y010271D01*
X020431Y010306D01*
X020390Y010343D01*
X020351Y010384D01*
X020315Y010426D01*
X020282Y010472D01*
X020252Y010519D01*
X020260Y010524D01*
X020289Y010477D01*
X020322Y010432D01*
X020358Y010390D01*
X020396Y010350D01*
X020437Y010313D01*
X020481Y010278D01*
X020527Y010247D01*
X020575Y010220D01*
X020624Y010195D01*
X020676Y010174D01*
X020728Y010157D01*
X020782Y010143D01*
X020837Y010133D01*
X020892Y010127D01*
X020947Y010125D01*
X020947Y010134D01*
X020892Y010136D01*
X020838Y010142D01*
X020784Y010152D01*
X020731Y010166D01*
X020679Y010183D01*
X020628Y010203D01*
X020579Y010228D01*
X020532Y010255D01*
X020486Y010286D01*
X020443Y010319D01*
X020402Y010356D01*
X020364Y010396D01*
X020329Y010438D01*
X020297Y010482D01*
X020268Y010528D01*
X020276Y010533D01*
X020304Y010487D01*
X020336Y010443D01*
X020371Y010402D01*
X020409Y010363D01*
X020449Y010326D01*
X020491Y010293D01*
X020536Y010263D01*
X020583Y010235D01*
X020632Y010212D01*
X020682Y010191D01*
X020733Y010174D01*
X020786Y010161D01*
X020839Y010151D01*
X020893Y010145D01*
X020947Y010143D01*
X020947Y010152D01*
X020894Y010154D01*
X020840Y010160D01*
X020788Y010170D01*
X020736Y010183D01*
X020685Y010200D01*
X020635Y010220D01*
X020587Y010243D01*
X020541Y010270D01*
X020497Y010300D01*
X020455Y010333D01*
X020415Y010369D01*
X020378Y010408D01*
X020343Y010449D01*
X020312Y010492D01*
X020283Y010537D01*
X020291Y010542D01*
X020319Y010497D01*
X020350Y010454D01*
X020384Y010414D01*
X020421Y010376D01*
X020460Y010340D01*
X020502Y010308D01*
X020546Y010278D01*
X020592Y010251D01*
X020639Y010228D01*
X020688Y010208D01*
X020738Y010191D01*
X020790Y010178D01*
X020842Y010169D01*
X020894Y010163D01*
X020947Y010161D01*
X020956Y010081D02*
X020956Y010171D01*
X020957Y010170D02*
X021011Y010172D01*
X021064Y010178D01*
X021117Y010188D01*
X021169Y010202D01*
X021220Y010219D01*
X021270Y010240D01*
X021318Y010264D01*
X021364Y010292D01*
X021408Y010323D01*
X021449Y010357D01*
X021489Y010394D01*
X021525Y010433D01*
X021593Y010376D01*
X021594Y010375D01*
X021556Y010334D01*
X021516Y010296D01*
X021473Y010260D01*
X021428Y010227D01*
X021381Y010197D01*
X021333Y010171D01*
X021282Y010147D01*
X021230Y010127D01*
X021177Y010111D01*
X021123Y010097D01*
X021068Y010088D01*
X021013Y010082D01*
X020957Y010080D01*
X020957Y010089D01*
X021012Y010091D01*
X021067Y010097D01*
X021121Y010106D01*
X021175Y010119D01*
X021227Y010136D01*
X021279Y010155D01*
X021329Y010179D01*
X021377Y010205D01*
X021423Y010235D01*
X021468Y010267D01*
X021510Y010302D01*
X021550Y010341D01*
X021587Y010381D01*
X021580Y010387D01*
X021543Y010347D01*
X021504Y010309D01*
X021462Y010274D01*
X021418Y010242D01*
X021372Y010213D01*
X021324Y010187D01*
X021275Y010164D01*
X021224Y010144D01*
X021172Y010128D01*
X021119Y010115D01*
X021066Y010106D01*
X021011Y010100D01*
X020957Y010098D01*
X020957Y010107D01*
X021011Y010109D01*
X021064Y010115D01*
X021117Y010124D01*
X021170Y010137D01*
X021221Y010153D01*
X021272Y010172D01*
X021320Y010195D01*
X021368Y010220D01*
X021413Y010249D01*
X021457Y010281D01*
X021498Y010316D01*
X021537Y010353D01*
X021573Y010393D01*
X021566Y010399D01*
X021530Y010359D01*
X021492Y010322D01*
X021451Y010288D01*
X021408Y010257D01*
X021363Y010228D01*
X021316Y010203D01*
X021268Y010180D01*
X021218Y010161D01*
X021167Y010145D01*
X021116Y010133D01*
X021063Y010124D01*
X021010Y010118D01*
X020957Y010116D01*
X020957Y010125D01*
X021010Y010127D01*
X021062Y010133D01*
X021114Y010142D01*
X021165Y010154D01*
X021215Y010170D01*
X021265Y010189D01*
X021312Y010211D01*
X021359Y010236D01*
X021403Y010264D01*
X021445Y010295D01*
X021486Y010329D01*
X021524Y010366D01*
X021559Y010404D01*
X021553Y010410D01*
X021517Y010372D01*
X021480Y010336D01*
X021440Y010302D01*
X021398Y010272D01*
X021354Y010244D01*
X021308Y010219D01*
X021261Y010197D01*
X021212Y010178D01*
X021163Y010163D01*
X021112Y010150D01*
X021061Y010142D01*
X021009Y010136D01*
X020957Y010134D01*
X020957Y010143D01*
X021013Y010145D01*
X021068Y010152D01*
X021123Y010162D01*
X021177Y010176D01*
X021230Y010194D01*
X021281Y010216D01*
X021331Y010241D01*
X021379Y010270D01*
X021424Y010302D01*
X021467Y010337D01*
X021508Y010375D01*
X021546Y010416D01*
X021539Y010422D01*
X021502Y010381D01*
X021461Y010344D01*
X021419Y010309D01*
X021374Y010277D01*
X021326Y010249D01*
X021277Y010224D01*
X021226Y010202D01*
X021174Y010185D01*
X021121Y010171D01*
X021067Y010161D01*
X021012Y010154D01*
X020957Y010152D01*
X020957Y010161D01*
X021011Y010163D01*
X021065Y010169D01*
X021119Y010179D01*
X021172Y010193D01*
X021223Y010211D01*
X021273Y010232D01*
X021322Y010257D01*
X021369Y010285D01*
X021413Y010316D01*
X021455Y010350D01*
X021495Y010388D01*
X021532Y010428D01*
X021597Y011469D02*
X021528Y011412D01*
X021529Y011412D02*
X021492Y011452D01*
X021453Y011490D01*
X021411Y011524D01*
X021367Y011556D01*
X021321Y011584D01*
X021272Y011609D01*
X021222Y011630D01*
X021171Y011648D01*
X021118Y011661D01*
X021065Y011671D01*
X021011Y011678D01*
X020957Y011680D01*
X020956Y011769D01*
X020957Y011770D01*
X021013Y011768D01*
X021069Y011762D01*
X021124Y011752D01*
X021179Y011739D01*
X021232Y011722D01*
X021285Y011702D01*
X021336Y011678D01*
X021385Y011651D01*
X021432Y011620D01*
X021477Y011587D01*
X021520Y011551D01*
X021560Y011512D01*
X021598Y011470D01*
X021591Y011464D01*
X021554Y011505D01*
X021514Y011544D01*
X021472Y011580D01*
X021427Y011613D01*
X021380Y011643D01*
X021332Y011670D01*
X021281Y011693D01*
X021229Y011714D01*
X021176Y011730D01*
X021122Y011743D01*
X021068Y011753D01*
X021013Y011759D01*
X020957Y011761D01*
X020957Y011752D01*
X021012Y011750D01*
X021067Y011744D01*
X021121Y011735D01*
X021174Y011722D01*
X021226Y011705D01*
X021278Y011685D01*
X021327Y011662D01*
X021376Y011635D01*
X021422Y011606D01*
X021466Y011573D01*
X021508Y011537D01*
X021547Y011499D01*
X021584Y011458D01*
X021577Y011453D01*
X021541Y011493D01*
X021502Y011531D01*
X021460Y011566D01*
X021417Y011598D01*
X021371Y011628D01*
X021323Y011654D01*
X021274Y011677D01*
X021224Y011697D01*
X021172Y011713D01*
X021119Y011726D01*
X021065Y011735D01*
X021011Y011741D01*
X020957Y011743D01*
X020957Y011734D01*
X021011Y011732D01*
X021064Y011726D01*
X021117Y011717D01*
X021169Y011704D01*
X021221Y011688D01*
X021271Y011669D01*
X021319Y011646D01*
X021366Y011620D01*
X021412Y011591D01*
X021455Y011559D01*
X021496Y011524D01*
X021534Y011487D01*
X021570Y011447D01*
X021563Y011441D01*
X021528Y011480D01*
X021490Y011517D01*
X021449Y011552D01*
X021406Y011583D01*
X021362Y011612D01*
X021315Y011638D01*
X021267Y011660D01*
X021218Y011680D01*
X021167Y011696D01*
X021115Y011708D01*
X021063Y011717D01*
X021010Y011723D01*
X020957Y011725D01*
X020957Y011716D01*
X021009Y011714D01*
X021062Y011708D01*
X021113Y011699D01*
X021164Y011687D01*
X021215Y011671D01*
X021264Y011652D01*
X021311Y011630D01*
X021357Y011604D01*
X021401Y011576D01*
X021443Y011545D01*
X021484Y011511D01*
X021521Y011474D01*
X021556Y011435D01*
X021550Y011429D01*
X021515Y011468D01*
X021477Y011504D01*
X021438Y011538D01*
X021396Y011569D01*
X021352Y011597D01*
X021307Y011622D01*
X021260Y011644D01*
X021212Y011663D01*
X021162Y011678D01*
X021112Y011691D01*
X021060Y011699D01*
X021009Y011705D01*
X020957Y011707D01*
X020957Y011698D01*
X021008Y011696D01*
X021059Y011691D01*
X021110Y011682D01*
X021160Y011670D01*
X021209Y011654D01*
X021256Y011636D01*
X021303Y011614D01*
X021348Y011589D01*
X021391Y011561D01*
X021432Y011531D01*
X021471Y011498D01*
X021508Y011462D01*
X021543Y011424D01*
X021536Y011418D01*
X021499Y011459D01*
X021459Y011497D01*
X021417Y011531D01*
X021372Y011563D01*
X021325Y011592D01*
X021276Y011617D01*
X021225Y011638D01*
X021174Y011656D01*
X021120Y011670D01*
X021066Y011680D01*
X021012Y011687D01*
X020957Y011689D01*
X014547Y011769D02*
X014547Y011679D01*
X014547Y011680D02*
X014493Y011678D01*
X014440Y011672D01*
X014387Y011662D01*
X014335Y011648D01*
X014284Y011631D01*
X014235Y011610D01*
X014187Y011586D01*
X014141Y011558D01*
X014097Y011527D01*
X014055Y011493D01*
X014016Y011457D01*
X013979Y011417D01*
X013946Y011375D01*
X013915Y011331D01*
X013888Y011285D01*
X013809Y011327D01*
X013837Y011376D01*
X013869Y011422D01*
X013904Y011467D01*
X013941Y011509D01*
X013982Y011549D01*
X014025Y011585D01*
X014070Y011619D01*
X014117Y011650D01*
X014167Y011677D01*
X014218Y011701D01*
X014270Y011722D01*
X014324Y011739D01*
X014379Y011752D01*
X014434Y011762D01*
X014491Y011768D01*
X014547Y011770D01*
X014547Y011761D01*
X014491Y011759D01*
X014436Y011753D01*
X014381Y011743D01*
X014326Y011730D01*
X014273Y011713D01*
X014221Y011693D01*
X014171Y011669D01*
X014122Y011642D01*
X014075Y011612D01*
X014030Y011578D01*
X013988Y011542D01*
X013948Y011503D01*
X013911Y011461D01*
X013876Y011417D01*
X013845Y011371D01*
X013817Y011323D01*
X013825Y011319D01*
X013853Y011366D01*
X013884Y011412D01*
X013918Y011455D01*
X013954Y011497D01*
X013994Y011535D01*
X014036Y011571D01*
X014080Y011604D01*
X014126Y011634D01*
X014175Y011661D01*
X014225Y011684D01*
X014276Y011705D01*
X014329Y011721D01*
X014382Y011734D01*
X014437Y011744D01*
X014492Y011750D01*
X014547Y011752D01*
X014547Y011743D01*
X014492Y011741D01*
X014438Y011735D01*
X014384Y011726D01*
X014331Y011713D01*
X014279Y011696D01*
X014228Y011676D01*
X014179Y011653D01*
X014131Y011626D01*
X014085Y011597D01*
X014041Y011564D01*
X014000Y011529D01*
X013961Y011490D01*
X013924Y011450D01*
X013891Y011407D01*
X013860Y011361D01*
X013833Y011314D01*
X013841Y011310D01*
X013868Y011357D01*
X013898Y011401D01*
X013931Y011444D01*
X013967Y011484D01*
X014006Y011522D01*
X014047Y011557D01*
X014090Y011589D01*
X014136Y011619D01*
X014183Y011645D01*
X014232Y011668D01*
X014282Y011688D01*
X014334Y011704D01*
X014386Y011717D01*
X014439Y011726D01*
X014493Y011732D01*
X014547Y011734D01*
X014547Y011725D01*
X014494Y011723D01*
X014441Y011717D01*
X014388Y011708D01*
X014336Y011695D01*
X014285Y011679D01*
X014235Y011660D01*
X014187Y011637D01*
X014140Y011611D01*
X014096Y011582D01*
X014053Y011550D01*
X014012Y011515D01*
X013974Y011478D01*
X013938Y011438D01*
X013905Y011396D01*
X013875Y011352D01*
X013848Y011306D01*
X013856Y011302D01*
X013883Y011347D01*
X013913Y011391D01*
X013945Y011432D01*
X013980Y011472D01*
X014018Y011509D01*
X014058Y011543D01*
X014101Y011575D01*
X014145Y011603D01*
X014191Y011629D01*
X014239Y011651D01*
X014288Y011671D01*
X014338Y011687D01*
X014390Y011699D01*
X014442Y011708D01*
X014494Y011714D01*
X014547Y011716D01*
X014547Y011707D01*
X014491Y011705D01*
X014436Y011698D01*
X014381Y011688D01*
X014327Y011674D01*
X014275Y011656D01*
X014223Y011635D01*
X014174Y011609D01*
X014126Y011581D01*
X014080Y011549D01*
X014037Y011514D01*
X013997Y011476D01*
X013959Y011435D01*
X013924Y011391D01*
X013893Y011345D01*
X013864Y011297D01*
X013872Y011293D01*
X013900Y011341D01*
X013931Y011386D01*
X013966Y011429D01*
X014003Y011469D01*
X014043Y011507D01*
X014086Y011542D01*
X014131Y011573D01*
X014178Y011602D01*
X014227Y011626D01*
X014278Y011648D01*
X014330Y011665D01*
X014383Y011679D01*
X014437Y011689D01*
X014492Y011696D01*
X014547Y011698D01*
X014547Y011689D01*
X014493Y011687D01*
X014439Y011681D01*
X014385Y011671D01*
X014333Y011657D01*
X014281Y011639D01*
X014231Y011618D01*
X014182Y011594D01*
X014136Y011566D01*
X014091Y011534D01*
X014049Y011500D01*
X014010Y011463D01*
X013973Y011423D01*
X013939Y011381D01*
X013908Y011336D01*
X013880Y011289D01*
X013821Y010502D02*
X013899Y010547D01*
X013899Y010546D02*
X013927Y010502D01*
X013958Y010460D01*
X013991Y010420D01*
X014027Y010382D01*
X014066Y010347D01*
X014107Y010315D01*
X014151Y010285D01*
X014196Y010259D01*
X014243Y010236D01*
X014291Y010216D01*
X014341Y010200D01*
X014391Y010187D01*
X014443Y010178D01*
X014495Y010172D01*
X014547Y010170D01*
X014548Y010081D01*
X014547Y010080D01*
X014492Y010082D01*
X014438Y010088D01*
X014383Y010097D01*
X014330Y010110D01*
X014278Y010126D01*
X014226Y010145D01*
X014176Y010168D01*
X014128Y010194D01*
X014081Y010223D01*
X014037Y010255D01*
X013994Y010290D01*
X013954Y010328D01*
X013917Y010368D01*
X013882Y010410D01*
X013850Y010455D01*
X013821Y010501D01*
X013829Y010506D01*
X013857Y010460D01*
X013889Y010416D01*
X013924Y010374D01*
X013961Y010334D01*
X014000Y010297D01*
X014042Y010262D01*
X014086Y010231D01*
X014132Y010202D01*
X014180Y010176D01*
X014230Y010154D01*
X014280Y010134D01*
X014332Y010118D01*
X014385Y010106D01*
X014439Y010097D01*
X014493Y010091D01*
X014547Y010089D01*
X014547Y010098D01*
X014493Y010100D01*
X014440Y010106D01*
X014387Y010115D01*
X014335Y010127D01*
X014283Y010143D01*
X014233Y010162D01*
X014184Y010184D01*
X014137Y010210D01*
X014091Y010238D01*
X014048Y010270D01*
X014006Y010304D01*
X013967Y010340D01*
X013930Y010380D01*
X013896Y010421D01*
X013865Y010465D01*
X013836Y010510D01*
X013844Y010515D01*
X013874Y010467D01*
X013908Y010421D01*
X013944Y010378D01*
X013984Y010337D01*
X014026Y010299D01*
X014070Y010264D01*
X014117Y010232D01*
X014166Y010204D01*
X014217Y010179D01*
X014270Y010157D01*
X014323Y010140D01*
X014378Y010126D01*
X014434Y010116D01*
X014490Y010109D01*
X014547Y010107D01*
X014547Y010116D01*
X014491Y010118D01*
X014435Y010124D01*
X014380Y010134D01*
X014326Y010148D01*
X014273Y010166D01*
X014221Y010187D01*
X014170Y010212D01*
X014122Y010240D01*
X014076Y010271D01*
X014031Y010306D01*
X013990Y010343D01*
X013951Y010384D01*
X013915Y010426D01*
X013882Y010472D01*
X013852Y010519D01*
X013860Y010524D01*
X013889Y010477D01*
X013922Y010432D01*
X013958Y010390D01*
X013996Y010350D01*
X014037Y010313D01*
X014081Y010278D01*
X014127Y010247D01*
X014175Y010220D01*
X014224Y010195D01*
X014276Y010174D01*
X014328Y010157D01*
X014382Y010143D01*
X014437Y010133D01*
X014492Y010127D01*
X014547Y010125D01*
X014547Y010134D01*
X014492Y010136D01*
X014438Y010142D01*
X014384Y010152D01*
X014331Y010166D01*
X014279Y010183D01*
X014228Y010203D01*
X014179Y010228D01*
X014132Y010255D01*
X014086Y010286D01*
X014043Y010319D01*
X014002Y010356D01*
X013964Y010396D01*
X013929Y010438D01*
X013897Y010482D01*
X013868Y010528D01*
X013876Y010533D01*
X013904Y010487D01*
X013936Y010443D01*
X013971Y010402D01*
X014009Y010363D01*
X014049Y010326D01*
X014091Y010293D01*
X014136Y010263D01*
X014183Y010235D01*
X014232Y010212D01*
X014282Y010191D01*
X014333Y010174D01*
X014386Y010161D01*
X014439Y010151D01*
X014493Y010145D01*
X014547Y010143D01*
X014547Y010152D01*
X014494Y010154D01*
X014440Y010160D01*
X014388Y010170D01*
X014336Y010183D01*
X014285Y010200D01*
X014235Y010220D01*
X014187Y010243D01*
X014141Y010270D01*
X014097Y010300D01*
X014055Y010333D01*
X014015Y010369D01*
X013978Y010408D01*
X013943Y010449D01*
X013912Y010492D01*
X013883Y010537D01*
X013891Y010542D01*
X013919Y010497D01*
X013950Y010454D01*
X013984Y010414D01*
X014021Y010376D01*
X014060Y010340D01*
X014102Y010308D01*
X014146Y010278D01*
X014192Y010251D01*
X014239Y010228D01*
X014288Y010208D01*
X014338Y010191D01*
X014390Y010178D01*
X014442Y010169D01*
X014494Y010163D01*
X014547Y010161D01*
X014556Y010081D02*
X014556Y010171D01*
X014557Y010170D02*
X014611Y010172D01*
X014664Y010178D01*
X014717Y010188D01*
X014769Y010202D01*
X014820Y010219D01*
X014870Y010240D01*
X014918Y010264D01*
X014964Y010292D01*
X015008Y010323D01*
X015049Y010357D01*
X015089Y010394D01*
X015125Y010433D01*
X015193Y010376D01*
X015194Y010375D01*
X015156Y010334D01*
X015116Y010296D01*
X015073Y010260D01*
X015028Y010227D01*
X014981Y010197D01*
X014933Y010171D01*
X014882Y010147D01*
X014830Y010127D01*
X014777Y010111D01*
X014723Y010097D01*
X014668Y010088D01*
X014613Y010082D01*
X014557Y010080D01*
X014557Y010089D01*
X014612Y010091D01*
X014667Y010097D01*
X014721Y010106D01*
X014775Y010119D01*
X014827Y010136D01*
X014879Y010155D01*
X014929Y010179D01*
X014977Y010205D01*
X015023Y010235D01*
X015068Y010267D01*
X015110Y010302D01*
X015150Y010341D01*
X015187Y010381D01*
X015180Y010387D01*
X015143Y010347D01*
X015104Y010309D01*
X015062Y010274D01*
X015018Y010242D01*
X014972Y010213D01*
X014924Y010187D01*
X014875Y010164D01*
X014824Y010144D01*
X014772Y010128D01*
X014719Y010115D01*
X014666Y010106D01*
X014611Y010100D01*
X014557Y010098D01*
X014557Y010107D01*
X014611Y010109D01*
X014664Y010115D01*
X014717Y010124D01*
X014770Y010137D01*
X014821Y010153D01*
X014872Y010172D01*
X014920Y010195D01*
X014968Y010220D01*
X015013Y010249D01*
X015057Y010281D01*
X015098Y010316D01*
X015137Y010353D01*
X015173Y010393D01*
X015166Y010399D01*
X015130Y010359D01*
X015092Y010322D01*
X015051Y010288D01*
X015008Y010257D01*
X014963Y010228D01*
X014916Y010203D01*
X014868Y010180D01*
X014818Y010161D01*
X014767Y010145D01*
X014716Y010133D01*
X014663Y010124D01*
X014610Y010118D01*
X014557Y010116D01*
X014557Y010125D01*
X014610Y010127D01*
X014662Y010133D01*
X014714Y010142D01*
X014765Y010154D01*
X014815Y010170D01*
X014865Y010189D01*
X014912Y010211D01*
X014959Y010236D01*
X015003Y010264D01*
X015045Y010295D01*
X015086Y010329D01*
X015124Y010366D01*
X015159Y010404D01*
X015153Y010410D01*
X015117Y010372D01*
X015080Y010336D01*
X015040Y010302D01*
X014998Y010272D01*
X014954Y010244D01*
X014908Y010219D01*
X014861Y010197D01*
X014812Y010178D01*
X014763Y010163D01*
X014712Y010150D01*
X014661Y010142D01*
X014609Y010136D01*
X014557Y010134D01*
X014557Y010143D01*
X014613Y010145D01*
X014668Y010152D01*
X014723Y010162D01*
X014777Y010176D01*
X014830Y010194D01*
X014881Y010216D01*
X014931Y010241D01*
X014979Y010270D01*
X015024Y010302D01*
X015067Y010337D01*
X015108Y010375D01*
X015146Y010416D01*
X015139Y010422D01*
X015102Y010381D01*
X015061Y010344D01*
X015019Y010309D01*
X014974Y010277D01*
X014926Y010249D01*
X014877Y010224D01*
X014826Y010202D01*
X014774Y010185D01*
X014721Y010171D01*
X014667Y010161D01*
X014612Y010154D01*
X014557Y010152D01*
X014557Y010161D01*
X014611Y010163D01*
X014665Y010169D01*
X014719Y010179D01*
X014772Y010193D01*
X014823Y010211D01*
X014873Y010232D01*
X014922Y010257D01*
X014969Y010285D01*
X015013Y010316D01*
X015055Y010350D01*
X015095Y010388D01*
X015132Y010428D01*
X015197Y011469D02*
X015128Y011412D01*
X015129Y011412D02*
X015092Y011452D01*
X015053Y011490D01*
X015011Y011524D01*
X014967Y011556D01*
X014921Y011584D01*
X014872Y011609D01*
X014822Y011630D01*
X014771Y011648D01*
X014718Y011661D01*
X014665Y011671D01*
X014611Y011678D01*
X014557Y011680D01*
X014556Y011769D01*
X014557Y011770D01*
X014613Y011768D01*
X014669Y011762D01*
X014724Y011752D01*
X014779Y011739D01*
X014832Y011722D01*
X014885Y011702D01*
X014936Y011678D01*
X014985Y011651D01*
X015032Y011620D01*
X015077Y011587D01*
X015120Y011551D01*
X015160Y011512D01*
X015198Y011470D01*
X015191Y011464D01*
X015154Y011505D01*
X015114Y011544D01*
X015072Y011580D01*
X015027Y011613D01*
X014980Y011643D01*
X014932Y011670D01*
X014881Y011693D01*
X014829Y011714D01*
X014776Y011730D01*
X014722Y011743D01*
X014668Y011753D01*
X014613Y011759D01*
X014557Y011761D01*
X014557Y011752D01*
X014612Y011750D01*
X014667Y011744D01*
X014721Y011735D01*
X014774Y011722D01*
X014826Y011705D01*
X014878Y011685D01*
X014927Y011662D01*
X014976Y011635D01*
X015022Y011606D01*
X015066Y011573D01*
X015108Y011537D01*
X015147Y011499D01*
X015184Y011458D01*
X015177Y011453D01*
X015141Y011493D01*
X015102Y011531D01*
X015060Y011566D01*
X015017Y011598D01*
X014971Y011628D01*
X014923Y011654D01*
X014874Y011677D01*
X014824Y011697D01*
X014772Y011713D01*
X014719Y011726D01*
X014665Y011735D01*
X014611Y011741D01*
X014557Y011743D01*
X014557Y011734D01*
X014611Y011732D01*
X014664Y011726D01*
X014717Y011717D01*
X014769Y011704D01*
X014821Y011688D01*
X014871Y011669D01*
X014919Y011646D01*
X014966Y011620D01*
X015012Y011591D01*
X015055Y011559D01*
X015096Y011524D01*
X015134Y011487D01*
X015170Y011447D01*
X015163Y011441D01*
X015128Y011480D01*
X015090Y011517D01*
X015049Y011552D01*
X015006Y011583D01*
X014962Y011612D01*
X014915Y011638D01*
X014867Y011660D01*
X014818Y011680D01*
X014767Y011696D01*
X014715Y011708D01*
X014663Y011717D01*
X014610Y011723D01*
X014557Y011725D01*
X014557Y011716D01*
X014609Y011714D01*
X014662Y011708D01*
X014713Y011699D01*
X014764Y011687D01*
X014815Y011671D01*
X014864Y011652D01*
X014911Y011630D01*
X014957Y011604D01*
X015001Y011576D01*
X015043Y011545D01*
X015084Y011511D01*
X015121Y011474D01*
X015156Y011435D01*
X015150Y011429D01*
X015115Y011468D01*
X015077Y011504D01*
X015038Y011538D01*
X014996Y011569D01*
X014952Y011597D01*
X014907Y011622D01*
X014860Y011644D01*
X014812Y011663D01*
X014762Y011678D01*
X014712Y011691D01*
X014660Y011699D01*
X014609Y011705D01*
X014557Y011707D01*
X014557Y011698D01*
X014608Y011696D01*
X014659Y011691D01*
X014710Y011682D01*
X014760Y011670D01*
X014809Y011654D01*
X014856Y011636D01*
X014903Y011614D01*
X014948Y011589D01*
X014991Y011561D01*
X015032Y011531D01*
X015071Y011498D01*
X015108Y011462D01*
X015143Y011424D01*
X015136Y011418D01*
X015099Y011459D01*
X015059Y011497D01*
X015017Y011531D01*
X014972Y011563D01*
X014925Y011592D01*
X014876Y011617D01*
X014825Y011638D01*
X014774Y011656D01*
X014720Y011670D01*
X014666Y011680D01*
X014612Y011687D01*
X014557Y011689D01*
M02*
