%
M48
M72
T01C0.0120
T02C0.0276
T03C0.0320
T04C0.0350
T05C0.0354
T06C0.0400
T07C0.0440
T08C0.0512
T09C0.0550
T10C0.0748
T11C0.1300
%
T01
X35484Y12603
X35952Y16405
X36132Y19945
X35677Y19575
X38420Y23055
X30796Y24302
X23552Y19213
X21552Y21125
T02
X41952Y9525
X40952Y9525
X35652Y9525
X34652Y9525
X40852Y14625
X40852Y15625
X37852Y17025
X36852Y17025
T03
X14052Y10925
X15052Y10925
X15452Y13025
X15452Y14025
X15452Y15025
X15452Y16025
X18452Y16025
X18452Y15025
X18452Y14025
X18452Y13025
X20452Y10925
X21452Y10925
X28152Y10925
X29152Y10925
X31152Y12925
X31152Y13925
X31152Y14925
X31152Y15925
X31152Y16925
X31152Y17925
X31152Y18925
X31152Y19925
X34152Y19925
X34152Y18925
X34152Y17925
X34152Y16925
X34152Y15925
X34152Y14925
X34152Y13925
X34152Y12925
X36752Y12525
X36752Y11525
X35552Y10925
X34552Y10925
X36752Y10525
X36752Y9525
X39752Y9525
X39752Y10525
X40852Y10925
X41852Y10925
X39752Y11525
X39752Y12525
X39752Y13525
X39752Y14525
X39752Y15525
X42552Y16525
X43552Y16525
X44552Y16525
X45552Y16525
X46552Y16525
X47552Y16525
X48552Y16525
X49552Y16525
X49552Y13525
X48552Y13525
X47552Y13525
X46552Y13525
X45552Y13525
X44552Y13525
X43552Y13525
X42552Y13525
X47252Y10925
X48252Y10925
X36752Y15525
X36752Y14525
X36752Y13525
X25552Y16325
X25552Y17325
X25552Y18325
X25552Y19325
X22552Y19325
X22552Y18325
X22552Y17325
X22552Y16325
X35552Y1525
X34552Y1525
X33552Y1525
X32552Y1525
X31552Y1525
X30552Y1525
X29552Y1525
X28552Y1525
T04
X50052Y22925
X50052Y23925
X50052Y24925
X47052Y27925
X46052Y27925
X45052Y27925
T05
X14552Y5625
X15533Y5625
X20952Y5625
X21933Y5625
X24852Y6825
X28652Y5625
X29633Y5625
X24852Y3825
X29652Y9425
X32652Y9425
X35052Y5625
X36033Y5625
X41352Y5625
X42333Y5625
X47752Y5625
X48733Y5625
X47752Y9625
X44752Y9625
X44802Y18925
X47302Y18925
X47302Y20925
X44802Y20925
X36202Y21425
X35202Y21425
X33202Y21425
X32202Y21425
X32202Y30425
X35202Y30425
X36202Y30425
X20852Y16425
X19752Y16425
X19752Y13425
X20852Y13425
X12452Y12425
X12452Y9425
X37452Y1525
X40452Y1525
X41752Y1525
X44752Y1525
T06
X27752Y9425
X26752Y9425
X25752Y9425
X24752Y9425
X23752Y9425
X22752Y9425
X20752Y9425
X19752Y9425
X18752Y9425
X17752Y9425
X16752Y9425
X15752Y9425
X13352Y15525
X13352Y16525
X27802Y20425
X28802Y20425
X28802Y19425
X27802Y19425
X27802Y18425
X28802Y18425
X28802Y17425
X27802Y17425
X27752Y28425
X26752Y28425
X25752Y28425
X24752Y28425
X23752Y28425
X22752Y28425
X21752Y28425
X20752Y28425
X19252Y28425
X18252Y28425
X17252Y28425
X16252Y28425
X15252Y28425
X14252Y28425
X13252Y28425
X12252Y28425
X12252Y30025
X13252Y30025
X14252Y30025
X15252Y30025
X16252Y30025
X17252Y30025
X18252Y30025
X19252Y30025
X20252Y30025
X21252Y30025
X22252Y30025
X23252Y30025
X24252Y30025
X25252Y30025
X26252Y30025
X27252Y30025
T07
X27752Y22525
X27752Y23525
X27752Y24525
T08
X31052Y22425
X37352Y29425
T09
X43052Y21300
X49052Y21300
X49052Y26550
X43052Y26550
T10
X45754Y3646
X43356Y7634
X37056Y7634
X39354Y3646
X33054Y3646
X26654Y3646
X22956Y7634
X16556Y7634
X18954Y3646
X12554Y3646
X30656Y7634
X49756Y7634
T11
X49452Y1225
X39652Y17625
X21852Y23525
X39652Y29825
X49452Y29825
X13052Y1225
M30
