G75*
G70*
%OFA0B0*%
%FSLAX24Y24*%
%IPPOS*%
%LPD*%
%AMOC8*
5,1,8,0,0,1.08239X$1,22.5*
%
%ADD10C,0.0000*%
%ADD11C,0.0050*%
%ADD12C,0.0040*%
D10*
X011652Y000125D02*
X050644Y000125D01*
X050644Y031295D01*
X011652Y031295D01*
X011652Y000125D01*
X012402Y001225D02*
X012404Y001275D01*
X012410Y001325D01*
X012420Y001375D01*
X012433Y001423D01*
X012450Y001471D01*
X012471Y001517D01*
X012495Y001561D01*
X012523Y001603D01*
X012554Y001643D01*
X012588Y001680D01*
X012625Y001715D01*
X012664Y001746D01*
X012705Y001775D01*
X012749Y001800D01*
X012795Y001822D01*
X012842Y001840D01*
X012890Y001854D01*
X012939Y001865D01*
X012989Y001872D01*
X013039Y001875D01*
X013090Y001874D01*
X013140Y001869D01*
X013190Y001860D01*
X013238Y001848D01*
X013286Y001831D01*
X013332Y001811D01*
X013377Y001788D01*
X013420Y001761D01*
X013460Y001731D01*
X013498Y001698D01*
X013533Y001662D01*
X013566Y001623D01*
X013595Y001582D01*
X013621Y001539D01*
X013644Y001494D01*
X013663Y001447D01*
X013678Y001399D01*
X013690Y001350D01*
X013698Y001300D01*
X013702Y001250D01*
X013702Y001200D01*
X013698Y001150D01*
X013690Y001100D01*
X013678Y001051D01*
X013663Y001003D01*
X013644Y000956D01*
X013621Y000911D01*
X013595Y000868D01*
X013566Y000827D01*
X013533Y000788D01*
X013498Y000752D01*
X013460Y000719D01*
X013420Y000689D01*
X013377Y000662D01*
X013332Y000639D01*
X013286Y000619D01*
X013238Y000602D01*
X013190Y000590D01*
X013140Y000581D01*
X013090Y000576D01*
X013039Y000575D01*
X012989Y000578D01*
X012939Y000585D01*
X012890Y000596D01*
X012842Y000610D01*
X012795Y000628D01*
X012749Y000650D01*
X012705Y000675D01*
X012664Y000704D01*
X012625Y000735D01*
X012588Y000770D01*
X012554Y000807D01*
X012523Y000847D01*
X012495Y000889D01*
X012471Y000933D01*
X012450Y000979D01*
X012433Y001027D01*
X012420Y001075D01*
X012410Y001125D01*
X012404Y001175D01*
X012402Y001225D01*
X039002Y017625D02*
X039004Y017675D01*
X039010Y017725D01*
X039020Y017775D01*
X039033Y017823D01*
X039050Y017871D01*
X039071Y017917D01*
X039095Y017961D01*
X039123Y018003D01*
X039154Y018043D01*
X039188Y018080D01*
X039225Y018115D01*
X039264Y018146D01*
X039305Y018175D01*
X039349Y018200D01*
X039395Y018222D01*
X039442Y018240D01*
X039490Y018254D01*
X039539Y018265D01*
X039589Y018272D01*
X039639Y018275D01*
X039690Y018274D01*
X039740Y018269D01*
X039790Y018260D01*
X039838Y018248D01*
X039886Y018231D01*
X039932Y018211D01*
X039977Y018188D01*
X040020Y018161D01*
X040060Y018131D01*
X040098Y018098D01*
X040133Y018062D01*
X040166Y018023D01*
X040195Y017982D01*
X040221Y017939D01*
X040244Y017894D01*
X040263Y017847D01*
X040278Y017799D01*
X040290Y017750D01*
X040298Y017700D01*
X040302Y017650D01*
X040302Y017600D01*
X040298Y017550D01*
X040290Y017500D01*
X040278Y017451D01*
X040263Y017403D01*
X040244Y017356D01*
X040221Y017311D01*
X040195Y017268D01*
X040166Y017227D01*
X040133Y017188D01*
X040098Y017152D01*
X040060Y017119D01*
X040020Y017089D01*
X039977Y017062D01*
X039932Y017039D01*
X039886Y017019D01*
X039838Y017002D01*
X039790Y016990D01*
X039740Y016981D01*
X039690Y016976D01*
X039639Y016975D01*
X039589Y016978D01*
X039539Y016985D01*
X039490Y016996D01*
X039442Y017010D01*
X039395Y017028D01*
X039349Y017050D01*
X039305Y017075D01*
X039264Y017104D01*
X039225Y017135D01*
X039188Y017170D01*
X039154Y017207D01*
X039123Y017247D01*
X039095Y017289D01*
X039071Y017333D01*
X039050Y017379D01*
X039033Y017427D01*
X039020Y017475D01*
X039010Y017525D01*
X039004Y017575D01*
X039002Y017625D01*
X021202Y023525D02*
X021204Y023575D01*
X021210Y023625D01*
X021220Y023675D01*
X021233Y023723D01*
X021250Y023771D01*
X021271Y023817D01*
X021295Y023861D01*
X021323Y023903D01*
X021354Y023943D01*
X021388Y023980D01*
X021425Y024015D01*
X021464Y024046D01*
X021505Y024075D01*
X021549Y024100D01*
X021595Y024122D01*
X021642Y024140D01*
X021690Y024154D01*
X021739Y024165D01*
X021789Y024172D01*
X021839Y024175D01*
X021890Y024174D01*
X021940Y024169D01*
X021990Y024160D01*
X022038Y024148D01*
X022086Y024131D01*
X022132Y024111D01*
X022177Y024088D01*
X022220Y024061D01*
X022260Y024031D01*
X022298Y023998D01*
X022333Y023962D01*
X022366Y023923D01*
X022395Y023882D01*
X022421Y023839D01*
X022444Y023794D01*
X022463Y023747D01*
X022478Y023699D01*
X022490Y023650D01*
X022498Y023600D01*
X022502Y023550D01*
X022502Y023500D01*
X022498Y023450D01*
X022490Y023400D01*
X022478Y023351D01*
X022463Y023303D01*
X022444Y023256D01*
X022421Y023211D01*
X022395Y023168D01*
X022366Y023127D01*
X022333Y023088D01*
X022298Y023052D01*
X022260Y023019D01*
X022220Y022989D01*
X022177Y022962D01*
X022132Y022939D01*
X022086Y022919D01*
X022038Y022902D01*
X021990Y022890D01*
X021940Y022881D01*
X021890Y022876D01*
X021839Y022875D01*
X021789Y022878D01*
X021739Y022885D01*
X021690Y022896D01*
X021642Y022910D01*
X021595Y022928D01*
X021549Y022950D01*
X021505Y022975D01*
X021464Y023004D01*
X021425Y023035D01*
X021388Y023070D01*
X021354Y023107D01*
X021323Y023147D01*
X021295Y023189D01*
X021271Y023233D01*
X021250Y023279D01*
X021233Y023327D01*
X021220Y023375D01*
X021210Y023425D01*
X021204Y023475D01*
X021202Y023525D01*
X039002Y029825D02*
X039004Y029875D01*
X039010Y029925D01*
X039020Y029975D01*
X039033Y030023D01*
X039050Y030071D01*
X039071Y030117D01*
X039095Y030161D01*
X039123Y030203D01*
X039154Y030243D01*
X039188Y030280D01*
X039225Y030315D01*
X039264Y030346D01*
X039305Y030375D01*
X039349Y030400D01*
X039395Y030422D01*
X039442Y030440D01*
X039490Y030454D01*
X039539Y030465D01*
X039589Y030472D01*
X039639Y030475D01*
X039690Y030474D01*
X039740Y030469D01*
X039790Y030460D01*
X039838Y030448D01*
X039886Y030431D01*
X039932Y030411D01*
X039977Y030388D01*
X040020Y030361D01*
X040060Y030331D01*
X040098Y030298D01*
X040133Y030262D01*
X040166Y030223D01*
X040195Y030182D01*
X040221Y030139D01*
X040244Y030094D01*
X040263Y030047D01*
X040278Y029999D01*
X040290Y029950D01*
X040298Y029900D01*
X040302Y029850D01*
X040302Y029800D01*
X040298Y029750D01*
X040290Y029700D01*
X040278Y029651D01*
X040263Y029603D01*
X040244Y029556D01*
X040221Y029511D01*
X040195Y029468D01*
X040166Y029427D01*
X040133Y029388D01*
X040098Y029352D01*
X040060Y029319D01*
X040020Y029289D01*
X039977Y029262D01*
X039932Y029239D01*
X039886Y029219D01*
X039838Y029202D01*
X039790Y029190D01*
X039740Y029181D01*
X039690Y029176D01*
X039639Y029175D01*
X039589Y029178D01*
X039539Y029185D01*
X039490Y029196D01*
X039442Y029210D01*
X039395Y029228D01*
X039349Y029250D01*
X039305Y029275D01*
X039264Y029304D01*
X039225Y029335D01*
X039188Y029370D01*
X039154Y029407D01*
X039123Y029447D01*
X039095Y029489D01*
X039071Y029533D01*
X039050Y029579D01*
X039033Y029627D01*
X039020Y029675D01*
X039010Y029725D01*
X039004Y029775D01*
X039002Y029825D01*
X048802Y029825D02*
X048804Y029875D01*
X048810Y029925D01*
X048820Y029975D01*
X048833Y030023D01*
X048850Y030071D01*
X048871Y030117D01*
X048895Y030161D01*
X048923Y030203D01*
X048954Y030243D01*
X048988Y030280D01*
X049025Y030315D01*
X049064Y030346D01*
X049105Y030375D01*
X049149Y030400D01*
X049195Y030422D01*
X049242Y030440D01*
X049290Y030454D01*
X049339Y030465D01*
X049389Y030472D01*
X049439Y030475D01*
X049490Y030474D01*
X049540Y030469D01*
X049590Y030460D01*
X049638Y030448D01*
X049686Y030431D01*
X049732Y030411D01*
X049777Y030388D01*
X049820Y030361D01*
X049860Y030331D01*
X049898Y030298D01*
X049933Y030262D01*
X049966Y030223D01*
X049995Y030182D01*
X050021Y030139D01*
X050044Y030094D01*
X050063Y030047D01*
X050078Y029999D01*
X050090Y029950D01*
X050098Y029900D01*
X050102Y029850D01*
X050102Y029800D01*
X050098Y029750D01*
X050090Y029700D01*
X050078Y029651D01*
X050063Y029603D01*
X050044Y029556D01*
X050021Y029511D01*
X049995Y029468D01*
X049966Y029427D01*
X049933Y029388D01*
X049898Y029352D01*
X049860Y029319D01*
X049820Y029289D01*
X049777Y029262D01*
X049732Y029239D01*
X049686Y029219D01*
X049638Y029202D01*
X049590Y029190D01*
X049540Y029181D01*
X049490Y029176D01*
X049439Y029175D01*
X049389Y029178D01*
X049339Y029185D01*
X049290Y029196D01*
X049242Y029210D01*
X049195Y029228D01*
X049149Y029250D01*
X049105Y029275D01*
X049064Y029304D01*
X049025Y029335D01*
X048988Y029370D01*
X048954Y029407D01*
X048923Y029447D01*
X048895Y029489D01*
X048871Y029533D01*
X048850Y029579D01*
X048833Y029627D01*
X048820Y029675D01*
X048810Y029725D01*
X048804Y029775D01*
X048802Y029825D01*
X048802Y001225D02*
X048804Y001275D01*
X048810Y001325D01*
X048820Y001375D01*
X048833Y001423D01*
X048850Y001471D01*
X048871Y001517D01*
X048895Y001561D01*
X048923Y001603D01*
X048954Y001643D01*
X048988Y001680D01*
X049025Y001715D01*
X049064Y001746D01*
X049105Y001775D01*
X049149Y001800D01*
X049195Y001822D01*
X049242Y001840D01*
X049290Y001854D01*
X049339Y001865D01*
X049389Y001872D01*
X049439Y001875D01*
X049490Y001874D01*
X049540Y001869D01*
X049590Y001860D01*
X049638Y001848D01*
X049686Y001831D01*
X049732Y001811D01*
X049777Y001788D01*
X049820Y001761D01*
X049860Y001731D01*
X049898Y001698D01*
X049933Y001662D01*
X049966Y001623D01*
X049995Y001582D01*
X050021Y001539D01*
X050044Y001494D01*
X050063Y001447D01*
X050078Y001399D01*
X050090Y001350D01*
X050098Y001300D01*
X050102Y001250D01*
X050102Y001200D01*
X050098Y001150D01*
X050090Y001100D01*
X050078Y001051D01*
X050063Y001003D01*
X050044Y000956D01*
X050021Y000911D01*
X049995Y000868D01*
X049966Y000827D01*
X049933Y000788D01*
X049898Y000752D01*
X049860Y000719D01*
X049820Y000689D01*
X049777Y000662D01*
X049732Y000639D01*
X049686Y000619D01*
X049638Y000602D01*
X049590Y000590D01*
X049540Y000581D01*
X049490Y000576D01*
X049439Y000575D01*
X049389Y000578D01*
X049339Y000585D01*
X049290Y000596D01*
X049242Y000610D01*
X049195Y000628D01*
X049149Y000650D01*
X049105Y000675D01*
X049064Y000704D01*
X049025Y000735D01*
X048988Y000770D01*
X048954Y000807D01*
X048923Y000847D01*
X048895Y000889D01*
X048871Y000933D01*
X048850Y000979D01*
X048833Y001027D01*
X048820Y001075D01*
X048810Y001125D01*
X048804Y001175D01*
X048802Y001225D01*
D11*
X038052Y020900D02*
X028981Y020900D01*
X028981Y031150D01*
X038052Y031150D01*
X038052Y020900D01*
D12*
X034533Y023097D02*
X034226Y023097D01*
X034072Y023250D01*
X034226Y023404D01*
X034533Y023404D01*
X034379Y023634D02*
X034303Y023557D01*
X034149Y023557D01*
X034072Y023634D01*
X034072Y023788D01*
X034149Y023864D01*
X034303Y023864D01*
X034379Y023788D01*
X034379Y023634D01*
X034533Y024018D02*
X034533Y024095D01*
X034072Y024095D01*
X034072Y024171D02*
X034072Y024018D01*
X034149Y024401D02*
X034072Y024478D01*
X034149Y024401D02*
X034456Y024401D01*
X034379Y024325D02*
X034379Y024478D01*
X034379Y024708D02*
X034379Y024862D01*
X034303Y024939D01*
X034072Y024939D01*
X034072Y024708D01*
X034149Y024632D01*
X034226Y024708D01*
X034226Y024939D01*
X034303Y025092D02*
X034149Y025092D01*
X034072Y025169D01*
X034072Y025399D01*
X033996Y025399D02*
X034379Y025399D01*
X034379Y025169D01*
X034303Y025092D01*
X033919Y025246D02*
X033919Y025322D01*
X033996Y025399D01*
X034149Y025552D02*
X034303Y025552D01*
X034379Y025629D01*
X034379Y025783D01*
X034303Y025859D01*
X034226Y025859D01*
X034226Y025552D01*
X034149Y025552D02*
X034072Y025629D01*
X034072Y025783D01*
X033533Y025936D02*
X033072Y025936D01*
X033072Y025783D02*
X033072Y026090D01*
X033072Y026243D02*
X033379Y026550D01*
X033456Y026550D01*
X033533Y026473D01*
X033533Y026320D01*
X033456Y026243D01*
X033533Y025936D02*
X033379Y025783D01*
X033303Y025629D02*
X033149Y025629D01*
X033072Y025552D01*
X033072Y025399D01*
X033149Y025322D01*
X033149Y025169D02*
X033072Y025092D01*
X033072Y024939D01*
X033149Y024862D01*
X033456Y025169D01*
X033149Y025169D01*
X033303Y025322D02*
X033379Y025476D01*
X033379Y025552D01*
X033303Y025629D01*
X033533Y025629D02*
X033533Y025322D01*
X033303Y025322D01*
X033456Y025169D02*
X033533Y025092D01*
X033533Y024939D01*
X033456Y024862D01*
X033149Y024862D01*
X033303Y024708D02*
X033303Y024401D01*
X033226Y024248D02*
X033303Y024171D01*
X033303Y023941D01*
X033149Y023941D01*
X033072Y024018D01*
X033072Y024171D01*
X033149Y024248D01*
X033226Y024248D01*
X033456Y024095D02*
X033303Y023941D01*
X033456Y023788D02*
X033533Y023711D01*
X033533Y023557D01*
X033456Y023481D01*
X033149Y023481D01*
X033072Y023557D01*
X033072Y023711D01*
X033149Y023788D01*
X033456Y024095D02*
X033533Y024248D01*
X032533Y024248D02*
X032533Y023941D01*
X032533Y024095D02*
X032072Y024095D01*
X032072Y024401D02*
X032072Y024632D01*
X032149Y024708D01*
X032456Y024708D01*
X032533Y024632D01*
X032533Y024401D01*
X032072Y024401D01*
X032072Y024862D02*
X032533Y024862D01*
X032303Y024939D02*
X032072Y025169D01*
X032303Y025322D02*
X032303Y025629D01*
X032533Y025783D02*
X032072Y025783D01*
X032072Y026090D01*
X032149Y026243D02*
X032226Y026320D01*
X032226Y026550D01*
X032303Y026550D02*
X032072Y026550D01*
X032072Y026320D01*
X032149Y026243D01*
X032379Y026320D02*
X032379Y026473D01*
X032303Y026550D01*
X032379Y026703D02*
X032072Y026703D01*
X032072Y026857D02*
X032303Y026857D01*
X032379Y026934D01*
X032303Y027010D01*
X032072Y027010D01*
X032072Y027164D02*
X032072Y027394D01*
X032149Y027471D01*
X032303Y027471D01*
X032379Y027394D01*
X032379Y027164D01*
X032533Y027164D02*
X032072Y027164D01*
X032303Y026857D02*
X032379Y026780D01*
X032379Y026703D01*
X033072Y026703D02*
X033072Y026934D01*
X033149Y027010D01*
X033456Y027010D01*
X033533Y026934D01*
X033533Y026703D01*
X033072Y026703D01*
X033072Y026550D02*
X033072Y026243D01*
X034072Y026550D02*
X034072Y026780D01*
X034149Y026934D02*
X034072Y027010D01*
X034072Y027164D01*
X034149Y027241D01*
X034303Y027241D01*
X034379Y027164D01*
X034379Y027010D01*
X034303Y026934D01*
X034149Y026934D01*
X034379Y026780D02*
X034379Y026550D01*
X034303Y026473D01*
X034149Y026473D01*
X034072Y026550D01*
X033533Y027164D02*
X033072Y027164D01*
X033303Y027164D02*
X033303Y027317D01*
X033533Y027164D02*
X033533Y027471D01*
X033303Y027624D02*
X033303Y027931D01*
X033303Y028085D02*
X033303Y028238D01*
X033533Y028392D02*
X033533Y028085D01*
X033072Y028085D01*
X033072Y028392D01*
X032379Y028315D02*
X032379Y028161D01*
X032226Y028161D02*
X032226Y028392D01*
X032303Y028392D02*
X032072Y028392D01*
X032072Y028161D01*
X032149Y028085D01*
X032226Y028161D01*
X032379Y028315D02*
X032303Y028392D01*
X032379Y027931D02*
X032379Y027701D01*
X032303Y027624D01*
X032149Y027624D01*
X032072Y027701D01*
X032072Y027931D01*
X032533Y027931D01*
X034072Y028008D02*
X034379Y028161D01*
X034149Y028315D02*
X034149Y028392D01*
X034072Y028392D01*
X034072Y028315D01*
X034149Y028315D01*
X034072Y028008D02*
X034379Y027854D01*
X034303Y027701D02*
X034379Y027624D01*
X034379Y027394D01*
X034072Y027394D01*
X034072Y027701D02*
X034303Y027701D01*
X032533Y025169D02*
X032226Y024862D01*
X033149Y023327D02*
X033072Y023250D01*
X033072Y023097D01*
X033149Y023020D01*
X033456Y023020D01*
X033533Y023097D01*
X033533Y023250D01*
X033456Y023327D01*
M02*
