G75*
G70*
%OFA0B0*%
%FSLAX24Y24*%
%IPPOS*%
%LPD*%
%AMOC8*
5,1,8,0,0,1.08239X$1,22.5*
%
%ADD10C,0.0000*%
%ADD11C,0.0780*%
%ADD12C,0.0600*%
%ADD13C,0.1240*%
%ADD14C,0.0940*%
%ADD15C,0.0740*%
%ADD16C,0.1340*%
%ADD17C,0.0520*%
%ADD18C,0.0700*%
%ADD19C,0.0690*%
%ADD20C,0.0808*%
%ADD21C,0.0571*%
D10*
X011652Y000125D02*
X050644Y000125D01*
X050644Y031295D01*
X011652Y031295D01*
X011652Y000125D01*
X012402Y001225D02*
X012404Y001275D01*
X012410Y001325D01*
X012420Y001375D01*
X012433Y001423D01*
X012450Y001471D01*
X012471Y001517D01*
X012495Y001561D01*
X012523Y001603D01*
X012554Y001643D01*
X012588Y001680D01*
X012625Y001715D01*
X012664Y001746D01*
X012705Y001775D01*
X012749Y001800D01*
X012795Y001822D01*
X012842Y001840D01*
X012890Y001854D01*
X012939Y001865D01*
X012989Y001872D01*
X013039Y001875D01*
X013090Y001874D01*
X013140Y001869D01*
X013190Y001860D01*
X013238Y001848D01*
X013286Y001831D01*
X013332Y001811D01*
X013377Y001788D01*
X013420Y001761D01*
X013460Y001731D01*
X013498Y001698D01*
X013533Y001662D01*
X013566Y001623D01*
X013595Y001582D01*
X013621Y001539D01*
X013644Y001494D01*
X013663Y001447D01*
X013678Y001399D01*
X013690Y001350D01*
X013698Y001300D01*
X013702Y001250D01*
X013702Y001200D01*
X013698Y001150D01*
X013690Y001100D01*
X013678Y001051D01*
X013663Y001003D01*
X013644Y000956D01*
X013621Y000911D01*
X013595Y000868D01*
X013566Y000827D01*
X013533Y000788D01*
X013498Y000752D01*
X013460Y000719D01*
X013420Y000689D01*
X013377Y000662D01*
X013332Y000639D01*
X013286Y000619D01*
X013238Y000602D01*
X013190Y000590D01*
X013140Y000581D01*
X013090Y000576D01*
X013039Y000575D01*
X012989Y000578D01*
X012939Y000585D01*
X012890Y000596D01*
X012842Y000610D01*
X012795Y000628D01*
X012749Y000650D01*
X012705Y000675D01*
X012664Y000704D01*
X012625Y000735D01*
X012588Y000770D01*
X012554Y000807D01*
X012523Y000847D01*
X012495Y000889D01*
X012471Y000933D01*
X012450Y000979D01*
X012433Y001027D01*
X012420Y001075D01*
X012410Y001125D01*
X012404Y001175D01*
X012402Y001225D01*
X039002Y017625D02*
X039004Y017675D01*
X039010Y017725D01*
X039020Y017775D01*
X039033Y017823D01*
X039050Y017871D01*
X039071Y017917D01*
X039095Y017961D01*
X039123Y018003D01*
X039154Y018043D01*
X039188Y018080D01*
X039225Y018115D01*
X039264Y018146D01*
X039305Y018175D01*
X039349Y018200D01*
X039395Y018222D01*
X039442Y018240D01*
X039490Y018254D01*
X039539Y018265D01*
X039589Y018272D01*
X039639Y018275D01*
X039690Y018274D01*
X039740Y018269D01*
X039790Y018260D01*
X039838Y018248D01*
X039886Y018231D01*
X039932Y018211D01*
X039977Y018188D01*
X040020Y018161D01*
X040060Y018131D01*
X040098Y018098D01*
X040133Y018062D01*
X040166Y018023D01*
X040195Y017982D01*
X040221Y017939D01*
X040244Y017894D01*
X040263Y017847D01*
X040278Y017799D01*
X040290Y017750D01*
X040298Y017700D01*
X040302Y017650D01*
X040302Y017600D01*
X040298Y017550D01*
X040290Y017500D01*
X040278Y017451D01*
X040263Y017403D01*
X040244Y017356D01*
X040221Y017311D01*
X040195Y017268D01*
X040166Y017227D01*
X040133Y017188D01*
X040098Y017152D01*
X040060Y017119D01*
X040020Y017089D01*
X039977Y017062D01*
X039932Y017039D01*
X039886Y017019D01*
X039838Y017002D01*
X039790Y016990D01*
X039740Y016981D01*
X039690Y016976D01*
X039639Y016975D01*
X039589Y016978D01*
X039539Y016985D01*
X039490Y016996D01*
X039442Y017010D01*
X039395Y017028D01*
X039349Y017050D01*
X039305Y017075D01*
X039264Y017104D01*
X039225Y017135D01*
X039188Y017170D01*
X039154Y017207D01*
X039123Y017247D01*
X039095Y017289D01*
X039071Y017333D01*
X039050Y017379D01*
X039033Y017427D01*
X039020Y017475D01*
X039010Y017525D01*
X039004Y017575D01*
X039002Y017625D01*
X021202Y023525D02*
X021204Y023575D01*
X021210Y023625D01*
X021220Y023675D01*
X021233Y023723D01*
X021250Y023771D01*
X021271Y023817D01*
X021295Y023861D01*
X021323Y023903D01*
X021354Y023943D01*
X021388Y023980D01*
X021425Y024015D01*
X021464Y024046D01*
X021505Y024075D01*
X021549Y024100D01*
X021595Y024122D01*
X021642Y024140D01*
X021690Y024154D01*
X021739Y024165D01*
X021789Y024172D01*
X021839Y024175D01*
X021890Y024174D01*
X021940Y024169D01*
X021990Y024160D01*
X022038Y024148D01*
X022086Y024131D01*
X022132Y024111D01*
X022177Y024088D01*
X022220Y024061D01*
X022260Y024031D01*
X022298Y023998D01*
X022333Y023962D01*
X022366Y023923D01*
X022395Y023882D01*
X022421Y023839D01*
X022444Y023794D01*
X022463Y023747D01*
X022478Y023699D01*
X022490Y023650D01*
X022498Y023600D01*
X022502Y023550D01*
X022502Y023500D01*
X022498Y023450D01*
X022490Y023400D01*
X022478Y023351D01*
X022463Y023303D01*
X022444Y023256D01*
X022421Y023211D01*
X022395Y023168D01*
X022366Y023127D01*
X022333Y023088D01*
X022298Y023052D01*
X022260Y023019D01*
X022220Y022989D01*
X022177Y022962D01*
X022132Y022939D01*
X022086Y022919D01*
X022038Y022902D01*
X021990Y022890D01*
X021940Y022881D01*
X021890Y022876D01*
X021839Y022875D01*
X021789Y022878D01*
X021739Y022885D01*
X021690Y022896D01*
X021642Y022910D01*
X021595Y022928D01*
X021549Y022950D01*
X021505Y022975D01*
X021464Y023004D01*
X021425Y023035D01*
X021388Y023070D01*
X021354Y023107D01*
X021323Y023147D01*
X021295Y023189D01*
X021271Y023233D01*
X021250Y023279D01*
X021233Y023327D01*
X021220Y023375D01*
X021210Y023425D01*
X021204Y023475D01*
X021202Y023525D01*
X039002Y029825D02*
X039004Y029875D01*
X039010Y029925D01*
X039020Y029975D01*
X039033Y030023D01*
X039050Y030071D01*
X039071Y030117D01*
X039095Y030161D01*
X039123Y030203D01*
X039154Y030243D01*
X039188Y030280D01*
X039225Y030315D01*
X039264Y030346D01*
X039305Y030375D01*
X039349Y030400D01*
X039395Y030422D01*
X039442Y030440D01*
X039490Y030454D01*
X039539Y030465D01*
X039589Y030472D01*
X039639Y030475D01*
X039690Y030474D01*
X039740Y030469D01*
X039790Y030460D01*
X039838Y030448D01*
X039886Y030431D01*
X039932Y030411D01*
X039977Y030388D01*
X040020Y030361D01*
X040060Y030331D01*
X040098Y030298D01*
X040133Y030262D01*
X040166Y030223D01*
X040195Y030182D01*
X040221Y030139D01*
X040244Y030094D01*
X040263Y030047D01*
X040278Y029999D01*
X040290Y029950D01*
X040298Y029900D01*
X040302Y029850D01*
X040302Y029800D01*
X040298Y029750D01*
X040290Y029700D01*
X040278Y029651D01*
X040263Y029603D01*
X040244Y029556D01*
X040221Y029511D01*
X040195Y029468D01*
X040166Y029427D01*
X040133Y029388D01*
X040098Y029352D01*
X040060Y029319D01*
X040020Y029289D01*
X039977Y029262D01*
X039932Y029239D01*
X039886Y029219D01*
X039838Y029202D01*
X039790Y029190D01*
X039740Y029181D01*
X039690Y029176D01*
X039639Y029175D01*
X039589Y029178D01*
X039539Y029185D01*
X039490Y029196D01*
X039442Y029210D01*
X039395Y029228D01*
X039349Y029250D01*
X039305Y029275D01*
X039264Y029304D01*
X039225Y029335D01*
X039188Y029370D01*
X039154Y029407D01*
X039123Y029447D01*
X039095Y029489D01*
X039071Y029533D01*
X039050Y029579D01*
X039033Y029627D01*
X039020Y029675D01*
X039010Y029725D01*
X039004Y029775D01*
X039002Y029825D01*
X048802Y029825D02*
X048804Y029875D01*
X048810Y029925D01*
X048820Y029975D01*
X048833Y030023D01*
X048850Y030071D01*
X048871Y030117D01*
X048895Y030161D01*
X048923Y030203D01*
X048954Y030243D01*
X048988Y030280D01*
X049025Y030315D01*
X049064Y030346D01*
X049105Y030375D01*
X049149Y030400D01*
X049195Y030422D01*
X049242Y030440D01*
X049290Y030454D01*
X049339Y030465D01*
X049389Y030472D01*
X049439Y030475D01*
X049490Y030474D01*
X049540Y030469D01*
X049590Y030460D01*
X049638Y030448D01*
X049686Y030431D01*
X049732Y030411D01*
X049777Y030388D01*
X049820Y030361D01*
X049860Y030331D01*
X049898Y030298D01*
X049933Y030262D01*
X049966Y030223D01*
X049995Y030182D01*
X050021Y030139D01*
X050044Y030094D01*
X050063Y030047D01*
X050078Y029999D01*
X050090Y029950D01*
X050098Y029900D01*
X050102Y029850D01*
X050102Y029800D01*
X050098Y029750D01*
X050090Y029700D01*
X050078Y029651D01*
X050063Y029603D01*
X050044Y029556D01*
X050021Y029511D01*
X049995Y029468D01*
X049966Y029427D01*
X049933Y029388D01*
X049898Y029352D01*
X049860Y029319D01*
X049820Y029289D01*
X049777Y029262D01*
X049732Y029239D01*
X049686Y029219D01*
X049638Y029202D01*
X049590Y029190D01*
X049540Y029181D01*
X049490Y029176D01*
X049439Y029175D01*
X049389Y029178D01*
X049339Y029185D01*
X049290Y029196D01*
X049242Y029210D01*
X049195Y029228D01*
X049149Y029250D01*
X049105Y029275D01*
X049064Y029304D01*
X049025Y029335D01*
X048988Y029370D01*
X048954Y029407D01*
X048923Y029447D01*
X048895Y029489D01*
X048871Y029533D01*
X048850Y029579D01*
X048833Y029627D01*
X048820Y029675D01*
X048810Y029725D01*
X048804Y029775D01*
X048802Y029825D01*
X048802Y001225D02*
X048804Y001275D01*
X048810Y001325D01*
X048820Y001375D01*
X048833Y001423D01*
X048850Y001471D01*
X048871Y001517D01*
X048895Y001561D01*
X048923Y001603D01*
X048954Y001643D01*
X048988Y001680D01*
X049025Y001715D01*
X049064Y001746D01*
X049105Y001775D01*
X049149Y001800D01*
X049195Y001822D01*
X049242Y001840D01*
X049290Y001854D01*
X049339Y001865D01*
X049389Y001872D01*
X049439Y001875D01*
X049490Y001874D01*
X049540Y001869D01*
X049590Y001860D01*
X049638Y001848D01*
X049686Y001831D01*
X049732Y001811D01*
X049777Y001788D01*
X049820Y001761D01*
X049860Y001731D01*
X049898Y001698D01*
X049933Y001662D01*
X049966Y001623D01*
X049995Y001582D01*
X050021Y001539D01*
X050044Y001494D01*
X050063Y001447D01*
X050078Y001399D01*
X050090Y001350D01*
X050098Y001300D01*
X050102Y001250D01*
X050102Y001200D01*
X050098Y001150D01*
X050090Y001100D01*
X050078Y001051D01*
X050063Y001003D01*
X050044Y000956D01*
X050021Y000911D01*
X049995Y000868D01*
X049966Y000827D01*
X049933Y000788D01*
X049898Y000752D01*
X049860Y000719D01*
X049820Y000689D01*
X049777Y000662D01*
X049732Y000639D01*
X049686Y000619D01*
X049638Y000602D01*
X049590Y000590D01*
X049540Y000581D01*
X049490Y000576D01*
X049439Y000575D01*
X049389Y000578D01*
X049339Y000585D01*
X049290Y000596D01*
X049242Y000610D01*
X049195Y000628D01*
X049149Y000650D01*
X049105Y000675D01*
X049064Y000704D01*
X049025Y000735D01*
X048988Y000770D01*
X048954Y000807D01*
X048923Y000847D01*
X048895Y000889D01*
X048871Y000933D01*
X048850Y000979D01*
X048833Y001027D01*
X048820Y001075D01*
X048810Y001125D01*
X048804Y001175D01*
X048802Y001225D01*
D11*
X044752Y001525D03*
X041752Y001525D03*
X040452Y001525D03*
X037452Y001525D03*
X032652Y009425D03*
X034552Y010925D03*
X035552Y010925D03*
X040852Y010925D03*
X041852Y010925D03*
X044752Y009625D03*
X047252Y010925D03*
X048252Y010925D03*
X047752Y009625D03*
X029652Y009425D03*
X027752Y009425D03*
X026752Y009425D03*
X025752Y009425D03*
X024752Y009425D03*
X023752Y009425D03*
X022752Y009425D03*
X020752Y009425D03*
X019752Y009425D03*
X018752Y009425D03*
X017752Y009425D03*
X016752Y009425D03*
X015752Y009425D03*
X015052Y010925D03*
X014052Y010925D03*
X012452Y009425D03*
X012452Y012425D03*
X013352Y015525D03*
X013352Y016525D03*
X019752Y016425D03*
X020852Y016425D03*
X020852Y013425D03*
X019752Y013425D03*
X020452Y010925D03*
X021452Y010925D03*
X024852Y006825D03*
X024852Y003825D03*
X028152Y010925D03*
X029152Y010925D03*
X028802Y017425D03*
X027802Y017425D03*
X027802Y018425D03*
X028802Y018425D03*
X028802Y019425D03*
X027802Y019425D03*
X027802Y020425D03*
X028802Y020425D03*
X027752Y028425D03*
X026752Y028425D03*
X025752Y028425D03*
X024752Y028425D03*
X023752Y028425D03*
X022752Y028425D03*
X021752Y028425D03*
X020752Y028425D03*
X019252Y028425D03*
X018252Y028425D03*
X017252Y028425D03*
X016252Y028425D03*
X015252Y028425D03*
X014252Y028425D03*
X013252Y028425D03*
X012252Y028425D03*
X012252Y030025D03*
X013252Y030025D03*
X014252Y030025D03*
X015252Y030025D03*
X016252Y030025D03*
X017252Y030025D03*
X018252Y030025D03*
X019252Y030025D03*
X020252Y030025D03*
X021252Y030025D03*
X022252Y030025D03*
X023252Y030025D03*
X024252Y030025D03*
X025252Y030025D03*
X026252Y030025D03*
X027252Y030025D03*
D12*
X028652Y005905D02*
X028652Y005345D01*
X029633Y005345D02*
X029633Y005905D01*
X035052Y005905D02*
X035052Y005345D01*
X036033Y005345D02*
X036033Y005905D01*
X041352Y005905D02*
X041352Y005345D01*
X042333Y005345D02*
X042333Y005905D01*
X047752Y005905D02*
X047752Y005345D01*
X048733Y005345D02*
X048733Y005905D01*
X021933Y005905D02*
X021933Y005345D01*
X020952Y005345D02*
X020952Y005905D01*
X015533Y005905D02*
X015533Y005345D01*
X014552Y005345D02*
X014552Y005905D01*
D13*
X016556Y007634D03*
X022956Y007634D03*
X026654Y003646D03*
X033054Y003646D03*
X039354Y003646D03*
X037056Y007634D03*
X043356Y007634D03*
X045754Y003646D03*
X049756Y007634D03*
X030656Y007634D03*
X018954Y003646D03*
X012554Y003646D03*
D14*
X043052Y021300D03*
X049052Y021300D03*
X049052Y026550D03*
X043052Y026550D03*
D15*
X045052Y027925D03*
X046052Y027925D03*
X047052Y027925D03*
X050052Y024925D03*
X050052Y023925D03*
X050052Y022925D03*
X047302Y020925D03*
X044802Y020925D03*
X044802Y018925D03*
X047302Y018925D03*
D16*
X039652Y017625D03*
X021852Y023525D03*
X039652Y029825D03*
X049452Y029825D03*
X049452Y001225D03*
X013052Y001225D03*
D17*
X028552Y001285D02*
X028552Y001765D01*
X029552Y001765D02*
X029552Y001285D01*
X030552Y001285D02*
X030552Y001765D01*
X031552Y001765D02*
X031552Y001285D01*
X032552Y001285D02*
X032552Y001765D01*
X033552Y001765D02*
X033552Y001285D01*
X034552Y001285D02*
X034552Y001765D01*
X035552Y001765D02*
X035552Y001285D01*
X036512Y009525D02*
X036992Y009525D01*
X036992Y010525D02*
X036512Y010525D01*
X036512Y011525D02*
X036992Y011525D01*
X036992Y012525D02*
X036512Y012525D01*
X036512Y013525D02*
X036992Y013525D01*
X036992Y014525D02*
X036512Y014525D01*
X036512Y015525D02*
X036992Y015525D01*
X039512Y015525D02*
X039992Y015525D01*
X039992Y014525D02*
X039512Y014525D01*
X039512Y013525D02*
X039992Y013525D01*
X039992Y012525D02*
X039512Y012525D01*
X039512Y011525D02*
X039992Y011525D01*
X039992Y010525D02*
X039512Y010525D01*
X039512Y009525D02*
X039992Y009525D01*
X042552Y013285D02*
X042552Y013765D01*
X043552Y013765D02*
X043552Y013285D01*
X044552Y013285D02*
X044552Y013765D01*
X045552Y013765D02*
X045552Y013285D01*
X046552Y013285D02*
X046552Y013765D01*
X047552Y013765D02*
X047552Y013285D01*
X048552Y013285D02*
X048552Y013765D01*
X049552Y013765D02*
X049552Y013285D01*
X049552Y016285D02*
X049552Y016765D01*
X048552Y016765D02*
X048552Y016285D01*
X047552Y016285D02*
X047552Y016765D01*
X046552Y016765D02*
X046552Y016285D01*
X045552Y016285D02*
X045552Y016765D01*
X044552Y016765D02*
X044552Y016285D01*
X043552Y016285D02*
X043552Y016765D01*
X042552Y016765D02*
X042552Y016285D01*
X034392Y015925D02*
X033912Y015925D01*
X033912Y014925D02*
X034392Y014925D01*
X034392Y013925D02*
X033912Y013925D01*
X033912Y012925D02*
X034392Y012925D01*
X031392Y012925D02*
X030912Y012925D01*
X030912Y013925D02*
X031392Y013925D01*
X031392Y014925D02*
X030912Y014925D01*
X030912Y015925D02*
X031392Y015925D01*
X031392Y016925D02*
X030912Y016925D01*
X030912Y017925D02*
X031392Y017925D01*
X031392Y018925D02*
X030912Y018925D01*
X030912Y019925D02*
X031392Y019925D01*
X033912Y019925D02*
X034392Y019925D01*
X034392Y018925D02*
X033912Y018925D01*
X033912Y017925D02*
X034392Y017925D01*
X034392Y016925D02*
X033912Y016925D01*
X025792Y017325D02*
X025312Y017325D01*
X025312Y016325D02*
X025792Y016325D01*
X025792Y018325D02*
X025312Y018325D01*
X025312Y019325D02*
X025792Y019325D01*
X022792Y019325D02*
X022312Y019325D01*
X022312Y018325D02*
X022792Y018325D01*
X022792Y017325D02*
X022312Y017325D01*
X022312Y016325D02*
X022792Y016325D01*
X018692Y016025D02*
X018212Y016025D01*
X018212Y015025D02*
X018692Y015025D01*
X018692Y014025D02*
X018212Y014025D01*
X018212Y013025D02*
X018692Y013025D01*
X015692Y013025D02*
X015212Y013025D01*
X015212Y014025D02*
X015692Y014025D01*
X015692Y015025D02*
X015212Y015025D01*
X015212Y016025D02*
X015692Y016025D01*
D18*
X027422Y022525D02*
X028082Y022525D01*
X028082Y023525D02*
X027422Y023525D01*
X027422Y024525D02*
X028082Y024525D01*
D19*
X036852Y017025D03*
X037852Y017025D03*
X040852Y015625D03*
X040852Y014625D03*
X040952Y009525D03*
X041952Y009525D03*
X035652Y009525D03*
X034652Y009525D03*
D20*
X031052Y022041D02*
X031052Y022809D01*
X037352Y029041D02*
X037352Y029809D01*
D21*
X036202Y030159D02*
X036202Y030691D01*
X035202Y030691D02*
X035202Y030159D01*
X032202Y030159D02*
X032202Y030691D01*
X032202Y021691D02*
X032202Y021159D01*
X033202Y021159D02*
X033202Y021691D01*
X035202Y021691D02*
X035202Y021159D01*
X036202Y021159D02*
X036202Y021691D01*
M02*
